<?xml version="1.0" encoding="UTF-8"?>
<svg id="_圖層_2" data-name="圖層 2" xmlns="http://www.w3.org/2000/svg" xmlns:xlink="http://www.w3.org/1999/xlink" viewBox="0 0 127.12 139.41">
  <defs>
    <clipPath id="clippath">
      <rect width="127.12" height="139.41" fill="none"/>
    </clipPath>
  </defs>
  <g id="_圖層_1-2" data-name="圖層 1">
    <g clip-path="url(#clippath)">
      <g opacity=".5">
        <path d="M6.38,13.97c-3.51,0-6.38-3.12-6.38-7S2.85,0,6.38,0s6.38,3.12,6.38,7-2.85,7-6.38,7v-.03Z" fill="#fff"/>
        <path d="M6.38,45.34c-3.51,0-6.38-3.12-6.38-7s2.85-6.99,6.38-6.99,6.38,3.12,6.38,6.99-2.85,7-6.38,7Z" fill="#fff"/>
        <path d="M6.38,76.69c-3.51,0-6.38-3.12-6.38-7s2.85-7,6.38-7,6.38,3.12,6.38,7-2.85,7-6.38,7Z" fill="#fff"/>
        <path d="M6.38,108.03c-3.51,0-6.38-3.12-6.38-7s2.85-6.99,6.38-6.99,6.38,3.12,6.38,6.99-2.85,7-6.38,7Z" fill="#fff"/>
        <path d="M6.38,139.41c-3.51,0-6.38-3.13-6.38-7s2.85-7,6.38-7,6.38,3.12,6.38,7-2.85,7-6.38,7Z" fill="#fff"/>
        <path d="M34.97,13.97c-3.51,0-6.38-3.12-6.38-7S31.43-.03,34.97-.03s6.38,3.13,6.38,7-2.85,7-6.38,7Z" fill="#fff"/>
        <path d="M34.97,45.34c3.53,0,6.38-3.13,6.38-7s-2.86-6.99-6.38-6.99-6.38,3.13-6.38,6.99,2.86,7,6.38,7Z" fill="#fff"/>
        <path d="M34.97,76.69c-3.51,0-6.38-3.12-6.38-7s2.85-7,6.38-7,6.38,3.12,6.38,7-2.85,7-6.38,7Z" fill="#fff"/>
        <path d="M34.97,108.03c-3.51,0-6.38-3.12-6.38-7s2.85-6.99,6.38-6.99,6.38,3.12,6.38,6.99-2.85,7-6.38,7Z" fill="#fff"/>
        <path d="M34.97,139.41c3.53,0,6.38-3.14,6.38-7s-2.86-7-6.38-7-6.38,3.13-6.38,7,2.86,7,6.38,7Z" fill="#fff"/>
        <path d="M63.55,13.97c-3.51,0-6.38-3.12-6.38-7S60.02-.03,63.55-.03s6.38,3.13,6.38,7-2.85,7-6.38,7Z" fill="#fff"/>
        <path d="M63.55,45.34c-3.51,0-6.38-3.12-6.38-7s2.85-6.99,6.38-6.99,6.38,3.12,6.38,6.99-2.85,7-6.38,7Z" fill="#fff"/>
        <path d="M63.55,76.69c-3.51,0-6.38-3.12-6.38-7s2.85-7,6.38-7,6.38,3.12,6.38,7-2.85,7-6.38,7Z" fill="#fff"/>
        <path d="M63.55,108.03c-3.51,0-6.38-3.12-6.38-7s2.85-6.99,6.38-6.99,6.38,3.12,6.38,6.99-2.85,7-6.38,7Z" fill="#fff"/>
        <path d="M63.55,139.41c-3.51,0-6.38-3.13-6.38-7s2.85-7,6.38-7,6.38,3.12,6.38,7-2.85,7-6.38,7Z" fill="#fff"/>
        <path d="M92.16,13.97c-3.51,0-6.38-3.12-6.38-7S88.62-.03,92.16-.03s6.38,3.13,6.38,7-2.85,7-6.38,7Z" fill="#fff"/>
        <path d="M92.16,45.34c-3.51,0-6.38-3.12-6.38-7s2.85-6.99,6.38-6.99,6.38,3.12,6.38,6.99-2.85,7-6.38,7Z" fill="#fff"/>
        <path d="M92.16,76.69c-3.51,0-6.38-3.12-6.38-7s2.85-7,6.38-7,6.38,3.12,6.38,7-2.85,7-6.38,7Z" fill="#fff"/>
        <path d="M92.16,108.03c-3.51,0-6.38-3.12-6.38-7s2.85-6.99,6.38-6.99,6.38,3.12,6.38,6.99-2.85,7-6.38,7Z" fill="#fff"/>
        <path d="M92.16,139.41c-3.51,0-6.38-3.13-6.38-7s2.85-7,6.38-7,6.38,3.12,6.38,7-2.85,7-6.38,7Z" fill="#fff"/>
        <path d="M120.74,13.97c-3.51,0-6.38-3.12-6.38-7S117.21-.03,120.74-.03s6.38,3.13,6.38,7-2.85,7-6.38,7Z" fill="#fff"/>
        <path d="M120.74,45.34c3.53,0,6.38-3.13,6.38-7s-2.86-6.99-6.38-6.99-6.38,3.13-6.38,6.99,2.86,7,6.38,7Z" fill="#fff"/>
        <path d="M120.74,76.69c-3.51,0-6.38-3.12-6.38-7s2.85-7,6.38-7,6.38,3.12,6.38,7-2.85,7-6.38,7Z" fill="#fff"/>
        <path d="M120.74,108.03c-3.51,0-6.38-3.12-6.38-7s2.85-6.99,6.38-6.99,6.38,3.12,6.38,6.99-2.85,7-6.38,7Z" fill="#fff"/>
        <path d="M120.74,139.41c3.53,0,6.38-3.14,6.38-7s-2.86-7-6.38-7-6.38,3.13-6.38,7,2.86,7,6.38,7Z" fill="#fff"/>
      </g>
    </g>
  </g>
</svg>