<?xml version="1.0" encoding="UTF-8"?>
<svg id="_圖層_2" data-name="圖層 2" xmlns="http://www.w3.org/2000/svg" xmlns:xlink="http://www.w3.org/1999/xlink" viewBox="0 0 230 296">
  <defs>
    <clipPath id="clippath">
      <rect y="72" width="224" height="224" fill="none"/>
    </clipPath>
  </defs>
  <g id="_圖層_1-2" data-name="圖層 1">
    <g>
      <g clip-path="url(#clippath)">
        <path d="M154.04,141.96c-10.76-10.76-25.62-17.41-42.04-17.41s-31.28,6.65-42.04,17.41c-10.76,10.76-17.41,25.62-17.41,42.04s6.65,31.28,17.41,42.04c10.76,10.76,25.62,17.41,42.04,17.41s31.28-6.65,42.04-17.41,17.41-25.62,17.41-42.04-6.65-31.28-17.41-42.04ZM112,72c30.93,0,58.93,12.54,79.19,32.8,20.27,20.27,32.8,48.27,32.8,79.19s-12.54,58.93-32.8,79.19c-20.27,20.27-48.27,32.81-79.19,32.81s-58.93-12.54-79.19-32.81C12.54,242.92,0,214.92,0,184s12.54-58.93,32.81-79.19c20.27-20.27,48.27-32.8,79.19-32.8Z" fill="#fff" fill-rule="evenodd" isolation="isolate" opacity=".6"/>
      </g>
      <circle cx="201.5" cy="28.5" r="28.5" fill="#b2c7e5"/>
    </g>
  </g>
</svg>