<?xml version="1.0" encoding="UTF-8"?>
<svg id="_圖層_2" data-name="圖層 2" xmlns="http://www.w3.org/2000/svg" xmlns:xlink="http://www.w3.org/1999/xlink" viewBox="0 0 149.17 216.74">
  <defs>
    <mask id="mask" x="-6.48" y="-8.04" width="228.01" height="228.01" maskUnits="userSpaceOnUse">
      <g id="mask0_1478_1501" data-name="mask0 1478 1501">
        <path d="M107.53,219.97c62.96,0,114-51.04,114-114S170.49-8.04,107.53-8.04-6.48,43-6.48,105.97s51.04,114,114.01,114Z" fill="#fff"/>
      </g>
    </mask>
  </defs>
  <g id="_圖層_1-2" data-name="圖層 1">
    <g mask="url(#mask)">
      <g>
        <path d="M149.17,1.45c0,.8-.65,1.45-1.45,1.45s-1.45-.65-1.45-1.45.65-1.45,1.45-1.45,1.45.65,1.45,1.45Z" fill="#fff"/>
        <path d="M128.27,1.45c0,.8-.65,1.45-1.45,1.45s-1.46-.65-1.46-1.45.66-1.45,1.46-1.45,1.45.65,1.45,1.45Z" fill="#fff"/>
        <path d="M107.38,1.45c0,.8-.65,1.45-1.45,1.45s-1.46-.65-1.46-1.45.66-1.45,1.46-1.45,1.45.65,1.45,1.45Z" fill="#fff"/>
        <path d="M86.49,1.45c0,.8-.65,1.45-1.45,1.45s-1.46-.65-1.46-1.45.66-1.45,1.46-1.45,1.45.65,1.45,1.45Z" fill="#fff"/>
        <path d="M65.59,1.45c0,.8-.66,1.45-1.46,1.45s-1.45-.65-1.45-1.45.66-1.45,1.45-1.45,1.46.65,1.46,1.45Z" fill="#fff"/>
        <path d="M44.7,1.45c0,.8-.66,1.45-1.46,1.45s-1.45-.65-1.45-1.45.66-1.45,1.45-1.45,1.46.65,1.46,1.45Z" fill="#fff"/>
        <path d="M23.81,1.45c0,.8-.66,1.45-1.46,1.45s-1.45-.65-1.45-1.45.65-1.45,1.45-1.45,1.46.65,1.46,1.45Z" fill="#fff"/>
        <path d="M2.9,1.45c0,.8-.65,1.45-1.45,1.45s-1.45-.65-1.45-1.45S.65,0,1.45,0s1.45.65,1.45,1.45Z" fill="#fff"/>
        <path d="M149.17,19.28c0,.8-.65,1.45-1.45,1.45s-1.45-.65-1.45-1.45.65-1.45,1.45-1.45,1.45.65,1.45,1.45Z" fill="#fff"/>
        <path d="M128.27,19.28c0,.8-.65,1.45-1.45,1.45s-1.46-.65-1.46-1.45.66-1.45,1.46-1.45,1.45.65,1.45,1.45Z" fill="#fff"/>
        <path d="M107.38,19.28c0,.8-.65,1.45-1.45,1.45s-1.46-.65-1.46-1.45.66-1.45,1.46-1.45,1.45.65,1.45,1.45Z" fill="#fff"/>
        <path d="M86.49,19.28c0,.8-.65,1.45-1.45,1.45s-1.46-.65-1.46-1.45.66-1.45,1.46-1.45,1.45.65,1.45,1.45Z" fill="#fff"/>
        <path d="M65.59,19.28c0,.8-.66,1.45-1.46,1.45s-1.45-.65-1.45-1.45.66-1.45,1.45-1.45,1.46.65,1.46,1.45Z" fill="#fff"/>
        <path d="M44.7,19.28c0,.8-.66,1.45-1.46,1.45s-1.45-.65-1.45-1.45.66-1.45,1.45-1.45,1.46.65,1.46,1.45Z" fill="#fff"/>
        <path d="M23.81,19.28c0,.8-.66,1.45-1.46,1.45s-1.45-.65-1.45-1.45.65-1.45,1.45-1.45,1.46.65,1.46,1.45Z" fill="#fff"/>
        <path d="M2.9,19.28c0,.8-.65,1.45-1.45,1.45s-1.45-.65-1.45-1.45.65-1.45,1.45-1.45,1.45.65,1.45,1.45Z" fill="#fff"/>
        <path d="M149.17,37.09c0,.8-.65,1.46-1.45,1.46s-1.45-.66-1.45-1.46.65-1.45,1.45-1.45,1.45.66,1.45,1.45Z" fill="#fff"/>
        <path d="M128.27,37.09c0,.8-.65,1.46-1.45,1.46s-1.46-.66-1.46-1.46.66-1.45,1.46-1.45,1.45.66,1.45,1.45Z" fill="#fff"/>
        <path d="M107.38,37.09c0,.8-.65,1.46-1.45,1.46s-1.46-.66-1.46-1.46.66-1.45,1.46-1.45,1.45.66,1.45,1.45Z" fill="#fff"/>
        <path d="M86.49,37.09c0,.8-.65,1.46-1.45,1.46s-1.46-.66-1.46-1.46.66-1.45,1.46-1.45,1.45.66,1.45,1.45Z" fill="#fff"/>
        <path d="M64.13,38.55c.81,0,1.46-.65,1.46-1.46s-.65-1.45-1.46-1.45-1.45.65-1.45,1.45.65,1.46,1.45,1.46Z" fill="#fff"/>
        <path d="M44.7,37.09c0,.8-.66,1.46-1.46,1.46s-1.45-.66-1.45-1.46.66-1.45,1.45-1.45,1.46.66,1.46,1.45Z" fill="#fff"/>
        <path d="M23.81,37.09c0,.8-.66,1.46-1.46,1.46s-1.45-.66-1.45-1.46.65-1.45,1.45-1.45,1.46.66,1.46,1.45Z" fill="#fff"/>
        <path d="M2.9,37.09c0,.8-.65,1.46-1.45,1.46s-1.45-.66-1.45-1.46.65-1.45,1.45-1.45,1.45.66,1.45,1.45Z" fill="#fff"/>
        <path d="M149.17,54.91c0,.8-.65,1.45-1.45,1.45s-1.45-.65-1.45-1.45.65-1.45,1.45-1.45,1.45.65,1.45,1.45Z" fill="#fff"/>
        <path d="M128.27,54.91c0,.8-.65,1.45-1.45,1.45s-1.46-.65-1.46-1.45.66-1.45,1.46-1.45,1.45.65,1.45,1.45Z" fill="#fff"/>
        <path d="M107.38,54.91c0,.8-.65,1.45-1.45,1.45s-1.46-.65-1.46-1.45.66-1.45,1.46-1.45,1.45.65,1.45,1.45Z" fill="#fff"/>
        <path d="M86.49,54.91c0,.8-.65,1.45-1.45,1.45s-1.46-.65-1.46-1.45.66-1.45,1.46-1.45,1.45.65,1.45,1.45Z" fill="#fff"/>
        <path d="M65.59,54.94c.01-.8-.64-1.46-1.44-1.47s-1.46.63-1.47,1.43c-.01.81.63,1.46,1.43,1.47.81.01,1.47-.63,1.48-1.43Z" fill="#fff"/>
        <path d="M44.7,54.91c0,.8-.66,1.45-1.46,1.45s-1.45-.65-1.45-1.45.66-1.45,1.45-1.45,1.46.65,1.46,1.45Z" fill="#fff"/>
        <path d="M23.81,54.91c0,.8-.66,1.45-1.46,1.45s-1.45-.65-1.45-1.45.65-1.45,1.45-1.45,1.46.65,1.46,1.45Z" fill="#fff"/>
        <path d="M2.9,54.91c0,.8-.65,1.45-1.45,1.45s-1.45-.65-1.45-1.45.65-1.45,1.45-1.45,1.45.65,1.45,1.45Z" fill="#fff"/>
        <path d="M149.17,72.74c0,.79-.65,1.45-1.45,1.45s-1.45-.66-1.45-1.45.65-1.46,1.45-1.46,1.45.66,1.45,1.46Z" fill="#fff"/>
        <path d="M128.27,72.74c0,.79-.65,1.45-1.45,1.45s-1.46-.66-1.46-1.45.66-1.46,1.46-1.46,1.45.66,1.45,1.46Z" fill="#fff"/>
        <path d="M107.38,72.74c0,.79-.65,1.45-1.45,1.45s-1.46-.66-1.46-1.45.66-1.46,1.46-1.46,1.45.66,1.45,1.46Z" fill="#fff"/>
        <path d="M86.49,72.74c0,.79-.65,1.45-1.45,1.45s-1.46-.66-1.46-1.45.66-1.46,1.46-1.46,1.45.66,1.45,1.46Z" fill="#fff"/>
        <path d="M64.13,74.19c.81,0,1.46-.65,1.46-1.45s-.65-1.46-1.46-1.46-1.45.65-1.45,1.46.65,1.45,1.45,1.45Z" fill="#fff"/>
        <path d="M44.7,72.74c0,.79-.66,1.45-1.46,1.45s-1.45-.66-1.45-1.45.66-1.46,1.45-1.46,1.46.66,1.46,1.46Z" fill="#fff"/>
        <path d="M23.81,72.74c0,.79-.66,1.45-1.46,1.45s-1.45-.66-1.45-1.45.65-1.46,1.45-1.46,1.46.66,1.46,1.46Z" fill="#fff"/>
        <path d="M2.9,72.74c0,.79-.65,1.45-1.45,1.45s-1.45-.66-1.45-1.45.65-1.46,1.45-1.46,1.45.66,1.45,1.46Z" fill="#fff"/>
        <path d="M149.17,90.55c0,.8-.65,1.45-1.45,1.45s-1.45-.65-1.45-1.45.65-1.45,1.45-1.45,1.45.65,1.45,1.45Z" fill="#fff"/>
        <path d="M128.27,90.55c0,.8-.65,1.45-1.45,1.45s-1.46-.65-1.46-1.45.66-1.45,1.46-1.45,1.45.65,1.45,1.45Z" fill="#fff"/>
        <path d="M107.38,90.55c0,.8-.65,1.45-1.45,1.45s-1.46-.65-1.46-1.45.66-1.45,1.46-1.45,1.45.65,1.45,1.45Z" fill="#fff"/>
        <path d="M86.49,90.55c0,.8-.65,1.45-1.45,1.45s-1.46-.65-1.46-1.45.66-1.45,1.46-1.45,1.45.65,1.45,1.45Z" fill="#fff"/>
        <path d="M65.59,90.55c0,.8-.66,1.45-1.46,1.45s-1.45-.65-1.45-1.45.66-1.45,1.45-1.45,1.46.65,1.46,1.45Z" fill="#fff"/>
        <path d="M44.7,90.55c0,.8-.66,1.45-1.46,1.45s-1.45-.65-1.45-1.45.66-1.45,1.45-1.45,1.46.65,1.46,1.45Z" fill="#fff"/>
        <path d="M23.81,90.55c0,.8-.66,1.45-1.46,1.45s-1.45-.65-1.45-1.45.65-1.45,1.45-1.45,1.46.65,1.46,1.45Z" fill="#fff"/>
        <path d="M2.9,90.55c0,.8-.65,1.45-1.45,1.45s-1.45-.65-1.45-1.45.65-1.45,1.45-1.45,1.45.65,1.45,1.45Z" fill="#fff"/>
        <path d="M149.17,108.36c0,.8-.65,1.46-1.45,1.46s-1.45-.66-1.45-1.46.65-1.45,1.45-1.45,1.45.65,1.45,1.45Z" fill="#fff"/>
        <path d="M128.27,108.36c0,.8-.65,1.46-1.45,1.46s-1.46-.66-1.46-1.46.66-1.45,1.46-1.45,1.45.65,1.45,1.45Z" fill="#fff"/>
        <path d="M107.38,108.36c0,.8-.65,1.46-1.45,1.46s-1.46-.66-1.46-1.46.66-1.45,1.46-1.45,1.45.65,1.45,1.45Z" fill="#fff"/>
        <path d="M86.49,108.36c0,.8-.65,1.46-1.45,1.46s-1.46-.66-1.46-1.46.66-1.45,1.46-1.45,1.45.65,1.45,1.45Z" fill="#fff"/>
        <path d="M65.59,108.36c0,.8-.66,1.46-1.46,1.46s-1.45-.66-1.45-1.46.66-1.45,1.45-1.45,1.46.65,1.46,1.45Z" fill="#fff"/>
        <path d="M44.7,108.36c0,.8-.66,1.46-1.46,1.46s-1.45-.66-1.45-1.46.66-1.45,1.45-1.45,1.46.65,1.46,1.45Z" fill="#fff"/>
        <path d="M23.81,108.36c0,.8-.66,1.46-1.46,1.46s-1.45-.66-1.45-1.46.65-1.45,1.45-1.45,1.46.65,1.46,1.45Z" fill="#fff"/>
        <path d="M2.9,108.36c0,.8-.65,1.46-1.45,1.46s-1.45-.66-1.45-1.46.65-1.45,1.45-1.45,1.45.65,1.45,1.45Z" fill="#fff"/>
        <path d="M149.17,126.19c0,.8-.65,1.45-1.45,1.45s-1.45-.65-1.45-1.45.65-1.45,1.45-1.45,1.45.65,1.45,1.45Z" fill="#fff"/>
        <path d="M128.27,126.19c0,.8-.65,1.45-1.45,1.45s-1.46-.65-1.46-1.45.66-1.45,1.46-1.45,1.45.65,1.45,1.45Z" fill="#fff"/>
        <path d="M107.38,126.19c0,.8-.65,1.45-1.45,1.45s-1.46-.65-1.46-1.45.66-1.45,1.46-1.45,1.45.65,1.45,1.45Z" fill="#fff"/>
        <path d="M86.49,126.19c0,.8-.65,1.45-1.45,1.45s-1.46-.65-1.46-1.45.66-1.45,1.46-1.45,1.45.65,1.45,1.45Z" fill="#fff"/>
        <path d="M65.59,126.19c0,.8-.66,1.45-1.46,1.45s-1.45-.65-1.45-1.45.66-1.45,1.45-1.45,1.46.65,1.46,1.45Z" fill="#fff"/>
        <path d="M44.7,126.19c0,.8-.66,1.45-1.46,1.45s-1.45-.65-1.45-1.45.66-1.45,1.45-1.45,1.46.65,1.46,1.45Z" fill="#fff"/>
        <path d="M23.81,126.19c0,.8-.66,1.45-1.46,1.45s-1.45-.65-1.45-1.45.65-1.45,1.45-1.45,1.46.65,1.46,1.45Z" fill="#fff"/>
        <path d="M2.9,126.19c0,.8-.65,1.45-1.45,1.45s-1.45-.65-1.45-1.45.65-1.45,1.45-1.45,1.45.65,1.45,1.45Z" fill="#fff"/>
        <path d="M149.17,144c0,.8-.65,1.46-1.45,1.46s-1.45-.66-1.45-1.46.65-1.45,1.45-1.45,1.45.66,1.45,1.45Z" fill="#fff"/>
        <path d="M128.27,144c0,.8-.65,1.46-1.45,1.46s-1.46-.66-1.46-1.46.66-1.45,1.46-1.45,1.45.66,1.45,1.45Z" fill="#fff"/>
        <path d="M107.38,144c0,.8-.65,1.46-1.45,1.46s-1.46-.66-1.46-1.46.66-1.45,1.46-1.45,1.45.66,1.45,1.45Z" fill="#fff"/>
        <path d="M86.49,144c0,.8-.65,1.46-1.45,1.46s-1.46-.66-1.46-1.46.66-1.45,1.46-1.45,1.45.66,1.45,1.45Z" fill="#fff"/>
        <path d="M65.59,144c0,.8-.66,1.46-1.46,1.46s-1.45-.66-1.45-1.46.66-1.45,1.45-1.45,1.46.66,1.46,1.45Z" fill="#fff"/>
        <path d="M44.7,144c0,.8-.66,1.46-1.46,1.46s-1.45-.66-1.45-1.46.66-1.45,1.45-1.45,1.46.66,1.46,1.45Z" fill="#fff"/>
        <path d="M23.81,144c0,.8-.66,1.46-1.46,1.46s-1.45-.66-1.45-1.46.65-1.45,1.45-1.45,1.46.66,1.46,1.45Z" fill="#fff"/>
        <path d="M2.9,144c0,.8-.65,1.46-1.45,1.46s-1.45-.66-1.45-1.46.65-1.45,1.45-1.45,1.45.66,1.45,1.45Z" fill="#fff"/>
        <path d="M149.17,161.83c0,.8-.65,1.45-1.45,1.45s-1.45-.65-1.45-1.45.65-1.45,1.45-1.45,1.45.65,1.45,1.45Z" fill="#fff"/>
        <path d="M128.27,161.83c0,.8-.65,1.45-1.45,1.45s-1.46-.65-1.46-1.45.66-1.45,1.46-1.45,1.45.65,1.45,1.45Z" fill="#fff"/>
        <path d="M107.38,161.83c0,.8-.65,1.45-1.45,1.45s-1.46-.65-1.46-1.45.66-1.45,1.46-1.45,1.45.65,1.45,1.45Z" fill="#fff"/>
        <path d="M86.49,161.83c0,.8-.65,1.45-1.45,1.45s-1.46-.65-1.46-1.45.66-1.45,1.46-1.45,1.45.65,1.45,1.45Z" fill="#fff"/>
        <path d="M65.59,161.83c0,.8-.66,1.45-1.46,1.45s-1.45-.65-1.45-1.45.66-1.45,1.45-1.45,1.46.65,1.46,1.45Z" fill="#fff"/>
        <path d="M44.7,161.83c0,.8-.66,1.45-1.46,1.45s-1.45-.65-1.45-1.45.66-1.45,1.45-1.45,1.46.65,1.46,1.45Z" fill="#fff"/>
        <path d="M23.81,161.83c0,.8-.66,1.45-1.46,1.45s-1.45-.65-1.45-1.45.65-1.45,1.45-1.45,1.46.65,1.46,1.45Z" fill="#fff"/>
        <path d="M2.9,161.83c0,.8-.65,1.45-1.45,1.45s-1.45-.65-1.45-1.45.65-1.45,1.45-1.45,1.45.65,1.45,1.45Z" fill="#fff"/>
        <path d="M149.17,179.64c0,.8-.65,1.46-1.45,1.46s-1.45-.66-1.45-1.46.65-1.45,1.45-1.45,1.45.66,1.45,1.45Z" fill="#fff"/>
        <path d="M128.27,179.64c0,.8-.65,1.46-1.45,1.46s-1.46-.66-1.46-1.46.66-1.45,1.46-1.45,1.45.66,1.45,1.45Z" fill="#fff"/>
        <path d="M107.38,179.64c0,.8-.65,1.46-1.45,1.46s-1.46-.66-1.46-1.46.66-1.45,1.46-1.45,1.45.66,1.45,1.45Z" fill="#fff"/>
        <path d="M86.49,179.64c0,.8-.65,1.46-1.45,1.46s-1.46-.66-1.46-1.46.66-1.45,1.46-1.45,1.45.66,1.45,1.45Z" fill="#fff"/>
        <path d="M65.59,179.64c0,.8-.66,1.46-1.46,1.46s-1.45-.66-1.45-1.46.66-1.45,1.45-1.45,1.46.66,1.46,1.45Z" fill="#fff"/>
        <path d="M44.7,179.64c0,.8-.66,1.46-1.46,1.46s-1.45-.66-1.45-1.46.66-1.45,1.45-1.45,1.46.66,1.46,1.45Z" fill="#fff"/>
        <path d="M23.81,179.64c0,.8-.66,1.46-1.46,1.46s-1.45-.66-1.45-1.46.65-1.45,1.45-1.45,1.46.66,1.46,1.45Z" fill="#fff"/>
        <path d="M2.9,179.64c0,.8-.65,1.46-1.45,1.46s-1.45-.66-1.45-1.46.65-1.45,1.45-1.45,1.45.66,1.45,1.45Z" fill="#fff"/>
        <path d="M149.17,197.46c0,.8-.65,1.45-1.45,1.45s-1.45-.65-1.45-1.45.65-1.45,1.45-1.45,1.45.65,1.45,1.45Z" fill="#fff"/>
        <path d="M128.27,197.46c0,.8-.65,1.45-1.45,1.45s-1.46-.65-1.46-1.45.66-1.45,1.46-1.45,1.45.65,1.45,1.45Z" fill="#fff"/>
        <path d="M107.38,197.46c0,.8-.65,1.45-1.45,1.45s-1.46-.65-1.46-1.45.66-1.45,1.46-1.45,1.45.65,1.45,1.45Z" fill="#fff"/>
        <path d="M86.49,197.46c0,.8-.65,1.45-1.45,1.45s-1.46-.65-1.46-1.45.66-1.45,1.46-1.45,1.45.65,1.45,1.45Z" fill="#fff"/>
        <path d="M65.59,197.46c0,.8-.66,1.45-1.46,1.45s-1.45-.65-1.45-1.45.66-1.45,1.45-1.45,1.46.65,1.46,1.45Z" fill="#fff"/>
        <path d="M44.7,197.46c0,.8-.66,1.45-1.46,1.45s-1.45-.65-1.45-1.45.66-1.45,1.45-1.45,1.46.65,1.46,1.45Z" fill="#fff"/>
        <path d="M23.81,197.46c0,.8-.66,1.45-1.46,1.45s-1.45-.65-1.45-1.45.65-1.45,1.45-1.45,1.46.65,1.46,1.45Z" fill="#fff"/>
        <path d="M2.9,197.46c0,.8-.65,1.45-1.45,1.45s-1.45-.65-1.45-1.45.65-1.45,1.45-1.45,1.45.65,1.45,1.45Z" fill="#fff"/>
        <path d="M149.17,215.29c0,.79-.65,1.45-1.45,1.45s-1.45-.66-1.45-1.45.65-1.46,1.45-1.46,1.45.66,1.45,1.46Z" fill="#fff"/>
        <path d="M128.27,215.29c0,.79-.65,1.45-1.45,1.45s-1.46-.66-1.46-1.45.66-1.46,1.46-1.46,1.45.66,1.45,1.46Z" fill="#fff"/>
        <path d="M107.38,215.29c0,.79-.65,1.45-1.45,1.45s-1.46-.66-1.46-1.45.66-1.46,1.46-1.46,1.45.66,1.45,1.46Z" fill="#fff"/>
        <path d="M86.49,215.29c0,.79-.65,1.45-1.45,1.45s-1.46-.66-1.46-1.45.66-1.46,1.46-1.46,1.45.66,1.45,1.46Z" fill="#fff"/>
        <path d="M65.59,215.29c0,.79-.66,1.45-1.46,1.45s-1.45-.66-1.45-1.45.66-1.46,1.45-1.46,1.46.66,1.46,1.46Z" fill="#fff"/>
        <path d="M44.7,215.29c0,.79-.66,1.45-1.46,1.45s-1.45-.66-1.45-1.45.66-1.46,1.45-1.46,1.46.66,1.46,1.46Z" fill="#fff"/>
        <path d="M23.81,215.29c0,.79-.66,1.45-1.46,1.45s-1.45-.66-1.45-1.45.65-1.46,1.45-1.46,1.46.66,1.46,1.46Z" fill="#fff"/>
        <path d="M2.9,215.29c0,.79-.65,1.45-1.45,1.45s-1.45-.66-1.45-1.45.65-1.46,1.45-1.46,1.45.66,1.45,1.46Z" fill="#fff"/>
      </g>
    </g>
  </g>
</svg>