<?xml version="1.0" encoding="utf-8"?>
<!-- Generator: Adobe Illustrator 28.7.10, SVG Export Plug-In . SVG Version: 9.03 Build 57640)  -->
<svg version="1.0" id="圖層_1" xmlns="http://www.w3.org/2000/svg" xmlns:xlink="http://www.w3.org/1999/xlink" x="0px" y="0px"
	 viewBox="0 0 4412.1 766.1" style="enable-background:new 0 0 4412.1 766.1;" xml:space="preserve">
<style type="text/css">
	.st0{fill:#285CA9;}
</style>
<path class="st0" d="M4385.2,137.1c-233.6,0-233.6-101.2-467.2-101.2c-233.6,0-233.6,101.2-467.3,101.2c-4.6,0-9.1,0-13.5-0.1v-0.5
	c-2.9,0.1-5.8,0.2-8.8,0.3c-211.6-6.2-219-100.8-445-100.8c-6.3,0-12.3,0.1-18.3,0.2c-7.1-0.2-14.5-0.3-22.1-0.3
	c-228.1,0-233.5,96.4-451,101v-0.3c-5.8,0.2-11.8,0.4-18,0.4c-232-0.5-232.5-101.2-465.6-101.2c-3,0-6,0-9,0.1c-0.5,0-1,0-1.5,0
	c-233.6,0-233.6,101.2-467.3,101.2c-4.6,0-9.1,0-13.5-0.1v-0.5c-2.9,0.1-5.8,0.2-8.8,0.3c-211.6-6.2-219-100.8-445-100.8
	c-6.3,0-12.3,0.1-18.3,0.2c-7.1-0.2-14.5-0.3-22.1-0.3C789.3,35.8,789.3,137,555.6,137C322,137,322,35.8,88.3,35.8
	c-33.9,0-62.8,2.1-88.3,5.8v639.8c23,2.8,48.8,4.4,78.3,4.4c233.7,0,233.7-101.2,467.3-101.2c233.7,0,233.6,101.2,467.3,101.2
	c6.2,0,12.3-0.1,18.2-0.2c7.2,0.2,14.5,0.3,22.2,0.3c227.4,0,233.5-95.8,449-100.9c5.1,0.1,10,0.3,14.8,0.6v-0.8c1.2,0,2.4,0,3.5,0
	c233.7,0,233.6,101.2,467.3,101.2c3.1,0,6.1,0,9.2-0.1c0.5,0,0.9,0,1.4,0c230.6,0,233.6-98.5,458.2-101.1c12.5,0,24.3,0.3,35.5,0.9
	v-0.5c207.7,7.3,216.4,100.7,441,100.7c6.2,0,12.3-0.1,18.2-0.2c7.2,0.2,14.5,0.3,22.2,0.3c227.4,0,233.5-95.8,449-100.9
	c5.1,0.1,10,0.3,14.8,0.6v-0.8c1.2,0,2.4,0,3.5,0c233.7,0,233.6,101.2,467.3,101.2c233.6,0,233.6-101.2,467.2-101.2
	c13,0,25.3,0.3,37,0.9V136.6C4403.5,136.9,4394.5,137.1,4385.2,137.1z"/>
</svg>
