<?xml version="1.0" encoding="UTF-8"?>
<svg id="_圖層_2" data-name="圖層 2" xmlns="http://www.w3.org/2000/svg" viewBox="0 0 1630 650">
  <g id="_圖層_1-2" data-name="圖層 1">
    <path d="M1094.61,0c233.62,0,233.62,101.16,467.21,101.16,25.26,0,47.77-1.2,68.18-3.33v302.17h-10v152.17c-20.41-2.13-42.92-3.33-68.18-3.33-233.59,0-233.59,101.16-467.21,101.16s-233.6-101.16-467.26-101.16-233.66,101.16-467.32,101.16c-64.58,0-111.3-7.73-150.03-18.91V250h10V18.91C48.73,7.73,95.45,0,160.03,0c233.66,0,233.66,101.16,467.32,101.16S860.98,0,1094.61,0Z" fill="#285ca9"/>
  </g>
</svg>