<?xml version="1.0" encoding="UTF-8"?>
<svg xmlns="http://www.w3.org/2000/svg" version="1.1" viewBox="0 0 50 50">
  <defs>
    <style>
      .cls-1 {
        fill: #1bb5db;
      }
    </style>
  </defs>
  <!-- Generator: Adobe Illustrator 28.7.7, SVG Export Plug-In . SVG Version: 1.2.0 Build 194)  -->
  <g>
    <g id="_圖層_1" data-name="圖層_1">
      <path class="cls-1" d="M.5,44.1l11.1-11.1-3.7-3.5c-1.7-1.6-.5-4.5,1.9-4.5h12.5c1.5,0,2.7,1.2,2.7,2.7v12.5c0,2.4-2.9,3.6-4.6,1.9l-3.4-3.7-11.1,11.1c-.7.7-1.8.7-2.5,0l-2.8-2.8c-.8-.8-.8-1.9-.1-2.6ZM49.5,5.9l-11.1,11.1,3.7,3.5c1.7,1.7.5,4.6-1.9,4.6h-12.5c-1.5,0-2.7-1.2-2.7-2.7v-12.6c0-2.4,2.9-3.6,4.6-1.9l3.5,3.7L44.1.5c.7-.7,1.8-.7,2.5,0l2.8,2.8c.8.8.8,1.9.1,2.6Z"/>
    </g>
  </g>
</svg>