<?xml version="1.0" encoding="UTF-8"?>
<svg xmlns="http://www.w3.org/2000/svg" version="1.1" viewBox="0 0 50 50">
  <defs>
    <style>
      .cls-1 {
        fill: #1bb5db;
      }
    </style>
  </defs>
  <!-- Generator: Adobe Illustrator 28.7.7, SVG Export Plug-In . SVG Version: 1.2.0 Build 194)  -->
  <g>
    <g id="_圖層_1" data-name="圖層_1">
      <path class="cls-1" d="M24.5,31.1l-10.4,10.4,3.7,3.5c1.7,1.7.5,4.6-1.9,4.6H3.3c-1.5,0-2.7-1.2-2.7-2.7v-12.6c0-2.4,2.9-3.6,4.6-1.9l3.5,3.7,10.4-10.4c.7-.7,1.8-.7,2.5,0l2.9,2.9c.7.6.7,1.7,0,2.5Z"/>
      <path class="cls-1" d="M26.1,18.7l10.4-10.4-3.7-3.5c-1.7-1.7-.5-4.6,1.9-4.6h12.6c1.5,0,2.7,1.2,2.7,2.7v12.6c0,2.4-2.9,3.6-4.6,1.9l-3.5-3.7-10.4,10.4c-.7.7-1.8.7-2.5,0l-2.9-2.9c-.8-.7-.8-1.8,0-2.5h0Z"/>
    </g>
  </g>
</svg>