<?xml version="1.0" encoding="utf-8"?>
<!-- Generator: Adobe Illustrator 25.3.1, SVG Export Plug-In . SVG Version: 6.00 Build 0)  -->
<svg version="1.1" id="圖層_1" focusable="false" xmlns="http://www.w3.org/2000/svg" xmlns:xlink="http://www.w3.org/1999/xlink"
	 x="0px" y="0px" viewBox="0 0 512 512" style="enable-background:new 0 0 512 512;" xml:space="preserve">
<style type="text/css">
	.st0{fill:#FFFFFF;}
</style>
<path class="st0" d="M288,136V0H88C74.7,0,64,10.7,64,24v464c0,13.3,10.7,24,24,24h336c13.3,0,24-10.7,24-24V160H312
	C298.8,160,288,149.2,288,136z M364.5,347.4L268,443.1c-6.7,6.6-17.4,6.6-24,0l-96.4-95.7c-10.2-10.1-3-27.4,11.2-27.4H224v-80
	c0-8.8,7.2-16,16-16h32c8.8,0,16,7.2,16,16v80h65.2C367.5,320,374.6,337.3,364.5,347.4L364.5,347.4z M441,105L343.1,7
	c-4.5-4.5-10.6-7-17-7H320v128h128v-6.1C448,115.6,445.5,109.5,441,105z"/>
</svg>
