<?xml version="1.0" encoding="utf-8"?>
<!-- Generator: Adobe Illustrator 16.0.0, SVG Export Plug-In . SVG Version: 6.00 Build 0)  -->
<!DOCTYPE svg PUBLIC "-//W3C//DTD SVG 1.1//EN" "http://www.w3.org/Graphics/SVG/1.1/DTD/svg11.dtd">
<svg version="1.1" id="Capa_1" xmlns="http://www.w3.org/2000/svg" xmlns:xlink="http://www.w3.org/1999/xlink" x="0px" y="0px"
	 width="355.75px" height="512px" viewBox="0 0 355.75 512" enable-background="new 0 0 355.75 512" xml:space="preserve">
<g>
	<path fill="#FFFFFF" d="M258.789,3.236c-4.411,0.011-8.313,1.708-11.703,5.111L10.251,246.405
		c-3.387,3.401-5.074,7.308-5.063,11.723s1.719,8.321,5.124,11.707l238.043,236.828c3.403,3.385,7.314,5.078,11.729,5.064
		c4.417-0.013,8.321-1.718,11.707-5.128l25.409-25.532c3.394-3.402,5.078-7.315,5.067-11.732c-0.014-4.415-1.716-8.318-5.126-11.706
		L96.397,257.896L296.125,57.134c3.394-3.403,5.078-7.316,5.067-11.726c-0.011-4.42-1.717-8.326-5.127-11.712L270.53,8.287
		C267.118,4.901,263.206,3.224,258.789,3.236z"/>
</g>
</svg>
