<?xml version="1.0" encoding="utf-8"?>
<!-- Generator: Adobe Illustrator 16.0.0, SVG Export Plug-In . SVG Version: 6.00 Build 0)  -->
<!DOCTYPE svg PUBLIC "-//W3C//DTD SVG 1.1//EN" "http://www.w3.org/Graphics/SVG/1.1/DTD/svg11.dtd">
<svg version="1.1" id="Layer_1" xmlns="http://www.w3.org/2000/svg" xmlns:xlink="http://www.w3.org/1999/xlink" x="0px" y="0px"
	 width="595.281px" height="609px" viewBox="0 117.445 595.281 609" enable-background="new 0 117.445 595.281 609"
	 xml:space="preserve">
<path fill="#FF1547" d="M533.792,718.537c-15.736,0-31.471-6.002-43.48-18.01L303.099,513.312c-24.01-24.011-24.01-62.944,0-86.956
	c24.014-24.014,62.945-24.013,86.959,0l187.213,187.215c24.012,24.012,24.012,62.944,0,86.957
	C565.265,712.531,549.525,718.537,533.792,718.537z"/>
<path opacity="0.3" fill="#145587" enable-background="new    " d="M390.058,426.356c-24.014-24.013-62.945-24.014-86.957,0
	c-24.011,24.012-24.011,62.945,0,86.956l54.385,54.386c35.449-21.64,65.314-51.519,86.936-86.979L390.058,426.356z"/>
<circle fill="#4C4C49" cx="222.079" cy="345.431" r="222.079"/>
<circle fill="#FFFFFF" cx="222.079" cy="345.432" r="154.747"/>
<path opacity="0.15" fill="#145587" enable-background="new    " d="M222.085,190.692c-85.461,0-154.742,69.279-154.742,154.742
	c0,4.838,0.234,9.621,0.667,14.346c7.24-78.732,73.451-140.394,154.073-140.394c80.623,0,146.834,61.659,154.072,140.394
	c0.436-4.725,0.668-9.51,0.668-14.346C376.826,259.973,307.546,190.692,222.085,190.692z"/>
<path fill="#F9C526" d="M577.271,613.571l-35.275-35.275l-86.957,86.956l35.275,35.275c12.006,12.008,27.74,18.01,43.479,18.01
	c15.734,0,31.475-6.004,43.48-18.009C601.283,676.514,601.283,637.583,577.271,613.571z"/>
</svg>
