<?xml version="1.0" encoding="utf-8"?>
<!-- Generator: Adobe Illustrator 16.0.0, SVG Export Plug-In . SVG Version: 6.00 Build 0)  -->
<!DOCTYPE svg PUBLIC "-//W3C//DTD SVG 1.1//EN" "http://www.w3.org/Graphics/SVG/1.1/DTD/svg11.dtd">
<svg version="1.1" id="Capa_1" xmlns="http://www.w3.org/2000/svg" xmlns:xlink="http://www.w3.org/1999/xlink" x="0px" y="0px"
	 width="334.844px" height="553.141px" viewBox="130.218 165.445 334.844 553.141"
	 enable-background="new 130.218 165.445 334.844 553.141" xml:space="preserve">
<g>
	<g>
		<path fill="#FF1547" d="M434.321,379.938L310.853,177.871c-2.816-4.611-7.828-7.426-13.213-7.426
			c-5.384,0-10.397,2.815-13.213,7.396L160.959,379.907c-4.023,6.56-2.568,15.101,3.373,20.021
			c5.911,4.858,14.575,4.672,20.269-0.526c30.542-27.912,70.708-43.292,113.04-43.292s82.498,15.38,113.04,43.292
			c5.663,5.168,14.297,5.384,20.269,0.526C436.889,395.008,438.345,386.467,434.321,379.938z"/>
	</g>
</g>
<g>
	<g>
		<path fill="#4C4C49" d="M297.64,383.74c-92.306,0-167.422,75.117-167.422,167.423s75.117,167.423,167.422,167.423
			c92.305,0,167.422-75.117,167.422-167.423S389.945,383.74,297.64,383.74z M353.447,625.573c0,8.595-5.914,16.146-14.322,18.081
			c-1.451,0.373-2.865,0.521-4.279,0.521c-6.957,0-13.432-3.869-16.631-10.269l-39.177-78.354v70.02
			c0,10.269-8.334,18.603-18.603,18.603s-18.603-8.334-18.603-18.603v-148.82c0-8.594,5.953-16.146,14.324-18.081
			c8.296-2.158,17.04,2.083,20.909,9.784l39.176,78.316v-70.02c0-10.269,8.334-18.603,18.604-18.603
			c10.268,0,18.602,8.334,18.602,18.603V625.573z"/>
	</g>
</g>
</svg>
