<svg width="16" height="16" viewBox="0 0 16 16" fill="none" xmlns="http://www.w3.org/2000/svg">
<g id="_?&#238;&#161;&#188;&#230;&#131;&#156;_1" clip-path="url(#clip0_142_445)">
<path id="Vector" d="M16 8C16 12.4194 12.4194 16 8 16C3.58065 16 0 12.4194 0 8C0 3.58065 3.58065 0 8 0C12.4194 0 16 3.58065 16 8ZM6.58065 4.25806V8H4.29355C3.94839 8 3.77419 8.41935 4.01935 8.66129L7.72581 12.3484C7.87742 12.5 8.11935 12.5 8.27097 12.3484L11.9774 8.66129C12.2226 8.41613 12.0484 8 11.7032 8H9.41935V4.25806C9.41935 4.04516 9.24516 3.87097 9.03226 3.87097H6.96774C6.75484 3.87097 6.58065 4.04516 6.58065 4.25806Z" fill="#1BB5DB"/>
</g>
<defs>
<clipPath id="clip0_142_445">
<rect width="16" height="16" fill="white"/>
</clipPath>
</defs>
</svg>
