<svg width="30" height="28" viewBox="0 0 30 28" fill="none" xmlns="http://www.w3.org/2000/svg">
<g clip-path="url(#clip0_619_426)">
<path fill-rule="evenodd" clip-rule="evenodd" d="M10.8071 4.56615H28.669L18.0599 11.8975L10.8436 6.91068C11.1182 6.16887 11.1207 5.33077 10.8071 4.56615ZM6.13539 8.82127L8.73898 7.22299C9.51132 6.74851 9.76835 5.73683 9.31588 4.94688L6.96555 0.843801C6.72423 0.422535 6.35912 0.152037 5.88905 0.044978C5.41836 -0.0620808 4.97343 0.0240731 4.57626 0.300272L0.289737 3.27448C-1.75078 10.5215 7.41865 26.2117 14.4508 28L19.1502 25.7454C19.5857 25.5364 19.8823 25.1911 20.0256 24.7268C20.1689 24.2624 20.1186 23.8082 19.8773 23.3876L17.5269 19.2839C17.0745 18.4939 16.0772 18.212 15.2835 18.6498L12.6089 20.1239C9.96379 17.7528 6.85055 12.3168 6.13602 8.8219L6.13539 8.82127ZM29.9667 5.50878L18.4847 13.4438C18.2163 13.6288 17.8707 13.6142 17.6212 13.4337L9.99835 8.16625C9.85382 8.29738 9.69545 8.4171 9.52389 8.52226L7.8774 9.53267C8.74275 12.3472 10.8832 16.0848 12.869 18.2475L14.5608 17.315C16.0721 16.482 17.9725 17.0192 18.8341 18.5231L20.292 21.0684H28.7828C29.4533 21.0684 30.0019 20.5154 30.0019 19.8395V5.79511C30.0019 5.69692 29.9906 5.60127 29.9686 5.50941L29.9667 5.50878Z" fill="#005E53"/>
</g>
<defs>
<clipPath id="clip0_619_426">
<rect width="30" height="28" fill="white"/>
</clipPath>
</defs>
</svg>
