<svg width="20" height="20" viewBox="0 0 20 20" fill="none" xmlns="http://www.w3.org/2000/svg">
<g id="Capa_1" clip-path="url(#clip0_280_6)">
<path id="Vector" d="M15.9621 5.6203H12.8079V7.49932H15.9621C16.9011 7.49932 17.6281 7.97847 17.6281 8.39498V16.7284C17.6281 17.1418 16.9011 17.6241 15.9621 17.6241H4.03793C3.09885 17.6241 2.37192 17.1418 2.37192 16.7284V8.39811C2.37192 7.98473 3.09885 7.50245 4.03793 7.50245H7.19212V5.62343H4.03793C2.05369 5.62343 0.5 6.84166 0.5 8.39811V16.7316C0.5 18.288 2.05369 19.5062 4.03793 19.5062H15.9621C17.9463 19.5062 19.5 18.288 19.5 16.7316V8.39811C19.5 6.84166 17.9463 5.62343 15.9621 5.62343V5.6203Z" fill="white"/>
<path id="Vector_2" d="M7.37847 4.59215C7.60338 4.59215 7.82537 4.51277 7.9977 4.35128L9.09597 3.32208V11.6788C9.09597 12.1332 9.48738 12.5 9.97225 12.5C10.4571 12.5 10.8485 12.1332 10.8485 11.6788V3.27007L12.0052 4.35401C12.1776 4.51551 12.3995 4.59489 12.6245 4.59489C12.8494 4.59489 13.0714 4.51551 13.2437 4.35401C13.5854 4.03376 13.5854 3.51369 13.2437 3.19343L10.6265 0.740876C10.4542 0.57938 10.2322 0.5 10.0073 0.5H9.9927C9.76779 0.5 9.5458 0.57938 9.37346 0.740876L6.75631 3.19343C6.41456 3.51369 6.41456 4.03376 6.75631 4.35401C6.92865 4.51277 7.15064 4.59489 7.37555 4.59489L7.37847 4.59215Z" fill="white"/>
</g>
<defs>
<clipPath id="clip0_280_6">
<rect width="19" height="19" fill="white" transform="translate(0.5 0.5)"/>
</clipPath>
</defs>
</svg>
