<svg width="19" height="20" viewBox="0 0 19 20" fill="none" xmlns="http://www.w3.org/2000/svg">
<g id="Capa_1" clip-path="url(#clip0_280_653)">
<path id="Vector" d="M15.4621 5.62036H12.3079V7.49938H15.4621C16.4011 7.49938 17.1281 7.97853 17.1281 8.39504V16.7285C17.1281 17.1419 16.4011 17.6242 15.4621 17.6242H3.53793C2.59885 17.6242 1.87192 17.1419 1.87192 16.7285V8.39818C1.87192 7.98479 2.59885 7.50251 3.53793 7.50251H6.69212V5.62349H3.53793C1.55369 5.62349 0 6.84172 0 8.39818V16.7316C0 18.2881 1.55369 19.5063 3.53793 19.5063H15.4621C17.4463 19.5063 19 18.2881 19 16.7316V8.39818C19 6.84172 17.4463 5.62349 15.4621 5.62349V5.62036Z" fill="white"/>
<path id="Vector_2" d="M12.3329 9.54747C12.0927 9.54747 11.8556 9.63829 11.6715 9.82306L10.4984 11.0006V1.43951C10.4984 0.919647 10.0804 0.5 9.56245 0.5C9.04456 0.5 8.62649 0.919647 8.62649 1.43951V11.0601L7.39103 9.81993C7.20695 9.63516 6.96984 9.54434 6.72961 9.54434C6.48938 9.54434 6.25227 9.63516 6.0682 9.81993C5.70318 10.1863 5.70318 10.7814 6.0682 11.1478L8.8636 13.9538C9.04768 14.1385 9.28479 14.2294 9.52502 14.2294H9.54062C9.78085 14.2294 10.018 14.1385 10.202 13.9538L12.9974 11.1478C13.3625 10.7814 13.3625 10.1863 12.9974 9.81993C12.8134 9.63829 12.5762 9.54434 12.336 9.54434L12.3329 9.54747Z" fill="white"/>
</g>
<defs>
<clipPath id="clip0_280_653">
<rect width="19" height="19" fill="white" transform="translate(0 0.5)"/>
</clipPath>
</defs>
</svg>
