<?xml version="1.0" encoding="UTF-8"?>
<svg id="_圖層_1" data-name="圖層 1" xmlns="http://www.w3.org/2000/svg" viewBox="0 0 23.35 30.05">
  <defs>
    <style>
      .cls-1 {
        fill: #005e53;
      }
    </style>
  </defs>
  <g id="_圖層_1-2" data-name=" 圖層 1">
    <g>
      <path class="cls-1" d="M16.77,27.05H6.97c.9,1.8,2.8,3,4.9,3s4-1.2,4.9-3Z"/>
      <path class="cls-1" d="M2.67,18.75c-.4,1.6-1.2,3.1-2.2,4.5-.1.4-.2.8,0,1.1.2.4.5.6.9.6h21c.2,0,.4-.1.6-.2.4-.3.5-1,.2-1.4-1.8-2.4-2.8-5.4-2.8-8.4v-2.5c0-3.4-2-6.5-5.2-7.8.2-.4.2-.8.2-1.2,0-1.4-.9-2.7-2.2-3.2-1.8-.7-3.9.1-4.6,1.9,1.4,1.5,2.3,3.4,2.6,5.4.8,5.5-2.9,10.6-8.4,11.4v-.2h-.1ZM11.87,4.05h-1.4c-.1-.2-.1.2-.1-.6s.7-1.5,1.5-1.5,1.5.7,1.5,1.5-.1.4-.1.6h-1.4Z"/>
      <path class="cls-1" d="M23.17,23.35c-1.8-2.4-2.8-5.4-2.8-8.4v-2.5c0-3.4-2-6.5-5.2-7.8.2-.4.2-.8.2-1.2,0-1.4-.9-2.7-2.2-3.2-.5-.2-1-.3-1.5-.2-.5,0-1,0-1.5.2-1.3.5-2.1,1.8-2.2,3.2,0,.4,0,.8.2,1.2-3.2,1.3-5.2,4.4-5.2,7.8v2.5c0,3-1,6-2.8,8.4-.3.4-.2,1.1.2,1.4.2,0,.4.2.6.2h21.4c.2,0,.4-.1.6-.2.4-.3.5-1,.2-1.4ZM11.47,4.05h-1s0,.1,0-.5.6-1.4,1.3-1.5c.7.1,1.3.8,1.3,1.5s0,.5,0,.5h-1c-.4,0-.1,0-.2,0h-.4Z"/>
    </g>
  </g>
</svg>