<svg width="21" height="21" viewBox="0 0 21 21" fill="none" xmlns="http://www.w3.org/2000/svg">
<g clip-path="url(#clip0_653_17238)">
<path d="M20.3549 8.25738L18.3448 7.9724C18.2104 7.54855 18.04 7.137 17.8347 6.74232L19.0573 5.11487C19.2832 4.81518 19.2511 4.39427 18.9824 4.1323L16.8674 2.01732C16.6055 1.74866 16.1846 1.71655 15.8849 1.94239L14.2574 3.16498C13.863 2.95975 13.4515 2.7893 13.0273 2.65497L12.7424 0.644878C12.6902 0.275076 12.3736 0 12.0001 0H9.00019C8.62664 0 8.31009 0.275076 8.25765 0.644878L7.97267 2.65497C7.54882 2.7893 7.13727 2.95975 6.74258 3.16498L5.11514 1.94239C4.81544 1.71655 4.39453 1.74866 4.13257 2.01732L2.01758 4.1323C1.74893 4.39427 1.71682 4.81518 1.94266 5.11487L3.16525 6.74232C2.96002 7.13674 2.78956 7.54828 2.65524 7.9724L0.645145 8.25738C0.275076 8.30982 0 8.62638 0 8.99992V11.9998C0 12.3734 0.275076 12.6899 0.644878 12.7424L2.65497 13.0273C2.7893 13.4512 2.95975 13.8627 3.16498 14.2574L1.94239 15.8849C1.71655 16.1846 1.74866 16.6055 2.01732 16.8674L4.1323 18.9824C4.39427 19.2511 4.81518 19.2832 5.11487 19.0573L6.74232 17.8347C7.13674 18.04 7.54828 18.2104 7.9724 18.3448L8.25738 20.3549C8.30956 20.7247 8.62638 20.9997 8.99992 20.9997H11.9998C12.3734 20.9997 12.6899 20.7247 12.7424 20.3549L13.0273 18.3448C13.4512 18.2104 13.8627 18.04 14.2574 17.8347L15.8849 19.0573C16.1846 19.2832 16.6055 19.2511 16.8674 18.9824L18.9824 16.8674C19.2511 16.6055 19.2832 16.1846 19.0573 15.8849L17.8347 14.2574C18.04 13.863 18.2104 13.4515 18.3448 13.0273L20.3549 12.7424C20.7247 12.6902 20.9997 12.3734 20.9997 11.9998V8.99992C20.9997 8.62638 20.7247 8.30982 20.3549 8.25738ZM19.4999 11.3474L17.6549 11.6099C17.352 11.653 17.1059 11.8757 17.0325 12.1724C16.8757 12.7929 16.6279 13.3867 16.2975 13.935C16.146 14.1969 16.1637 14.5234 16.3424 14.7674L17.4674 16.26L16.2598 17.4676L14.7672 16.3427C14.5231 16.164 14.1964 16.1463 13.9347 16.2977C13.3867 16.6282 12.7927 16.876 12.1721 17.0328C11.8754 17.1061 11.6528 17.3526 11.6097 17.6552L11.3472 19.5002H9.65229L9.38979 17.6552C9.34671 17.3523 9.12408 17.1061 8.82733 17.0328C8.20681 16.876 7.61304 16.6282 7.06476 16.2977C6.80279 16.1463 6.47634 16.164 6.2323 16.3427L4.73972 17.4676L3.53211 16.26L4.65703 14.7674C4.83578 14.5234 4.85344 14.1967 4.70199 13.935C4.37152 13.387 4.12374 12.7929 3.96693 12.1724C3.89362 11.8757 3.64717 11.653 3.34453 11.6099L1.49954 11.3474V9.65256L3.34453 9.39006C3.64744 9.34698 3.89362 9.12435 3.96693 8.8276C4.12374 8.20707 4.37152 7.6133 4.70199 7.06502C4.85344 6.80306 4.83578 6.47661 4.65703 6.23257L3.53211 4.73998L4.73972 3.53238L6.2323 4.6573C6.47634 4.83605 6.80306 4.85371 7.06476 4.70226C7.61277 4.37179 8.20681 4.12401 8.82733 3.9672C9.12408 3.89388 9.34671 3.64744 9.38979 3.3448L9.65229 1.49981H11.3472L11.6097 3.3448C11.6528 3.64771 11.8754 3.89388 12.1721 3.9672C12.7927 4.12401 13.3864 4.37179 13.9347 4.70226C14.1967 4.85371 14.5231 4.83605 14.7672 4.6573L16.2598 3.53238L17.4674 4.73998L16.3424 6.23257C16.1637 6.47661 16.146 6.80333 16.2975 7.06502C16.6279 7.61304 16.8757 8.20707 17.0325 8.8276C17.1059 9.12435 17.3523 9.34698 17.6549 9.39006L19.4999 9.65256V11.3474Z" fill="white"/>
<path d="M10.5 6.00006C8.01464 6.00006 6 8.0147 6 10.5C6 12.9853 8.01464 15 10.5 15C12.9853 15 14.9999 12.9853 14.9999 10.5C14.9975 8.01577 12.9842 6.00247 10.5 6.00006ZM10.5 13.4999C8.84308 13.4999 7.50008 12.1566 7.50008 10.5C7.50008 8.84341 8.84335 7.50014 10.5 7.50014C12.1566 7.50014 13.4998 8.84341 13.4998 10.5C13.4998 12.1566 12.1566 13.4999 10.5 13.4999Z" fill="white"/>
</g>
<defs>
<clipPath id="clip0_653_17238">
<rect width="21" height="21" fill="white"/>
</clipPath>
</defs>
</svg>
