<svg width="16" height="21" viewBox="0 0 16 21" fill="none" xmlns="http://www.w3.org/2000/svg">
<g clip-path="url(#clip0_653_17191)">
<path d="M15.3852 2.31394C14.9887 1.90929 14.465 1.68617 13.9104 1.68617H12.0364C11.7959 0.688284 10.9338 0 9.90664 0H6.09366C5.09047 0 4.21127 0.676059 3.96571 1.62169H2.09021C0.957065 1.62169 0 2.62813 0 3.81949V18.8673C0 19.4333 0.218304 19.9679 0.615085 20.3725C1.01157 20.7772 1.53532 21.0003 2.08991 21.0003H13.9104C14.4686 21.0003 14.9926 20.7741 15.3861 20.3637C15.782 19.9505 16.0003 19.396 16.0003 18.8025V3.81949C16.0003 3.25346 15.782 2.71891 15.3852 2.31425V2.31394ZM9.90664 3.30786H6.09366C5.52888 3.30786 5.06951 2.83902 5.06951 2.2626C5.06951 1.68617 5.52888 1.21733 6.09366 1.21733H9.90664C10.4714 1.21733 10.9308 1.68617 10.9308 2.2626C10.9308 2.83902 10.4714 3.30786 9.90664 3.30786ZM1.19274 3.81949C1.19274 3.28799 1.60359 2.83902 2.08991 2.83902H3.96541C4.21097 3.78434 5.09017 4.4607 6.09336 4.4607H9.90634C10.9098 4.4607 11.7887 3.78465 12.0343 2.83902H13.9098C14.4129 2.83902 14.807 3.24123 14.807 3.75469V18.8025C14.807 19.334 14.3961 19.783 13.9098 19.783H2.08991C1.57005 19.783 1.19274 19.3707 1.19274 18.8025V3.81949Z" fill="white"/>
<path d="M5.3309 8.92532H10.669C10.9778 8.92532 11.2973 8.6854 11.2973 8.2841C11.2973 7.8828 11.0508 7.64288 10.669 7.64288H5.3309C5.02216 7.64288 4.70264 7.8828 4.70264 8.2841C4.70264 8.6854 5.02216 8.92532 5.3309 8.92532Z" fill="white"/>
<path d="M5.3309 11.5846H10.669C10.9778 11.5846 11.2973 11.3447 11.2973 10.9434C11.2973 10.5421 11.0508 10.3022 10.669 10.3022H5.3309C5.02216 10.3022 4.70264 10.5421 4.70264 10.9434C4.70264 11.3447 5.02216 11.5846 5.3309 11.5846Z" fill="white"/>
<path d="M5.3309 14.5846H10.669C10.9778 14.5846 11.2973 14.3447 11.2973 13.9434C11.2973 13.5421 11.0508 13.3022 10.669 13.3022H5.3309C5.02216 13.3022 4.70264 13.5421 4.70264 13.9434C4.70264 14.3447 5.02216 14.5846 5.3309 14.5846Z" fill="white"/>
</g>
<defs>
<clipPath id="clip0_653_17191">
<rect width="16" height="21" fill="white"/>
</clipPath>
</defs>
</svg>
