<svg width="37" height="37" viewBox="0 0 37 37" fill="none" xmlns="http://www.w3.org/2000/svg">
<g clip-path="url(#clip0_1040_7533)">
<path d="M35.8633 14.5487L32.3217 14.0466C32.0851 13.2998 31.7847 12.5747 31.4231 11.8793L33.5772 9.01191C33.9751 8.48388 33.9186 7.74228 33.4452 7.28072L29.7188 3.55432C29.2573 3.08098 28.5156 3.0244 27.9876 3.42231L25.1202 5.5764C24.4253 5.21479 23.7002 4.91448 22.9529 4.6778L22.4508 1.13621C22.3589 0.484659 21.8011 0 21.143 0H15.8575C15.1993 0 14.6416 0.484659 14.5492 1.13621L14.0471 4.6778C13.3003 4.91448 12.5752 5.21479 11.8798 5.5764L9.01239 3.42231C8.48435 3.0244 7.74275 3.08098 7.28119 3.55432L3.55479 7.28072C3.08145 7.74228 3.02487 8.48388 3.42278 9.01191L5.57687 11.8793C5.21527 12.5742 4.91495 13.2994 4.67828 14.0466L1.13668 14.5487C0.484659 14.6411 0 15.1989 0 15.857V21.1425C0 21.8007 0.484659 22.3584 1.13621 22.4508L4.6778 22.9529C4.91448 23.6997 5.21479 24.4248 5.5764 25.1202L3.42231 27.9876C3.0244 28.5156 3.08098 29.2573 3.55432 29.7188L7.28072 33.4452C7.74228 33.9186 8.48388 33.9751 9.01191 33.5772L11.8793 31.4231C12.5742 31.7847 13.2994 32.0851 14.0466 32.3217L14.5487 35.8633C14.6406 36.5149 15.1989 36.9995 15.857 36.9995H21.1425C21.8007 36.9995 22.3584 36.5149 22.4508 35.8633L22.9529 32.3217C23.6997 32.0851 24.4248 31.7847 25.1202 31.4231L27.9876 33.5772C28.5156 33.9751 29.2573 33.9186 29.7188 33.4452L33.4452 29.7188C33.9186 29.2573 33.9751 28.5156 33.5772 27.9876L31.4231 25.1202C31.7847 24.4253 32.0851 23.7002 32.3217 22.9529L35.8633 22.4508C36.5149 22.3589 36.9995 21.8007 36.9995 21.1425V15.857C36.9995 15.1989 36.5149 14.6411 35.8633 14.5487ZM34.357 19.9931L31.1063 20.4556C30.5726 20.5315 30.1389 20.9238 30.0097 21.4466C29.7334 22.5399 29.2969 23.5861 28.7146 24.5521C28.4478 25.0137 28.4789 25.5888 28.7938 26.0188L30.7758 28.6486L28.6481 30.7763L26.0183 28.7943C25.5884 28.4793 25.0127 28.4482 24.5516 28.7151C23.5861 29.2973 22.5395 29.7339 21.4461 30.0102C20.9233 30.1393 20.531 30.5736 20.4551 31.1068L19.9926 34.3575H17.0064L16.5439 31.1068C16.468 30.5731 16.0758 30.1393 15.5529 30.0102C14.4596 29.7339 13.4134 29.2973 12.4474 28.7151C11.9859 28.4482 11.4107 28.4793 10.9807 28.7943L8.35093 30.7763L6.22324 28.6486L8.20525 26.0188C8.52018 25.5888 8.5513 25.0132 8.28446 24.5521C7.7022 23.5866 7.26564 22.5399 6.98936 21.4466C6.86018 20.9238 6.42597 20.5315 5.89275 20.4556L2.64205 19.9931V17.0069L5.89275 16.5444C6.42644 16.4685 6.86018 16.0762 6.98936 15.5534C7.26564 14.4601 7.7022 13.4139 8.28446 12.4479C8.5513 11.9863 8.52018 11.4112 8.20525 10.9812L6.22324 8.3514L8.35093 6.22371L10.9807 8.20572C11.4107 8.52066 11.9863 8.55177 12.4474 8.28493C13.413 7.70268 14.4596 7.26611 15.5529 6.98983C16.0758 6.86065 16.468 6.42644 16.5439 5.89322L17.0064 2.64252H19.9926L20.4551 5.89322C20.531 6.42691 20.9233 6.86065 21.4461 6.98983C22.5395 7.26611 23.5856 7.70268 24.5516 8.28493C25.0132 8.55177 25.5884 8.52066 26.0183 8.20572L28.6481 6.22371L30.7758 8.3514L28.7938 10.9812C28.4789 11.4112 28.4478 11.9868 28.7146 12.4479C29.2969 13.4134 29.7334 14.4601 30.0097 15.5534C30.1389 16.0762 30.5731 16.4685 31.1063 16.5444L34.357 17.0069V19.9931Z" fill="#037F72"/>
<path d="M18.4988 10.5715C14.1199 10.5715 10.5703 14.1211 10.5703 18.5C10.5703 22.8789 14.1199 26.4285 18.4988 26.4285C22.8777 26.4285 26.4273 22.8789 26.4273 18.5C26.4231 14.123 22.8758 10.5757 18.4988 10.5715ZM18.4988 23.7855C15.5796 23.7855 13.2133 21.4188 13.2133 18.5C13.2133 15.5812 15.58 13.2145 18.4988 13.2145C21.4176 13.2145 23.7843 15.5812 23.7843 18.5C23.7843 21.4188 21.4176 23.7855 18.4988 23.7855Z" fill="#037F72"/>
</g>
<defs>
<clipPath id="clip0_1040_7533">
<rect width="37" height="37" fill="white"/>
</clipPath>
</defs>
</svg>
