<svg width="21" height="21" viewBox="0 0 21 21" fill="none" xmlns="http://www.w3.org/2000/svg">
<g clip-path="url(#clip0_653_17222)">
<path d="M13.9006 18.2356C14.4692 17.4825 14.7813 16.5495 14.7813 15.5967C14.7813 13.2027 12.865 11.255 10.5097 11.255C8.15448 11.255 6.23853 13.2027 6.23853 15.5967C6.23853 17.9906 8.15478 19.9381 10.5097 19.9381C11.2784 19.9381 12.0289 19.729 12.6864 19.3326L14.089 20.7589C14.2471 20.9196 14.4546 21 14.6624 21C14.8701 21 15.0776 20.9196 15.2357 20.7589C15.552 20.4375 15.552 19.9142 15.2357 19.5927L13.9006 18.2356ZM13.159 15.5967C13.159 17.0816 11.9703 18.2897 10.5094 18.2897C9.04855 18.2897 7.85992 17.0816 7.85992 15.5967C7.85992 14.1118 9.04855 12.9036 10.5094 12.9036C11.9703 12.9036 13.159 14.1118 13.159 15.5967Z" fill="white"/>
<path d="M20.3571 0.653776C19.943 0.232024 19.392 0 18.8049 0H2.19505C1.60832 0 1.05696 0.232326 0.643209 0.653776C0.228571 1.07462 0 1.63474 0 2.23112V11.3758C0 11.9722 0.228571 12.5326 0.643209 12.9532C1.05725 13.3749 1.60862 13.6069 2.19535 13.6069H4.91383C5.36087 13.6069 5.72468 13.2372 5.72468 12.7828C5.72468 12.3284 5.36087 11.9586 4.91383 11.9586H2.19535C2.04406 11.9586 1.89634 11.8964 1.78993 11.7876C1.68322 11.6798 1.62229 11.5299 1.62229 11.3758V2.23112C1.62229 2.07734 1.68352 1.92719 1.79052 1.81903C1.89663 1.71057 2.04406 1.64864 2.19565 1.64864H18.8055C18.9568 1.64864 19.1046 1.71088 19.211 1.81964C19.3177 1.92749 19.3786 2.07734 19.3786 2.23142V11.3761C19.3786 11.5299 19.3174 11.6801 19.2104 11.7882C19.1043 11.8967 18.9568 11.9586 18.8052 11.9586H16.0252C15.5782 11.9586 15.2144 12.3284 15.2144 12.7828C15.2144 13.2372 15.5782 13.6069 16.0252 13.6069H18.8052C19.392 13.6069 19.9433 13.3746 20.3571 12.9532C20.772 12.5323 21.0003 11.9719 21.0003 11.3755V2.23112C21.0003 1.63474 20.7717 1.07432 20.3571 0.653776Z" fill="white"/>
<path d="M9.92687 9.26557V3.63807C9.92687 3.18369 9.56306 2.8139 9.11602 2.8139C8.66899 2.8139 8.30518 3.18369 8.30518 3.63807V9.26557C8.30518 9.71995 8.66899 10.0897 9.11602 10.0897C9.56306 10.0897 9.92687 9.71995 9.92687 9.26557Z" fill="white"/>
<path d="M18.2318 7.15528V5.74833C18.2318 5.29395 17.868 4.92416 17.421 4.92416C16.9739 4.92416 16.6101 5.29395 16.6101 5.74833V7.15528C16.6101 7.60966 16.9739 7.97945 17.421 7.97945C17.868 7.97945 18.2318 7.60966 18.2318 7.15528Z" fill="white"/>
<path d="M2.76831 5.74833V7.15528C2.76831 7.60966 3.13212 7.97945 3.57916 7.97945C4.02619 7.97945 4.39001 7.60966 4.39001 7.15528V5.74833C4.39001 5.29395 4.02619 4.92416 3.57916 4.92416C3.13212 4.92416 2.76831 5.29395 2.76831 5.74833Z" fill="white"/>
<path d="M12.6949 7.15528V5.74833C12.6949 5.29395 12.3311 4.92416 11.8841 4.92416C11.4371 4.92416 11.0732 5.29395 11.0732 5.74833V7.15528C11.0732 7.60966 11.4371 7.97945 11.8841 7.97945C12.3311 7.97945 12.6949 7.60966 12.6949 7.15528Z" fill="white"/>
<path d="M15.4635 8.56223V4.34138C15.4635 3.887 15.0997 3.51721 14.6526 3.51721C14.2056 3.51721 13.8418 3.887 13.8418 4.34138V8.56223C13.8418 9.01661 14.2056 9.3864 14.6526 9.3864C15.0997 9.3864 15.4635 9.01661 15.4635 8.56223Z" fill="white"/>
<path d="M7.15856 8.56223V4.34138C7.15856 3.887 6.79475 3.51721 6.34771 3.51721C5.90068 3.51721 5.53687 3.887 5.53687 4.34138V8.56223C5.53687 9.01661 5.90068 9.3864 6.34771 9.3864C6.79475 9.3864 7.15856 9.01661 7.15856 8.56223Z" fill="white"/>
</g>
<defs>
<clipPath id="clip0_653_17222">
<rect width="21" height="21" fill="white"/>
</clipPath>
</defs>
</svg>
