<svg width="21" height="21" viewBox="0 0 21 21" fill="none" xmlns="http://www.w3.org/2000/svg">
<g clip-path="url(#clip0_653_17153)">
<path d="M16.0781 21H4.92185C2.20807 21 0 18.7916 0 16.0774V9.17475C0 8.42129 0.176571 7.66629 0.510642 6.99097C0.844713 6.31566 1.33813 5.71726 1.93706 5.26069L7.51505 1.00543C9.27246 -0.335043 11.7272 -0.335043 13.4846 1.00543L15.2574 2.35668V1.30971C15.2574 0.856527 15.6247 0.48918 16.0778 0.48918C16.531 0.48918 16.8983 0.856527 16.8983 1.30971V4.01343C16.8983 4.3254 16.7214 4.6103 16.4421 4.74874C16.1627 4.88719 15.829 4.85519 15.5807 4.66598L12.4901 2.31053C11.3181 1.41647 9.68159 1.41647 8.50988 2.31053L2.93189 6.56517C2.12316 7.18203 1.64051 8.15732 1.64051 9.17444V16.0771C1.64051 17.8868 3.11246 19.3589 4.92185 19.3589H16.0781C17.8875 19.3589 19.3595 17.8868 19.3595 16.0771V9.17444C19.3595 8.1447 18.8821 7.16603 18.0829 6.55625C17.7227 6.28151 17.6535 5.76648 17.9282 5.40621C18.2029 5.04594 18.7178 4.97672 19.078 5.25146C19.6763 5.70772 20.1676 6.30951 20.4995 6.99128C20.8274 7.66506 21.0006 8.42006 21.0006 9.17444V16.0771C21.0006 18.7913 18.7926 20.9997 16.0788 20.9997L16.0781 21Z" fill="white"/>
<path d="M8.85927 9.47287C8.29295 9.47287 7.83398 9.9319 7.83398 10.4983C7.83398 11.0647 8.29295 11.5237 8.85927 11.5237C9.42559 11.5237 9.88455 11.0647 9.88455 10.4983C9.88455 9.9319 9.42559 9.47287 8.85927 9.47287Z" fill="white"/>
<path d="M12.1408 9.47287C11.5744 9.47287 11.1155 9.9319 11.1155 10.4983C11.1155 11.0647 11.5744 11.5237 12.1408 11.5237C12.7071 11.5237 13.166 11.0647 13.166 10.4983C13.166 9.9319 12.7071 9.47287 12.1408 9.47287Z" fill="white"/>
<path d="M8.85927 12.7547C8.29295 12.7547 7.83398 13.2137 7.83398 13.7801C7.83398 14.3465 8.29295 14.8056 8.85927 14.8056C9.42559 14.8056 9.88455 14.3465 9.88455 13.7801C9.88455 13.2137 9.42559 12.7547 8.85927 12.7547Z" fill="white"/>
<path d="M12.1408 12.7547C11.5744 12.7547 11.1155 13.2137 11.1155 13.7801C11.1155 14.3465 11.5744 14.8056 12.1408 14.8056C12.7071 14.8056 13.166 14.3465 13.166 13.7801C13.166 13.2137 12.7071 12.7547 12.1408 12.7547Z" fill="white"/>
</g>
<defs>
<clipPath id="clip0_653_17153">
<rect width="21" height="21" fill="white"/>
</clipPath>
</defs>
</svg>
