<svg width="29" height="37" viewBox="0 0 29 37" fill="none" xmlns="http://www.w3.org/2000/svg">
<g clip-path="url(#clip0_625_3116)">
<path d="M27.8857 4.07695C27.1671 3.36398 26.2178 2.97088 25.2126 2.97088H21.8159C21.3801 1.21269 19.8175 0 17.9558 0H11.0448C9.22648 0 7.63292 1.19115 7.18785 2.85726H3.78851C1.73468 2.85726 0 4.63052 0 6.72957V33.2424C0 34.2397 0.395677 35.1815 1.11484 35.8945C1.83346 36.6074 2.78276 37.0005 3.78797 37.0005H25.2126C26.2243 37.0005 27.1741 36.6021 27.8873 35.8789C28.6049 35.1508 29.0005 34.174 29.0005 33.1282V6.72957C29.0005 5.73228 28.6049 4.79045 27.8857 4.07749V4.07695ZM17.9558 5.82813H11.0448C10.0211 5.82813 9.18849 5.00208 9.18849 3.98648C9.18849 2.97088 10.0211 2.14483 11.0448 2.14483H17.9558C18.9795 2.14483 19.8121 2.97088 19.8121 3.98648C19.8121 5.00208 18.9795 5.82813 17.9558 5.82813ZM2.16184 6.72957C2.16184 5.79313 2.90651 5.00208 3.78797 5.00208H7.18731C7.63238 6.66765 9.22594 7.85934 11.0442 7.85934H17.9552C19.7741 7.85934 21.3671 6.66818 21.8121 5.00208H25.2115C26.1233 5.00208 26.8376 5.71074 26.8376 6.61541V33.1282C26.8376 34.0647 26.0929 34.8557 25.2115 34.8557H3.78797C2.84572 34.8557 2.16184 34.1293 2.16184 33.1282V6.72957Z" fill="#037F72"/>
<path d="M9.66216 12.2018H19.3375C19.8971 12.2018 20.4762 11.779 20.4762 11.072C20.4762 10.365 20.0295 9.94224 19.3375 9.94224H9.66216C9.10257 9.94224 8.52344 10.365 8.52344 11.072C8.52344 11.779 9.10257 12.2018 9.66216 12.2018Z" fill="#037F72"/>
<path d="M9.66216 17.1645H19.3375C19.8971 17.1645 20.4762 16.7418 20.4762 16.0348C20.4762 15.3277 20.0295 14.905 19.3375 14.905H9.66216C9.10257 14.905 8.52344 15.3277 8.52344 16.0348C8.52344 16.7418 9.10257 17.1645 9.66216 17.1645Z" fill="#037F72"/>
<path d="M9.66216 22.1268H19.3375C19.8971 22.1268 20.4762 21.704 20.4762 20.997C20.4762 20.29 20.0295 19.8672 19.3375 19.8672H9.66216C9.10257 19.8672 8.52344 20.29 8.52344 20.997C8.52344 21.704 9.10257 22.1268 9.66216 22.1268Z" fill="#037F72"/>
</g>
<defs>
<clipPath id="clip0_625_3116">
<rect width="29" height="37" fill="white"/>
</clipPath>
</defs>
</svg>
