<svg width="43" height="37" viewBox="0 0 43 37" fill="none" xmlns="http://www.w3.org/2000/svg">
<g clip-path="url(#clip0_843_6963)">
<path d="M25.6237 33.185C25.3465 33.0898 25.0486 33.1085 24.785 33.237C16.9811 37.0286 7.54268 33.7739 3.7452 25.9805C1.15209 20.6583 1.76364 14.4371 5.24336 9.7527L5.07927 10.6023C4.95894 11.2021 5.35014 11.7879 5.95076 11.9081C6.55138 12.0283 7.13793 11.6376 7.25826 11.0377C7.54893 9.58517 7.7698 8.47443 7.9219 7.70705C8.05682 7.02812 8.14902 6.56457 8.17142 6.46052C8.17611 6.44596 8.17976 6.43087 8.18236 6.41526C8.23237 6.12704 8.16673 5.83674 7.99796 5.59742C7.82918 5.35862 7.57706 5.19943 7.28847 5.14948C7.22179 5.13804 7.15355 5.13231 7.08271 5.13387L2.40176 5.24365C1.79906 5.24625 1.30993 5.73633 1.30993 6.33878C1.30993 6.94124 1.80167 7.43392 2.40645 7.43392C2.40958 7.43392 2.41218 7.43392 2.41531 7.43392L4.3552 7.38814C1.42922 10.7667 -0.109569 15.052 0.00607399 19.5481C0.12901 24.3308 2.10953 28.7789 5.58299 32.0737C8.23914 34.5933 11.5563 36.2227 15.1757 36.7851C16.1008 36.9287 17.0285 37.0005 17.9516 37.0005C20.6406 37.0005 23.2941 36.3949 25.7492 35.2077C26.0128 35.0792 26.2102 34.8555 26.3055 34.5787C26.4009 34.3014 26.3821 34.0044 26.2534 33.7411C26.1248 33.4779 25.9008 33.2807 25.6237 33.1855V33.185Z" fill="#037F72"/>
<path d="M19.0571 14.7045H23.7912C24.5871 14.7045 25.2352 14.0578 25.2352 13.2623C25.2352 12.4669 24.5877 11.8202 23.7912 11.8202H21.6846V10.8983C21.6846 10.1028 21.0366 9.45615 20.2406 9.45615C19.4447 9.45615 18.7967 10.1028 18.7967 10.8983V11.829C16.8161 11.9633 15.2461 13.6151 15.2461 15.6264C15.2461 17.6377 16.9557 19.4326 19.0571 19.4326H21.4241C21.9331 19.4326 22.3472 19.8462 22.3472 20.3544C22.3472 20.8627 21.9331 21.2763 21.4241 21.2763H16.6901C15.8941 21.2763 15.2461 21.923 15.2461 22.7185C15.2461 23.514 15.8941 24.1606 16.6901 24.1606H18.7967V25.0825C18.7967 25.878 19.4447 26.5247 20.2406 26.5247C21.0366 26.5247 21.6846 25.878 21.6846 25.0825V24.1518C23.6651 24.0176 25.2352 22.3657 25.2352 20.3544C25.2352 18.3431 23.5255 16.5483 21.4241 16.5483H19.0571C18.5482 16.5483 18.134 16.1347 18.134 15.6264C18.134 15.1181 18.5482 14.7045 19.0571 14.7045Z" fill="#037F72"/>
<path d="M42.995 19.0288C42.9913 18.559 42.9871 18.0263 42.9871 17.3968C42.9814 16.7699 42.7887 16.1482 42.4423 15.6264C42.7892 15.1046 42.9814 14.4829 42.9871 13.8533C42.9871 13.2613 42.9898 12.7525 42.9924 12.3035C43.0059 9.889 43.009 9.33597 42.4449 8.53374C43.0168 7.70809 43.0116 7.07754 42.9944 4.84513C42.9908 4.37534 42.9866 3.8426 42.9866 3.21465C42.9799 1.44943 41.5359 0.00780237 39.7684 0.000518799H26.7487C24.9734 0.000518799 23.5294 1.44267 23.5294 3.21569V5.15624C20.22 4.29782 16.7653 4.73328 13.7633 6.39445C10.6607 8.11129 8.41348 10.9321 7.4352 14.3372C6.45692 17.7422 6.8648 21.3242 8.58434 24.4223C10.3039 27.5204 13.1278 29.7653 16.5372 30.7424C19.1964 31.5045 22.0849 31.4088 24.6884 30.476C25.1052 30.8573 25.4313 31.0915 26.4273 31.1955C27.0977 31.2657 28.1004 31.2855 29.7246 31.2855C30.5576 31.2855 31.5536 31.2803 32.7517 31.2741C34.5848 31.2647 36.8664 31.2527 39.7669 31.2527C41.5421 31.2527 42.9861 29.8106 42.9861 28.0376C42.9861 27.4455 42.9887 26.9367 42.9913 26.4877C43.0049 24.0732 43.008 23.5202 42.4438 22.718C43.0158 21.8923 43.0106 21.2618 42.9934 19.0294L42.995 19.0288ZM30.6316 17.9899C30.6316 23.7122 25.9704 28.3679 20.2403 28.3679C14.5103 28.3679 9.84912 23.7122 9.84912 17.9899C9.84912 12.2676 14.5103 7.61185 20.2403 7.61185C25.9704 7.61185 30.6316 12.2671 30.6316 17.9899ZM33.0981 21.2758C33.4825 19.9034 33.6305 18.4909 33.5393 17.068H39.7627C39.9471 17.0716 40.0945 17.2178 40.0992 17.4015V20.9397C40.0956 21.1244 39.9481 21.2722 39.7679 21.2758H33.0981ZM32.9455 14.1842C32.4897 12.6562 31.7739 11.2437 30.8134 9.9764H39.7491C39.9382 9.97224 40.095 10.1231 40.0992 10.3073V13.8487C40.0956 14.0334 39.9481 14.1811 39.7679 14.1847H32.9455V14.1842ZM31.9844 24.1601H39.7632C39.9481 24.1638 40.0961 24.311 40.0997 24.491V28.0344C40.095 28.2181 39.9476 28.3643 39.7684 28.3679H28.4797C29.92 27.2239 31.1207 25.7838 31.9849 24.1601H31.9844ZM32.8449 7.115C29.4812 7.13477 27.578 6.99604 27.1352 6.6988C26.9601 6.58122 26.7476 6.43815 26.4184 6.26126V3.21829C26.4231 3.03464 26.5705 2.88793 26.7497 2.88429H39.7684C39.933 2.88429 39.9669 2.91863 39.9799 2.93163C40.1362 3.08927 40.1268 3.8322 40.1122 5.06312C40.1065 5.548 40.0997 6.09738 40.0997 6.75655C40.0961 6.94124 39.9481 7.08899 39.7684 7.09263C36.7685 7.09263 34.5009 7.10564 32.8449 7.11552V7.115Z" fill="#037F72"/>
</g>
<defs>
<clipPath id="clip0_843_6963">
<rect width="43" height="37" fill="white"/>
</clipPath>
</defs>
</svg>
