<svg width="37" height="37" viewBox="0 0 37 37" fill="none" xmlns="http://www.w3.org/2000/svg">
<g clip-path="url(#clip0_1037_6566)">
<path d="M24.492 32.1295C25.4938 30.8025 26.0437 29.1587 26.0437 27.4799C26.0437 23.2619 22.6674 19.8302 18.5177 19.8302C14.3679 19.8302 10.9922 23.2619 10.9922 27.4799C10.9922 31.6978 14.3684 35.129 18.5177 35.129C19.8719 35.129 21.1943 34.7606 22.3527 34.0623L24.824 36.5752C25.1026 36.8584 25.4681 37 25.8342 37C26.2002 37 26.5658 36.8584 26.8444 36.5752C27.4016 36.0089 27.4016 35.0869 26.8444 34.5206L24.492 32.1295ZM23.1853 27.4799C23.1853 30.0961 21.0911 32.2248 18.5171 32.2248C15.9432 32.2248 13.8489 30.0961 13.8489 27.4799C13.8489 24.8636 15.9432 22.735 18.5171 22.735C21.0911 22.735 23.1853 24.8636 23.1853 27.4799Z" fill="#037F72"/>
<path d="M35.8672 1.15189C35.1377 0.408804 34.1668 0 33.1325 0H3.86748C2.83371 0 1.86225 0.409337 1.13327 1.15189C0.40272 1.89338 0 2.88026 0 3.93102V20.0431C0 21.0939 0.40272 22.0813 1.13327 22.8223C1.86278 23.5653 2.83423 23.9741 3.868 23.9741H8.6577C9.44534 23.9741 10.0863 23.3226 10.0863 22.522C10.0863 21.7215 9.44534 21.0699 8.6577 21.0699H3.868C3.60144 21.0699 3.34117 20.9603 3.15368 20.7687C2.96568 20.5786 2.85832 20.3146 2.85832 20.0431V3.93102C2.85832 3.66008 2.9662 3.39553 3.15473 3.20496C3.34169 3.01387 3.60144 2.90475 3.86852 2.90475H33.1336C33.4001 2.90475 33.6604 3.0144 33.8479 3.20603C34.0359 3.39606 34.1432 3.66008 34.1432 3.93155V20.0437C34.1432 20.3146 34.0354 20.5792 33.8468 20.7697C33.6599 20.9608 33.4001 21.0699 33.133 21.0699H28.2349C27.4473 21.0699 26.8063 21.7215 26.8063 22.522C26.8063 23.3226 27.4473 23.9741 28.2349 23.9741H33.133C34.1668 23.9741 35.1383 23.5648 35.8672 22.8223C36.5983 22.0808 37.0005 21.0934 37.0005 20.0426V3.93102C37.0005 2.88026 36.5978 1.89285 35.8672 1.15189Z" fill="#037F72"/>
<path d="M17.4901 16.325V6.40993C17.4901 5.60936 16.8491 4.95782 16.0614 4.95782C15.2738 4.95782 14.6328 5.60936 14.6328 6.40993V16.325C14.6328 17.1256 15.2738 17.7771 16.0614 17.7771C16.8491 17.7771 17.4901 17.1256 17.4901 16.325Z" fill="#037F72"/>
<path d="M32.1229 12.6069V10.128C32.1229 9.32745 31.4819 8.67592 30.6943 8.67592C29.9066 8.67592 29.2656 9.32745 29.2656 10.128V12.6069C29.2656 13.4075 29.9066 14.059 30.6943 14.059C31.4819 14.059 32.1229 13.4075 32.1229 12.6069Z" fill="#037F72"/>
<path d="M4.87891 10.128V12.6069C4.87891 13.4075 5.51991 14.059 6.30754 14.059C7.09518 14.059 7.73618 13.4075 7.73618 12.6069V10.128C7.73618 9.32745 7.09518 8.67592 6.30754 8.67592C5.51991 8.67592 4.87891 9.32745 4.87891 10.128Z" fill="#037F72"/>
<path d="M22.369 12.6069V10.128C22.369 9.32745 21.728 8.67592 20.9404 8.67592C20.1527 8.67592 19.5117 9.32745 19.5117 10.128V12.6069C19.5117 13.4075 20.1527 14.059 20.9404 14.059C21.728 14.059 22.369 13.4075 22.369 12.6069Z" fill="#037F72"/>
<path d="M27.244 15.0858V7.64911C27.244 6.84854 26.603 6.19701 25.8154 6.19701C25.0277 6.19701 24.3867 6.84854 24.3867 7.64911V15.0858C24.3867 15.8864 25.0277 16.538 25.8154 16.538C26.603 16.538 27.244 15.8864 27.244 15.0858Z" fill="#037F72"/>
<path d="M12.6112 15.0858V7.64911C12.6112 6.84854 11.9702 6.19701 11.1825 6.19701C10.3949 6.19701 9.75391 6.84854 9.75391 7.64911V15.0858C9.75391 15.8864 10.3949 16.538 11.1825 16.538C11.9702 16.538 12.6112 15.8864 12.6112 15.0858Z" fill="#037F72"/>
</g>
<defs>
<clipPath id="clip0_1037_6566">
<rect width="37" height="37" fill="white"/>
</clipPath>
</defs>
</svg>
