<svg width="37" height="37" viewBox="0 0 37 37" fill="none" xmlns="http://www.w3.org/2000/svg">
<g clip-path="url(#clip0_1051_6627)">
<path d="M5.32966 30.6239C3.99182 30.6239 2.68924 29.9301 1.97337 28.6908L0.517413 26.1689C-0.548955 24.3217 0.0861925 21.9515 1.93343 20.8851L5.71628 18.701C5.93592 18.5744 6.19678 18.5399 6.44149 18.6054C6.6862 18.6708 6.89523 18.8314 7.02183 19.0506L11.3897 26.6163C11.6535 27.0734 11.4972 27.658 11.0396 27.9223L7.25677 30.1064C6.64924 30.4573 5.9852 30.6239 5.32924 30.6239H5.32966ZM5.84373 20.835L2.88891 22.5412C1.95467 23.0803 1.63349 24.2792 2.17305 25.2135L3.629 27.7353C4.16813 28.6696 5.36705 28.9908 6.30129 28.4512L9.25611 26.745L5.84415 20.835H5.84373Z" fill="#037F72"/>
<path d="M10.5617 28.0506C10.2252 28.0506 9.90704 27.8721 9.73412 27.5726L5.36626 20.0069C5.16064 19.6505 5.2061 19.2027 5.47885 18.8947L14.6432 8.55984C14.8472 8.33 15.1488 8.21189 15.4547 8.2429C15.7606 8.27392 16.0325 8.4498 16.1863 8.71618L24.922 23.8471C25.0758 24.1131 25.0919 24.4368 24.9658 24.7172C24.8396 24.9976 24.5868 25.1999 24.2856 25.2615L10.7533 28.0306C10.6892 28.0438 10.625 28.0502 10.5613 28.0502L10.5617 28.0506ZM7.36602 19.6479L11.0452 26.0202L22.6032 23.6551L15.1934 10.8213L7.36602 19.6484V19.6479Z" fill="#037F72"/>
<path d="M11.953 37C10.8671 37 9.80961 36.4371 9.22842 35.4306L5.95242 29.7563C5.68858 29.2992 5.84493 28.7146 6.30249 28.4504L10.0853 26.2662C10.305 26.1396 10.5658 26.1052 10.8106 26.1706C11.0553 26.2361 11.2643 26.3966 11.3909 26.6159L14.6669 32.2901C15.0862 33.0162 15.1975 33.8625 14.9809 34.6727C14.7638 35.4829 14.2442 36.1597 13.5177 36.5794C13.0244 36.864 12.4853 36.9996 11.953 36.9996V37ZM8.086 29.6285L10.884 34.4747C11.2227 35.061 11.9751 35.2628 12.5613 34.9242C12.8456 34.7602 13.0486 34.4955 13.1336 34.1786C13.2186 33.8616 13.1748 33.5307 13.0108 33.2469L10.2128 28.4002L8.086 29.6285Z" fill="#037F72"/>
<path d="M24.6405 26.2276C24.31 26.2276 23.9888 26.0559 23.8117 25.7496L13.9837 8.72722C13.7198 8.27009 13.8762 7.6855 14.3337 7.42124C14.7909 7.15741 15.3755 7.31376 15.6397 7.77132L25.4677 24.7937C25.7316 25.2508 25.5752 25.8354 25.1177 26.0997C24.9673 26.1868 24.8028 26.228 24.6405 26.228V26.2276Z" fill="#037F72"/>
<path d="M30.5854 10.648H28.4012C27.8731 10.648 27.4453 10.2201 27.4453 9.69205C27.4453 9.16397 27.8731 8.73615 28.4012 8.73615H30.5854C31.1135 8.73615 31.5413 9.16397 31.5413 9.69205C31.5413 10.2201 31.1135 10.648 30.5854 10.648Z" fill="#037F72"/>
<path d="M30.5854 6.27967H28.4012C27.8731 6.27967 27.4453 5.85185 27.4453 5.32377C27.4453 4.79568 27.8731 4.36786 28.4012 4.36786H30.5854C31.1135 4.36786 31.5413 4.79568 31.5413 5.32377C31.5413 5.85185 31.1135 6.27967 30.5854 6.27967Z" fill="#037F72"/>
<path d="M32.4059 26.9549C29.8717 26.9549 27.8099 24.8931 27.8099 22.3589C27.8099 22.0823 27.8345 21.8079 27.8838 21.5377L25.7574 19.3918C25.486 19.1177 25.4057 18.7073 25.5539 18.3509C25.7022 17.9949 26.0506 17.7629 26.4363 17.7629H32.4059C34.9401 17.7629 37.0019 19.8247 37.0019 22.3589C37.0019 24.8931 34.9401 26.9549 32.4059 26.9549ZM28.7292 19.6747L29.6189 20.5724C29.87 20.8256 29.9592 21.1978 29.85 21.5377C29.765 21.8032 29.7217 22.0793 29.7217 22.3589C29.7217 23.8391 30.9257 25.0431 32.4059 25.0431C33.8861 25.0431 35.0901 23.8391 35.0901 22.3589C35.0901 20.8787 33.8861 19.6747 32.4059 19.6747H28.7292Z" fill="#037F72"/>
<path d="M29.4919 15.0158C28.1574 15.0158 26.8625 14.6657 25.7192 14L23.5665 14.6152C23.2326 14.7108 22.8736 14.6173 22.628 14.3722C22.3825 14.1266 22.2894 13.7672 22.385 13.4337L23.0002 11.281C22.3345 10.1377 21.9844 8.84278 21.9844 7.50834C21.984 3.36819 25.3521 0 29.4919 0C33.6316 0 36.9998 3.36819 36.9998 7.50791C36.9998 11.6476 33.6316 15.0158 29.4919 15.0158ZM25.8641 12.0083C26.051 12.0083 26.2354 12.0631 26.3943 12.1689C27.3124 12.7807 28.3839 13.104 29.4919 13.104C32.5775 13.104 35.088 10.5936 35.088 7.50791C35.088 4.42224 32.5775 1.91182 29.4919 1.91182C26.4062 1.91182 23.8958 4.42224 23.8958 7.50791C23.8958 8.61591 24.2191 9.68738 24.8309 10.6055C24.9864 10.8387 25.0314 11.1285 24.9545 11.3982L24.6958 12.304L25.6015 12.0453C25.6878 12.0206 25.7761 12.0083 25.8641 12.0083Z" fill="#037F72"/>
</g>
<defs>
<clipPath id="clip0_1051_6627">
<rect width="37" height="37" fill="white"/>
</clipPath>
</defs>
</svg>
