<svg width="16" height="21" viewBox="0 0 16 21" fill="none" xmlns="http://www.w3.org/2000/svg">
<g clip-path="url(#clip0_653_17200)">
<path d="M15.3852 2.31394C14.9887 1.90929 14.465 1.68617 13.9104 1.68617H12.0364C11.7959 0.688284 10.9338 0 9.90664 0H6.09366C5.09047 0 4.21127 0.676059 3.96571 1.62169H2.09021C0.957065 1.62169 0 2.62813 0 3.81949V18.8673C0 19.4333 0.218304 19.9679 0.615085 20.3725C1.01157 20.7772 1.53532 21.0003 2.08991 21.0003H13.9104C14.4686 21.0003 14.9926 20.7741 15.3861 20.3637C15.782 19.9505 16.0003 19.396 16.0003 18.8025V3.81949C16.0003 3.25346 15.782 2.71891 15.3852 2.31425V2.31394ZM9.90664 3.30786H6.09366C5.52888 3.30786 5.06951 2.83902 5.06951 2.2626C5.06951 1.68617 5.52888 1.21733 6.09366 1.21733H9.90664C10.4714 1.21733 10.9308 1.68617 10.9308 2.2626C10.9308 2.83902 10.4714 3.30786 9.90664 3.30786ZM1.19274 3.81949C1.19274 3.28799 1.60359 2.83902 2.08991 2.83902H3.96541C4.21097 3.78434 5.09017 4.4607 6.09336 4.4607H9.90634C10.9098 4.4607 11.7887 3.78465 12.0343 2.83902H13.9098C14.4129 2.83902 14.807 3.24123 14.807 3.75469V18.8025C14.807 19.334 14.3961 19.783 13.9098 19.783H2.08991C1.57005 19.783 1.19274 19.3707 1.19274 18.8025V3.81949Z" fill="white"/>
<path d="M7.93643 18.5354C10.035 18.5354 11.7422 16.793 11.7422 14.6511C11.7422 12.5092 10.035 10.7668 7.93643 10.7668C6.91737 10.7668 5.95102 11.1709 5.21526 11.9044C4.4747 12.6425 4.06714 13.6181 4.06714 14.6511C4.06714 15.6841 4.46632 16.6664 5.191 17.3975C5.91868 18.1313 6.89342 18.5354 7.93643 18.5354ZM7.93643 11.9197C9.35286 11.9197 10.5492 13.141 10.5492 14.5863C10.5492 16.0316 9.35256 17.2529 7.93643 17.2529C6.52029 17.2529 5.32366 16.0316 5.32366 14.5863C5.32366 13.141 6.52029 11.9197 7.93643 11.9197Z" fill="white"/>
<path d="M6.45834 15.2608L7.09169 15.8425C7.21087 15.9629 7.36689 16.0231 7.52291 16.0231C7.68072 16.0231 7.83883 15.9617 7.95951 15.8382L9.41937 14.2834C9.65893 14.0389 9.65893 13.6416 9.41937 13.3971C9.1798 13.1526 8.79051 13.1529 8.55094 13.3971C8.55004 13.398 8.54945 13.3986 8.54855 13.3995L7.48937 14.5408L7.32227 14.3702C7.0827 14.1257 6.69311 14.126 6.45384 14.3702C6.21428 14.6147 6.21428 15.0121 6.45384 15.2566C6.45534 15.2581 6.45684 15.2596 6.45834 15.2612V15.2608Z" fill="white"/>
<path d="M5.3309 6.92532H10.669C10.9778 6.92532 11.2973 6.6854 11.2973 6.2841C11.2973 5.8828 11.0508 5.64288 10.669 5.64288H5.3309C5.02216 5.64288 4.70264 5.8828 4.70264 6.2841C4.70264 6.6854 5.02216 6.92532 5.3309 6.92532Z" fill="white"/>
<path d="M5.3309 9.58462H10.669C10.9778 9.58462 11.2973 9.3447 11.2973 8.9434C11.2973 8.54211 11.0508 8.30219 10.669 8.30219H5.3309C5.02216 8.30219 4.70264 8.54211 4.70264 8.9434C4.70264 9.3447 5.02216 9.58462 5.3309 9.58462Z" fill="white"/>
</g>
<defs>
<clipPath id="clip0_653_17200">
<rect width="16" height="21" fill="white"/>
</clipPath>
</defs>
</svg>
