<svg width="21" height="21" viewBox="0 0 21 21" fill="none" xmlns="http://www.w3.org/2000/svg">
<g clip-path="url(#clip0_653_17168)">
<path d="M3.02494 17.3811C2.26563 17.3811 1.52632 16.9873 1.12002 16.284L0.293667 14.8526C-0.311569 13.8042 0.0489201 12.4589 1.09735 11.8537L3.24437 10.614C3.36904 10.5422 3.51709 10.5227 3.65598 10.5598C3.79487 10.5969 3.91351 10.6881 3.98536 10.8125L6.46442 15.1065C6.61416 15.366 6.52543 15.6978 6.26573 15.8478L4.11871 17.0874C3.77389 17.2866 3.39701 17.3811 3.0247 17.3811H3.02494ZM3.31671 11.8252L1.63965 12.7936C1.10941 13.0996 0.927115 13.7801 1.23335 14.3103L2.0597 15.7417C2.3657 16.2719 3.04616 16.4542 3.57641 16.148L5.25347 15.1796L3.31695 11.8252H3.31671Z" fill="white"/>
<path d="M5.99456 15.9206C5.80358 15.9206 5.62298 15.8193 5.52484 15.6493L3.04578 11.3553C2.92908 11.153 2.95488 10.8988 3.10968 10.724L8.31109 4.85828C8.42684 4.72783 8.59804 4.6608 8.77165 4.6784C8.94527 4.696 9.09959 4.79583 9.18688 4.94702L14.145 13.5349C14.2323 13.6858 14.2414 13.8695 14.1698 14.0287C14.0982 14.1878 13.9547 14.3026 13.7838 14.3376L6.10331 15.9093C6.0669 15.9167 6.03049 15.9204 5.99432 15.9204L5.99456 15.9206ZM4.18078 11.1515L6.26897 14.7682L12.8289 13.4259L8.62336 6.14182L4.18078 11.1518V11.1515Z" fill="white"/>
<path d="M6.78341 21C6.16708 21 5.56691 20.6805 5.23704 20.1093L3.37769 16.8887C3.22795 16.6293 3.31669 16.2975 3.57638 16.1475L5.7234 14.9079C5.84807 14.836 5.99612 14.8165 6.13501 14.8536C6.2739 14.8907 6.39254 14.9819 6.4644 15.1063L8.32375 18.3268C8.56174 18.7389 8.62492 19.2193 8.50194 19.6791C8.37873 20.1389 8.08382 20.5231 7.67149 20.7613C7.39154 20.9229 7.08555 20.9998 6.78341 20.9998V21ZM4.58865 16.8162L6.17673 19.5667C6.36891 19.8995 6.79595 20.014 7.12871 19.8219C7.29002 19.7288 7.40528 19.5786 7.45351 19.3987C7.50174 19.2188 7.4769 19.0309 7.38382 18.8699L5.79574 16.1191L4.58865 16.8162Z" fill="white"/>
<path d="M13.9855 14.8859C13.7979 14.8859 13.6156 14.7885 13.5151 14.6146L7.93702 4.95328C7.78728 4.69382 7.87601 4.36203 8.13571 4.21204C8.39516 4.0623 8.72696 4.15104 8.87694 4.41073L14.455 14.0721C14.6047 14.3315 14.516 14.6633 14.2563 14.8133C14.1709 14.8627 14.0776 14.8861 13.9855 14.8861V14.8859Z" fill="white"/>
<path d="M17.3584 6.04343H16.1187C15.819 6.04343 15.5762 5.80061 15.5762 5.50089C15.5762 5.20116 15.819 4.95834 16.1187 4.95834H17.3584C17.6581 4.95834 17.9009 5.20116 17.9009 5.50089C17.9009 5.80061 17.6581 6.04343 17.3584 6.04343Z" fill="white"/>
<path d="M17.3584 3.56415H16.1187C15.819 3.56415 15.5762 3.32133 15.5762 3.02161C15.5762 2.72188 15.819 2.47906 16.1187 2.47906H17.3584C17.6581 2.47906 17.9009 2.72188 17.9009 3.02161C17.9009 3.32133 17.6581 3.56415 17.3584 3.56415Z" fill="white"/>
<path d="M18.3913 15.2987C16.953 15.2987 15.7828 14.1285 15.7828 12.6902C15.7828 12.5332 15.7968 12.3774 15.8247 12.2241L14.6179 11.0061C14.4638 10.8506 14.4182 10.6177 14.5024 10.4154C14.5865 10.2133 14.7843 10.0816 15.0032 10.0816H18.3913C19.8297 10.0816 20.9999 11.2518 20.9999 12.6902C20.9999 14.1285 19.8297 15.2987 18.3913 15.2987ZM16.3046 11.1667L16.8095 11.6762C16.952 11.8199 17.0027 12.0312 16.9407 12.2241C16.8925 12.3748 16.8679 12.5315 16.8679 12.6902C16.8679 13.5303 17.5512 14.2136 18.3913 14.2136C19.2314 14.2136 19.9148 13.5303 19.9148 12.6902C19.9148 11.8501 19.2314 11.1667 18.3913 11.1667H16.3046Z" fill="white"/>
<path d="M16.7388 8.52249C15.9814 8.52249 15.2464 8.3238 14.5976 7.94595L13.3758 8.29511C13.1862 8.34936 12.9825 8.29631 12.8431 8.15718C12.7037 8.01781 12.6509 7.81381 12.7052 7.62453L13.0543 6.40272C12.6765 5.75384 12.4778 5.01888 12.4778 4.26149C12.4775 1.91168 14.3892 0 16.7388 0C19.0884 0 21 1.91168 21 4.26125C21 6.61082 19.0884 8.52249 16.7388 8.52249ZM14.6798 6.81554C14.7859 6.81554 14.8905 6.84664 14.9807 6.90668C15.5018 7.25391 16.1099 7.43741 16.7388 7.43741C18.4901 7.43741 19.915 6.01257 19.915 4.26125C19.915 2.50992 18.4901 1.08508 16.7388 1.08508C14.9875 1.08508 13.5626 2.50992 13.5626 4.26125C13.5626 4.89011 13.7461 5.49824 14.0934 6.01932C14.1816 6.1517 14.2072 6.31616 14.1635 6.46927L14.0167 6.98336L14.5308 6.83651C14.5797 6.82253 14.6299 6.81554 14.6798 6.81554Z" fill="white"/>
</g>
<defs>
<clipPath id="clip0_653_17168">
<rect width="21" height="21" fill="white"/>
</clipPath>
</defs>
</svg>
