<svg width="29" height="37" viewBox="0 0 29 37" fill="none" xmlns="http://www.w3.org/2000/svg">
<g clip-path="url(#clip0_810_2816)">
<path d="M27.8857 4.07695C27.1671 3.36398 26.2178 2.97088 25.2126 2.97088H21.8159C21.3801 1.21269 19.8175 0 17.9558 0H11.0448C9.22648 0 7.63292 1.19115 7.18785 2.85726H3.78851C1.73468 2.85726 0 4.63052 0 6.72957V33.2424C0 34.2397 0.395677 35.1815 1.11484 35.8945C1.83346 36.6074 2.78276 37.0005 3.78797 37.0005H25.2126C26.2243 37.0005 27.1741 36.6021 27.8873 35.8789C28.6049 35.1508 29.0005 34.174 29.0005 33.1282V6.72957C29.0005 5.73228 28.6049 4.79045 27.8857 4.07749V4.07695ZM17.9558 5.82813H11.0448C10.0211 5.82813 9.18849 5.00208 9.18849 3.98648C9.18849 2.97088 10.0211 2.14483 11.0448 2.14483H17.9558C18.9795 2.14483 19.8121 2.97088 19.8121 3.98648C19.8121 5.00208 18.9795 5.82813 17.9558 5.82813ZM2.16184 6.72957C2.16184 5.79313 2.90651 5.00208 3.78797 5.00208H7.18731C7.63238 6.66765 9.22594 7.85934 11.0442 7.85934H17.9552C19.7741 7.85934 21.3671 6.66818 21.8121 5.00208H25.2115C26.1233 5.00208 26.8376 5.71074 26.8376 6.61541V33.1282C26.8376 34.0647 26.0929 34.8557 25.2115 34.8557H3.78797C2.84572 34.8557 2.16184 34.1293 2.16184 33.1282V6.72957Z" fill="#037F72"/>
<path d="M14.3842 32.6576C18.1879 32.6576 21.2822 29.5876 21.2822 25.8138C21.2822 22.0401 18.1879 18.9701 14.3842 18.9701C12.5371 18.9701 10.7856 19.682 9.45206 20.9744C8.1098 22.2749 7.37109 23.9937 7.37109 25.8138C7.37109 27.634 8.0946 29.3647 9.4081 30.6528C10.727 31.9457 12.4937 32.6576 14.3842 32.6576ZM14.3842 21.0013C16.9515 21.0013 19.1198 23.1531 19.1198 25.6997C19.1198 28.2462 16.9509 30.3981 14.3842 30.3981C11.8174 30.3981 9.64854 28.2462 9.64854 25.6997C9.64854 23.1531 11.8174 21.0013 14.3842 21.0013Z" fill="#037F72"/>
<path d="M11.7049 26.8881L12.8528 27.9129C13.0689 28.1251 13.3516 28.2311 13.6344 28.2311C13.9205 28.2311 14.207 28.1229 14.4258 27.9054L17.0718 25.166C17.506 24.7352 17.506 24.0352 17.0718 23.6044C16.6376 23.1736 15.932 23.1741 15.4977 23.6044C15.4961 23.606 15.495 23.6071 15.4934 23.6087L13.5736 25.6194L13.2708 25.319C12.8366 24.8882 12.1304 24.8887 11.6968 25.319C11.2625 25.7498 11.2625 26.4498 11.6968 26.8806C11.6995 26.8833 11.7022 26.886 11.7049 26.8887V26.8881Z" fill="#037F72"/>
<path d="M9.66216 12.2018H19.3375C19.8971 12.2018 20.4762 11.779 20.4762 11.072C20.4762 10.365 20.0295 9.94224 19.3375 9.94224H9.66216C9.10257 9.94224 8.52344 10.365 8.52344 11.072C8.52344 11.779 9.10257 12.2018 9.66216 12.2018Z" fill="#037F72"/>
<path d="M9.66216 16.8872H19.3375C19.8971 16.8872 20.4762 16.4645 20.4762 15.7574C20.4762 15.0504 20.0295 14.6277 19.3375 14.6277H9.66216C9.10257 14.6277 8.52344 15.0504 8.52344 15.7574C8.52344 16.4645 9.10257 16.8872 9.66216 16.8872Z" fill="#037F72"/>
</g>
<defs>
<clipPath id="clip0_810_2816">
<rect width="29" height="37" fill="white"/>
</clipPath>
</defs>
</svg>
