<svg width="21" height="18" viewBox="0 0 21 18" fill="none" xmlns="http://www.w3.org/2000/svg">
<g clip-path="url(#clip0_653_17210)">
<path d="M12.5139 16.144C12.3785 16.0977 12.233 16.1068 12.1043 16.1693C8.29312 18.0139 3.68363 16.4305 1.82905 12.6392C0.562648 10.05 0.861314 7.02344 2.56071 4.74455L2.48057 5.15786C2.42181 5.44968 2.61286 5.73467 2.90619 5.79313C3.19951 5.8516 3.48596 5.66152 3.54473 5.3697C3.68669 4.66306 3.79455 4.12269 3.86884 3.74938C3.93473 3.41909 3.97976 3.19358 3.99069 3.14296C3.99298 3.13587 3.99477 3.12853 3.99604 3.12094C4.02046 2.98072 3.9884 2.83949 3.90598 2.72307C3.82355 2.6069 3.70042 2.52945 3.55949 2.50515C3.52692 2.49958 3.4936 2.4968 3.459 2.49756L1.17295 2.55096C0.878613 2.55223 0.639731 2.79065 0.639731 3.08373C0.639731 3.37682 0.879885 3.6165 1.17524 3.6165C1.17677 3.6165 1.17804 3.6165 1.17957 3.6165L2.12696 3.59423C0.697989 5.23784 -0.0535106 7.3226 0.00296637 9.50986C0.0630049 11.8366 1.03024 14.0006 2.72658 15.6034C4.02377 16.8292 5.64379 17.6219 7.41136 17.8955C7.86318 17.9653 8.31627 18.0003 8.76707 18.0003C10.0803 18.0003 11.3762 17.7056 12.5752 17.1281C12.7039 17.0656 12.8003 16.9567 12.8469 16.8221C12.8934 16.6872 12.8843 16.5427 12.8214 16.4146C12.7586 16.2865 12.6492 16.1906 12.5139 16.1443V16.144Z" fill="white"/>
<path d="M9.30675 7.15352H11.6187C12.0075 7.15352 12.3239 6.83892 12.3239 6.45194C12.3239 6.06495 12.0077 5.75035 11.6187 5.75035H10.5899V5.30187C10.5899 4.91488 10.2735 4.60028 9.88475 4.60028C9.49602 4.60028 9.17955 4.91488 9.17955 5.30187V5.75466C8.21232 5.81995 7.44556 6.62354 7.44556 7.60201C7.44556 8.58048 8.2805 9.45367 9.30675 9.45367H10.4627C10.7113 9.45367 10.9135 9.65488 10.9135 9.90215C10.9135 10.1494 10.7113 10.3506 10.4627 10.3506H8.15075C7.76203 10.3506 7.44556 10.6652 7.44556 11.0522C7.44556 11.4392 7.76203 11.7538 8.15075 11.7538H9.17955V12.2023C9.17955 12.5893 9.49602 12.9039 9.88475 12.9039C10.2735 12.9039 10.5899 12.5893 10.5899 12.2023V11.7495C11.5572 11.6842 12.3239 10.8806 12.3239 9.90215C12.3239 8.92368 11.489 8.0505 10.4627 8.0505H9.30675C9.0582 8.0505 8.85595 7.84929 8.85595 7.60201C8.85595 7.35473 9.0582 7.15352 9.30675 7.15352Z" fill="white"/>
<path d="M20.9974 9.25726C20.9956 9.02872 20.9936 8.76955 20.9936 8.4633C20.9908 8.15832 20.8966 7.85587 20.7275 7.60201C20.8969 7.34815 20.9908 7.0457 20.9936 6.73946C20.9936 6.45143 20.9948 6.2039 20.9961 5.98548C21.0027 4.81086 21.0042 4.54182 20.7287 4.15154C21.0081 3.74988 21.0055 3.44312 20.9971 2.35708C20.9953 2.12854 20.9933 1.86936 20.9933 1.56388C20.99 0.705119 20.2848 0.0037875 19.4216 0.000244141H13.0631C12.1961 0.000244141 11.4909 0.701829 11.4909 1.56438V2.50843C9.87472 2.09082 8.18754 2.30267 6.72143 3.11081C5.20622 3.94603 4.10874 5.31832 3.63097 6.97484C3.15321 8.63136 3.3524 10.3739 4.19218 11.8811C5.03196 13.3883 6.41106 14.4804 8.07611 14.9557C9.37483 15.3265 10.7855 15.28 12.057 14.8262C12.2605 15.0117 12.4197 15.1256 12.9062 15.1762C13.2336 15.2104 13.7233 15.22 14.5165 15.22C14.9233 15.22 15.4097 15.2174 15.9948 15.2144C16.8901 15.2099 18.0043 15.204 19.4209 15.204C20.2878 15.204 20.993 14.5024 20.993 13.6399C20.993 13.3519 20.9943 13.1043 20.9956 12.8859C21.0022 11.7113 21.0037 11.4423 20.7282 11.052C21.0075 10.6503 21.005 10.3436 20.9966 9.25752L20.9974 9.25726ZM14.9594 8.75183C14.9594 11.5356 12.6831 13.8006 9.88465 13.8006C7.08624 13.8006 4.80987 11.5356 4.80987 8.75183C4.80987 5.96802 7.08624 3.70305 9.88465 3.70305C12.6831 3.70305 14.9594 5.96776 14.9594 8.75183ZM16.164 10.3504C16.3518 9.68272 16.424 8.99556 16.3795 8.30334H19.4188C19.5089 8.30511 19.5809 8.37623 19.5832 8.46558V10.1869C19.5814 10.2767 19.5094 10.3486 19.4214 10.3504H16.164ZM16.0895 6.90043C15.8669 6.15708 15.5173 5.46992 15.0482 4.85338H19.4122C19.5045 4.85135 19.5811 4.92475 19.5832 5.01435V6.73718C19.5814 6.82703 19.5094 6.89891 19.4214 6.90068H16.0895V6.90043ZM15.6201 11.7536H19.4191C19.5094 11.7553 19.5816 11.827 19.5834 11.9145V13.6384C19.5811 13.7277 19.5091 13.7988 19.4216 13.8006H13.9085C14.6119 13.244 15.1983 12.5435 15.6204 11.7536H15.6201ZM16.0404 3.46134C14.3976 3.47096 13.4681 3.40347 13.2519 3.25887C13.1664 3.20167 13.0626 3.13207 12.9018 3.04601V1.56565C12.9041 1.47631 12.9761 1.40493 13.0636 1.40316H19.4216C19.502 1.40316 19.5185 1.41986 19.5249 1.42619C19.6012 1.50288 19.5966 1.8643 19.5895 2.46313C19.5867 2.69902 19.5834 2.96629 19.5834 3.28696C19.5816 3.37681 19.5094 3.44869 19.4216 3.45046C17.9565 3.45046 16.8491 3.45679 16.0404 3.4616V3.46134Z" fill="white"/>
</g>
<defs>
<clipPath id="clip0_653_17210">
<rect width="21" height="18" fill="white"/>
</clipPath>
</defs>
</svg>
