<svg width="37" height="37" viewBox="0 0 37 37" fill="none" xmlns="http://www.w3.org/2000/svg">
<g clip-path="url(#clip0_619_377)">
<path d="M28.3282 36.9999H8.67183C3.8904 36.9999 0 33.109 0 28.3268V16.165C0 14.8375 0.311102 13.5072 0.899703 12.3174C1.4883 11.1275 2.35765 10.0732 3.41291 9.26878L13.2408 1.77142C16.3372 -0.590372 20.6623 -0.590372 23.7587 1.77142L26.8821 4.15219V2.30753C26.8821 1.50906 27.5293 0.86183 28.3276 0.86183C29.126 0.86183 29.7731 1.50906 29.7731 2.30753V7.07123C29.7731 7.62089 29.4615 8.12284 28.9693 8.36678C28.4772 8.61071 27.8892 8.55433 27.4518 8.22096L22.0064 4.07088C19.9414 2.49563 17.058 2.49563 14.9936 4.07088L5.1657 11.5672C3.74081 12.654 2.89043 14.3724 2.89043 16.1644V28.3263C2.89043 31.5147 5.48385 34.1085 8.67183 34.1085H28.3282C31.5161 34.1085 34.1096 31.5147 34.1096 28.3263V16.1644C34.1096 14.3501 33.2684 12.6258 31.8603 11.5514C31.2256 11.0674 31.1037 10.1599 31.5877 9.52518C32.0717 8.89041 32.979 8.76845 33.6137 9.25252C34.6678 10.0564 35.5334 11.1167 36.1182 12.3179C36.6959 13.505 37.0011 14.8353 37.0011 16.1644V28.3263C37.0011 33.1084 33.1107 36.9994 28.3293 36.9994L28.3282 36.9999Z" fill="#005E53"/>
<path d="M15.6093 16.6903C14.6115 16.6903 13.8028 17.4991 13.8028 18.497C13.8028 19.495 14.6115 20.3037 15.6093 20.3037C16.6071 20.3037 17.4157 19.495 17.4157 18.497C17.4157 17.4991 16.6071 16.6903 15.6093 16.6903Z" fill="#005E53"/>
<path d="M21.3907 16.6903C20.3929 16.6903 19.5843 17.4991 19.5843 18.497C19.5843 19.495 20.3929 20.3037 21.3907 20.3037C22.3885 20.3037 23.1972 19.495 23.1972 18.497C23.1972 17.4991 22.3885 16.6903 21.3907 16.6903Z" fill="#005E53"/>
<path d="M15.6093 22.4725C14.6115 22.4725 13.8028 23.2813 13.8028 24.2793C13.8028 25.2772 14.6115 26.086 15.6093 26.086C16.6071 26.086 17.4157 25.2772 17.4157 24.2793C17.4157 23.2813 16.6071 22.4725 15.6093 22.4725Z" fill="#005E53"/>
<path d="M21.3907 22.4725C20.3929 22.4725 19.5843 23.2813 19.5843 24.2793C19.5843 25.2772 20.3929 26.086 21.3907 26.086C22.3885 26.086 23.1972 25.2772 23.1972 24.2793C23.1972 23.2813 22.3885 22.4725 21.3907 22.4725Z" fill="#005E53"/>
</g>
<defs>
<clipPath id="clip0_619_377">
<rect width="37" height="37" fill="white"/>
</clipPath>
</defs>
</svg>
