<svg width="146" height="88" viewBox="0 0 146 88" fill="none" xmlns="http://www.w3.org/2000/svg">
<g clip-path="url(#clip0_564_1403)">
<path d="M48.6518 60.4087C61.3457 44.4247 79.5957 77.7716 104.671 81.0311C129.768 84.2906 143.419 65.9247 140.901 50.1079C136.364 21.671 102.278 34.9597 103.485 0.0665387C104.38 -25.6332 79.9494 -34.9937 64.6752 -27.5137C41.2644 -16.0428 50.2542 12.2478 28.9452 19.2264C-23.599 36.4222 22.1612 93.6929 48.6518 60.3878V60.4087Z" fill="#E5F2F8"/>
<path d="M70.1901 14.2746C70.1901 14.2746 93.5176 9.42715 94.0795 3.53502C94.6413 -2.37801 89.543 -8.54176 96.5558 -15.3114C103.548 -22.0811 105.337 -30.2298 109.395 -29.2269C114.639 -27.9524 111.934 -21.4543 108.48 -15.3114C104.463 -8.16567 107.481 -3.06751 109.416 -0.434855C114.265 6.14678 105.088 10.6808 107.314 20.0205C108.23 23.8441 103.548 37.8431 81.9891 34.8761L70.1484 14.2955L70.1901 14.2746Z" fill="#018479"/>
<path d="M93.9355 70.2707C93.9355 70.2707 101.281 69.9573 100.282 63.3548C99.3044 56.7523 100.761 53.4301 106.879 48.9797C113.018 44.5083 113.538 40.4131 111.853 35.7328C110.167 31.0525 121.571 26.7484 117.242 22.486C110.333 15.6536 113.621 12.0389 117.7 9.23911C122.278 6.08411 123.985 -0.64379 117.513 -0.497531C111.02 -0.351273 106.005 8.80033 105.547 12.7702C105.089 16.7401 104.091 20.501 96.9113 22.674C89.732 24.847 87.5262 27.8557 86.1527 33.1002C84.7793 38.3446 86.0695 38.2401 79.6602 44.571L93.9355 70.2916V70.2707Z" fill="#045B44"/>
<path d="M76.3299 65.2144C86.8387 58.988 109.854 19.2892 110.083 18.8922L109.771 18.7668C109.542 19.1638 86.5682 58.779 76.1426 64.9637L76.3299 65.2144Z" fill="#C2C23C"/>
<path d="M99.5326 36.7148C100.573 36.9447 101.946 36.5477 103.653 35.5865L103.466 35.3358C101.53 36.4432 100.053 36.7566 99.0956 36.2343C97.514 35.3776 97.8054 32.5778 97.8054 32.536H97.4724C97.4724 32.536 97.1603 35.5657 98.9291 36.5059C99.1164 36.6104 99.3245 36.673 99.5326 36.7357V36.7148Z" fill="#C2C23C"/>
<path d="M105.214 27.5841C106.255 27.8139 107.628 27.4169 109.335 26.4558L109.147 26.2051C107.212 27.3125 105.734 27.6259 104.777 27.1035C103.196 26.2678 103.487 23.4471 103.487 23.4053H103.154C103.154 23.5097 102.842 26.4349 104.611 27.3751C104.798 27.4796 105.006 27.5423 105.214 27.5841Z" fill="#C2C23C"/>
<path d="M108.627 22.3397C109.667 22.5695 111.041 22.1726 112.747 21.2114L112.581 20.9607C110.646 22.0681 109.168 22.3815 108.211 21.8591C106.629 21.0025 106.921 18.1818 106.921 18.1609H106.588C106.588 18.2654 106.275 21.1905 108.044 22.1308C108.232 22.2352 108.44 22.2979 108.648 22.3606L108.627 22.3397Z" fill="#C2C23C"/>
<path d="M102.071 32.5778C102.945 32.7658 104.089 32.4524 105.505 31.6376L105.317 31.3868C103.715 32.3062 102.508 32.5569 101.717 32.139C100.427 31.4495 100.656 29.1303 100.656 29.1094H100.323C100.323 29.1094 100.073 31.6167 101.53 32.4106C101.696 32.4942 101.863 32.5569 102.05 32.5987L102.071 32.5778Z" fill="#C2C23C"/>
<path d="M96.5977 41.207C97.6382 41.4368 99.0116 41.0399 100.718 40.0787L100.552 39.8071C98.6162 40.9354 97.1387 41.2279 96.1815 40.7264C94.6 39.8907 94.8913 37.07 94.8913 37.0282H94.5584C94.5584 37.1327 94.2462 40.0578 96.015 40.9981C96.2023 41.1025 96.4104 41.1652 96.6185 41.2279L96.5977 41.207Z" fill="#C2C23C"/>
<path d="M93.6016 46.5978C94.6421 46.8276 96.0155 46.4306 97.7219 45.4695L97.5554 45.2188C95.6201 46.3261 94.1426 46.6396 93.1854 46.1172C91.6039 45.2814 91.8952 42.4607 91.8952 42.4189H91.5623C91.5623 42.4189 91.2501 45.4486 93.0189 46.3888C93.2062 46.4933 93.4143 46.556 93.6224 46.6187L93.6016 46.5978Z" fill="#C2C23C"/>
<path d="M90.5628 50.3377C91.312 50.5049 92.3108 50.2333 93.5386 49.5229L93.3513 49.2721C91.9987 50.0661 90.9582 50.275 90.2923 49.9198C89.1894 49.3348 89.3975 47.3499 89.3975 47.329H89.0645C89.0645 47.329 88.8356 49.502 90.1258 50.1706C90.2715 50.2333 90.4172 50.2959 90.5628 50.3377Z" fill="#C2C23C"/>
<path d="M19.6433 71.2736C19.6433 71.2736 25.1994 57.6089 21.2248 41.2906C19.5808 34.5418 16.5843 25.5365 22.8688 15.2566C30.0897 3.47233 36.0828 -10.9237 40.2656 -11.0909C44.4275 -11.258 40.2656 8.25707 39.0794 11.4539C37.9141 14.6507 32.8782 64.692 32.8782 64.692L19.6225 71.2945L19.6433 71.2736Z" fill="#FFBE9E"/>
<path d="M38.3522 1.5083C38.3522 1.5083 30.1116 11.3285 29.9243 18.2027C29.737 25.0768 23.7231 33.2673 27.2191 43.0875C30.7151 52.9078 39.1846 8.88391 39.1846 8.88391L38.3522 1.5292V1.5083Z" fill="#FF9C81"/>
<path d="M95.9323 65.695C95.9323 68.3903 93.7265 70.5842 91.0212 70.5842H36.9579C34.2527 70.5842 32.0469 68.3903 32.0469 65.695V-8.89692C32.0469 -11.5923 34.2527 -13.7861 36.9579 -13.7861H91.0212C93.7265 -13.7861 95.9323 -11.5923 95.9323 -8.89692V65.695Z" fill="#3E68C6"/>
<path d="M98.5124 65.695C98.5124 68.3903 96.3065 70.5842 93.6013 70.5842H39.538C36.8328 70.5842 34.627 68.3903 34.627 65.695V-8.89692C34.627 -11.5923 36.8328 -13.7861 39.538 -13.7861H93.6013C96.3065 -13.7861 98.5124 -11.5923 98.5124 -8.89692V65.695Z" fill="#5A7FE5"/>
<path d="M47.4458 -6.24339H88.2117C90.8129 -6.24339 92.9355 -4.11219 92.9355 -1.50043V54.8718C92.9355 57.5045 90.8129 59.6357 88.1909 59.6357H47.4249C44.8237 59.6357 42.7012 57.5045 42.7012 54.8927V-1.50043C42.7012 -4.13308 44.8237 -6.26428 47.4458 -6.26428V-6.24339Z" fill="#94B8ED"/>
<path d="M44.9497 -6.24339H85.7156C88.3168 -6.24339 90.4394 -4.11219 90.4394 -1.50043V54.8718C90.4394 57.4836 88.3168 59.6148 85.7156 59.6148H44.9497C42.3277 59.6148 40.2051 57.4836 40.2051 54.8509V-1.50043C40.2051 -4.13308 42.3277 -6.26428 44.9497 -6.26428V-6.24339Z" fill="#F0F8FF"/>
<path d="M70.0029 63.2921H64.3843C64.1429 63.2921 63.9473 63.4886 63.9473 63.7309V65.8621C63.9473 66.1044 64.1429 66.3009 64.3843 66.3009H70.0029C70.2442 66.3009 70.4399 66.1044 70.4399 65.8621V63.7309C70.4399 63.4886 70.2442 63.2921 70.0029 63.2921Z" fill="#3E68C6"/>
<path d="M27.9048 50.9855C27.9048 50.9855 25.4701 36.1298 29.632 29.4019C33.794 22.674 31.4425 9.92863 36.7905 6.54379C42.1386 3.17984 43.408 8.6332 42.7837 12.6031C42.1594 16.573 41.0357 27.5215 43.9698 36.1507C49.1722 51.4661 46.904 60.9311 40.6819 68.5157C40.6819 68.5157 34.4599 78.5239 37.4148 84.8339H14.1289L27.9048 50.9646V50.9855Z" fill="#FFBE9E"/>
<path d="M102.112 23.9067H48.7977C47.9127 23.9067 47.1953 24.627 47.1953 25.5156V35.503C47.1953 36.3915 47.9127 37.1118 48.7977 37.1118H102.112C102.997 37.1118 103.714 36.3915 103.714 35.503V25.5156C103.714 24.627 102.997 23.9067 102.112 23.9067Z" fill="#B5D6FC"/>
<path d="M57.2052 30.4258L55.6653 30.6347L56.7682 31.8257L55.7485 32.5361L54.9786 31.1153L54.2086 32.5361L53.189 31.8257L54.2919 30.6347L52.752 30.4258L53.1473 29.2975L54.5624 29.9034L54.3127 28.2946H55.6237L55.374 29.9034L56.7682 29.2975L57.1844 30.4258H57.2052Z" fill="#5FB7FF"/>
<path d="M63.6564 30.4258L62.1165 30.6347L63.2194 31.8257L62.1997 32.5361L61.4297 31.1153L60.6598 32.5361L59.6401 31.8257L60.743 30.6347L59.2031 30.4258L59.5985 29.2975L61.0136 29.9034L60.7638 28.2946H62.0748L61.8251 29.9034L63.2194 29.2975L63.6356 30.4258H63.6564Z" fill="#5FB7FF"/>
<path d="M70.0861 30.4258L68.5461 30.6347L69.6491 31.8257L68.6294 32.5361L67.8594 31.1153L67.0895 32.5361L66.0698 31.8257L67.1727 30.6347L65.6328 30.4258L66.0282 29.2975L67.4432 29.9034L67.1935 28.2946H68.5045L68.2548 29.9034L69.6491 29.2975L70.0652 30.4258H70.0861Z" fill="#5FB7FF"/>
<path d="M76.5372 30.4258L74.9973 30.6347L76.1002 31.8257L75.0806 32.5361L74.3106 31.1153L73.5407 32.5361L72.521 31.8257L73.6239 30.6347L72.084 30.4258L72.4794 29.2975L73.8944 29.9034L73.6447 28.2946H74.9557L74.706 29.9034L76.1002 29.2975L76.5164 30.4258H76.5372Z" fill="#5FB7FF"/>
<path d="M82.9884 30.4258L81.4485 30.6347L82.5514 31.8257L81.5317 32.5361L80.7618 31.1153L79.9918 32.5361L78.9722 31.8257L80.0751 30.6347L78.5352 30.4258L78.9305 29.2975L80.3456 29.9034L80.0959 28.2946H81.4069L81.1572 29.9034L82.5514 29.2975L82.9676 30.4258H82.9884Z" fill="#5FB7FF"/>
<path d="M89.4181 30.4258L87.8782 30.6347L88.9811 31.8257L87.9614 32.5361L87.1915 31.1153L86.4215 32.5361L85.4018 31.8257L86.5047 30.6347L84.9648 30.4258L85.3602 29.2975L86.7753 29.9034L86.5256 28.2946H87.8366L87.5868 29.9034L88.9811 29.2975L89.3973 30.4258H89.4181Z" fill="#5FB7FF"/>
<path d="M95.8693 30.4258L94.3294 30.6347L95.4323 31.8257L94.4126 32.5361L93.6426 31.1153L92.8727 32.5361L91.853 31.8257L92.9559 30.6347L91.416 30.4258L91.8114 29.2975L93.2264 29.9034L92.9767 28.2946H94.2877L94.038 29.9034L95.4323 29.2975L95.8485 30.4258H95.8693Z" fill="#5FB7FF"/>
<path d="M102.112 7.23328H48.7977C47.9127 7.23328 47.1953 7.95358 47.1953 8.84212V18.8295C47.1953 19.718 47.9127 20.4383 48.7977 20.4383H102.112C102.997 20.4383 103.714 19.718 103.714 18.8295V8.84212C103.714 7.95358 102.997 7.23328 102.112 7.23328Z" fill="#B5D6FC"/>
<path d="M91.0834 40.5593H61.7627C60.3491 40.5593 59.2031 41.7099 59.2031 43.1293V48.5618C59.2031 49.9811 60.3491 51.1317 61.7627 51.1317H91.0834C92.497 51.1317 93.643 49.9811 93.643 48.5618V43.1293C93.643 41.7099 92.497 40.5593 91.0834 40.5593Z" fill="#5FB7FF"/>
<path d="M65.9668 47.5798V46.8903C65.9668 46.8903 66.1125 46.9947 66.1957 47.0365C66.2789 47.0783 66.3622 47.1201 66.4662 47.141C66.5703 47.1619 66.6535 47.2037 66.7576 47.2037C66.8616 47.2037 66.9448 47.2246 67.0281 47.2246C67.2986 47.2246 67.5275 47.1828 67.6524 47.0783C67.798 46.9739 67.8605 46.8485 67.8605 46.6604C67.8605 46.556 67.8397 46.4724 67.798 46.4097C67.7564 46.347 67.694 46.2843 67.6108 46.2217C67.5275 46.159 67.4235 46.1172 67.3194 46.0545C67.2154 45.9918 67.0905 45.95 66.9657 45.8874C66.82 45.8038 66.6951 45.7411 66.5911 45.6575C66.4662 45.5739 66.3622 45.4904 66.2789 45.4068C66.1957 45.3232 66.1333 45.2187 66.0708 45.0934C66.0292 44.9889 65.9876 44.8427 65.9876 44.6964C65.9876 44.5084 66.0292 44.3412 66.1125 44.1949C66.1957 44.0487 66.3206 43.9442 66.4454 43.8397C66.5911 43.7562 66.7367 43.6726 66.924 43.6308C67.1113 43.589 67.2778 43.5681 67.4651 43.5681C67.8813 43.5681 68.1934 43.6099 68.3807 43.7144V44.383C68.1518 44.2158 67.8605 44.1323 67.5067 44.1323C67.4027 44.1323 67.2986 44.1323 67.2154 44.1532C67.1113 44.1532 67.0281 44.1949 66.9448 44.2367C66.8616 44.2785 66.7992 44.3412 66.7576 44.4039C66.7159 44.4666 66.6743 44.5501 66.6743 44.6546C66.6743 44.7382 66.6743 44.8218 66.7367 44.8844C66.7784 44.9471 66.82 45.0098 66.9032 45.0725C66.9657 45.1352 67.0697 45.177 67.1737 45.2396C67.2778 45.2814 67.4027 45.3441 67.5275 45.4068C67.6732 45.4904 67.798 45.5531 67.9229 45.6366C68.0478 45.7202 68.1518 45.8038 68.2558 45.9083C68.3599 46.0127 68.4223 46.1172 68.4848 46.2426C68.5472 46.3679 68.568 46.4933 68.568 46.6604C68.568 46.8694 68.5264 47.0365 68.4431 47.1828C68.3599 47.329 68.2558 47.4335 68.1102 47.538C67.9645 47.6216 67.8188 47.6843 67.6316 47.726C67.4443 47.7678 67.257 47.7887 67.0489 47.7887C66.9865 47.7887 66.9032 47.7887 66.7992 47.7887C66.6951 47.7887 66.5911 47.7678 66.487 47.7469C66.383 47.7469 66.2789 47.7051 66.1957 47.6843C66.1125 47.6634 66.0292 47.6216 65.9668 47.5798Z" fill="white"/>
<path d="M69.9621 47.7469H69.2754V43.6935H69.9621V47.7469Z" fill="white"/>
<path d="M74.1237 47.4753C73.7075 47.7051 73.2289 47.8096 72.7295 47.8096C72.126 47.8096 71.6474 47.6215 71.2728 47.2454C70.8982 46.8693 70.7109 46.3888 70.7109 45.762C70.7109 45.1351 70.919 44.6128 71.3144 44.2158C71.7098 43.8188 72.23 43.6099 72.8543 43.6099C73.3121 43.6099 73.6867 43.6725 73.978 43.7979V44.4874C73.6659 44.2785 73.2913 44.174 72.8751 44.174C72.4589 44.174 72.0844 44.3203 71.8138 44.5919C71.5433 44.8844 71.3977 45.2396 71.3977 45.6993C71.3977 46.1589 71.5225 46.535 71.7514 46.8067C71.9803 47.0783 72.3133 47.2036 72.7087 47.2036C72.9792 47.2036 73.2289 47.141 73.437 47.0365V46.0754H72.5838V45.5112H74.1029V47.4335L74.1237 47.4753Z" fill="white"/>
<path d="M78.4108 47.7469H77.6825L75.7472 44.7591C75.7472 44.7591 75.664 44.6128 75.6223 44.5292C75.6223 44.5292 75.6431 44.8009 75.6431 45.0934V47.7469H74.998V43.6935H75.7888L77.6409 46.5978C77.7241 46.7231 77.7657 46.8067 77.7865 46.8485C77.7865 46.744 77.7657 46.556 77.7657 46.3052V43.6935H78.4108V47.7469Z" fill="white"/>
<path d="M81.6789 47.7469H80.9922V43.6935H81.6789V47.7469Z" fill="white"/>
<path d="M86.0905 47.7469H85.3622L83.4269 44.7591C83.4269 44.7591 83.3436 44.6128 83.302 44.5292C83.302 44.5292 83.3228 44.8009 83.3228 45.0934V47.7469H82.6777V43.6935H83.4685L85.3206 46.5978C85.4038 46.7231 85.4454 46.8067 85.4662 46.8485C85.4662 46.744 85.4454 46.556 85.4454 46.3052V43.6935H86.0905V47.7469Z" fill="white"/>
<path d="M56.3532 14.5044C56.3532 15.6327 55.8121 16.1968 54.7508 16.1968C53.6896 16.1968 53.2109 15.6536 53.2109 14.5671V12.1016H53.8768V14.4417C53.8768 15.2357 54.189 15.6327 54.7925 15.6327C55.3959 15.6327 55.6873 15.2566 55.6873 14.4835V12.1016H56.3532V14.5044Z" fill="white"/>
<path d="M57.0391 16.0505V15.4446C57.2888 15.6327 57.5593 15.7162 57.8506 15.7162C58.246 15.7162 58.4333 15.5909 58.4333 15.361C58.4333 15.2984 58.4333 15.2357 58.3917 15.1939C58.3501 15.1521 58.3084 15.1103 58.246 15.0685C58.1836 15.0267 58.1212 15.0058 58.0379 14.964C57.9547 14.9432 57.8714 14.9014 57.7882 14.8596C57.6634 14.8178 57.5593 14.7551 57.4761 14.7133C57.372 14.6506 57.3096 14.6088 57.2472 14.5253C57.1847 14.4626 57.1431 14.379 57.1015 14.2954C57.0599 14.2119 57.0599 14.1074 57.0599 14.0029C57.0599 13.8567 57.1015 13.7313 57.1639 13.6268C57.2263 13.5224 57.3096 13.4388 57.4344 13.3552C57.5385 13.2925 57.6634 13.2298 57.809 13.188C57.9547 13.1463 58.1004 13.1254 58.246 13.1254C58.5165 13.1254 58.7454 13.1672 58.9535 13.2507V13.8149C58.7454 13.6686 58.5165 13.6059 58.2668 13.6059C58.1836 13.6059 58.1003 13.6059 58.0379 13.6268C57.9755 13.6268 57.9131 13.6686 57.8714 13.6895C57.8298 13.7104 57.7882 13.7522 57.7674 13.794C57.7466 13.8358 57.7258 13.8776 57.7258 13.9402C57.7258 14.0029 57.7258 14.0447 57.7674 14.1074C57.7882 14.1492 57.8298 14.191 57.8923 14.2119C57.9339 14.2536 57.9963 14.2745 58.0795 14.2954C58.142 14.3163 58.2252 14.3581 58.3293 14.379C58.4541 14.4208 58.5582 14.4835 58.6622 14.5253C58.7663 14.588 58.8495 14.6297 58.9119 14.7133C58.9744 14.776 59.0368 14.8596 59.0784 14.9432C59.12 15.0267 59.1408 15.1312 59.1408 15.2566C59.1408 15.4028 59.0992 15.5282 59.0368 15.6327C58.9744 15.7371 58.8703 15.8416 58.7663 15.9043C58.6622 15.967 58.5165 16.0296 58.3709 16.0714C58.2252 16.1132 58.0795 16.1132 57.9131 16.1132C57.6009 16.1132 57.3304 16.0505 57.1015 15.9461L57.0391 16.0505Z" fill="white"/>
<path d="M62.1383 14.8805H60.1822C60.1822 15.1522 60.2654 15.3611 60.4319 15.5074C60.5776 15.6536 60.8065 15.7163 61.077 15.7163C61.3892 15.7163 61.6597 15.6327 61.9302 15.4447V15.967C61.6597 16.1342 61.3267 16.2178 60.8897 16.2178C60.4527 16.2178 60.1406 16.0924 59.8909 15.8208C59.6412 15.5491 59.5371 15.1939 59.5371 14.7134C59.5371 14.2746 59.662 13.8985 59.9325 13.606C60.203 13.3135 60.536 13.1881 60.9105 13.1881C61.2851 13.1881 61.5973 13.3135 61.8262 13.5642C62.0343 13.8149 62.1591 14.1701 62.1591 14.6298V14.8805H62.1383ZM61.514 14.4209C61.514 14.191 61.4516 14.003 61.3475 13.8776C61.2435 13.7523 61.0978 13.6896 60.8897 13.6896C60.6816 13.6896 60.536 13.7523 60.4111 13.8985C60.2863 14.0448 60.203 14.2119 60.1614 14.4418H61.4932L61.514 14.4209Z" fill="white"/>
<path d="M64.4272 13.8776C64.4272 13.8776 64.2399 13.794 64.0942 13.794C63.9069 13.794 63.7404 13.8776 63.6156 14.0656C63.4907 14.2328 63.4283 14.4835 63.4283 14.776V16.155H62.7832V13.2717H63.4283V13.8567C63.4907 13.6478 63.5948 13.5015 63.7196 13.3761C63.8445 13.2717 63.9902 13.209 64.1566 13.209C64.2815 13.209 64.3647 13.209 64.4272 13.2717V13.8985V13.8776Z" fill="white"/>
<path d="M67.445 16.1342H66.7999V14.5044C66.7999 13.9612 66.6126 13.6896 66.2381 13.6896C66.03 13.6896 65.8843 13.7731 65.7386 13.9194C65.6138 14.0657 65.5513 14.2537 65.5513 14.4835V16.1342H64.9062V13.2508H65.5513V13.7314C65.7594 13.3762 66.0716 13.1881 66.4878 13.1881C66.7999 13.1881 67.0288 13.2926 67.1953 13.5015C67.3618 13.7105 67.445 14.003 67.445 14.3791V16.1342Z" fill="white"/>
<path d="M70.4413 16.1341H69.817V15.6744C69.6089 16.0296 69.3384 16.1968 68.943 16.1968C68.6516 16.1968 68.4435 16.1132 68.2771 15.9669C68.1106 15.8207 68.0273 15.6117 68.0273 15.361C68.0273 14.8177 68.3395 14.5043 68.9638 14.3999L69.817 14.2745C69.817 13.8566 69.6297 13.6477 69.2343 13.6477C68.9013 13.6477 68.5892 13.773 68.3187 14.0029V13.4387C68.6308 13.2507 68.9638 13.1671 69.3592 13.1671C70.0875 13.1671 70.4413 13.5223 70.4413 14.2536V16.1341ZM69.817 14.7342L69.2135 14.8177C69.0262 14.8386 68.8805 14.8804 68.7973 14.964C68.6933 15.0267 68.6516 15.1521 68.6516 15.3192C68.6516 15.4446 68.6933 15.549 68.7765 15.6117C68.8597 15.6953 68.9846 15.7371 69.1303 15.7371C69.3384 15.7371 69.484 15.6744 69.6297 15.5281C69.7545 15.3819 69.817 15.2147 69.817 15.0058V14.7551V14.7342Z" fill="white"/>
<path d="M75.5387 16.1342H74.8936V14.5671C74.8936 14.2746 74.852 14.0448 74.7688 13.9194C74.6855 13.794 74.5399 13.7105 74.3318 13.7105C74.1653 13.7105 74.0196 13.794 73.8948 13.9612C73.7699 14.1283 73.7075 14.3373 73.7075 14.5671V16.1342H73.0624V14.5044C73.0624 13.9612 72.8751 13.6896 72.5005 13.6896C72.334 13.6896 72.1884 13.7731 72.0635 13.9403C71.9387 14.1075 71.897 14.3164 71.897 14.5671V16.1342H71.252V13.2508H71.897V13.7105C72.1051 13.3553 72.4173 13.1881 72.8127 13.1881C73.0208 13.1881 73.1872 13.2508 73.3329 13.3553C73.4786 13.4597 73.5826 13.606 73.645 13.794C73.8531 13.397 74.1861 13.1881 74.6023 13.1881C75.2266 13.1881 75.5595 13.5851 75.5595 14.3582V16.1342H75.5387Z" fill="white"/>
<path d="M78.7653 14.8805H76.8092C76.8092 15.1522 76.8924 15.3611 77.0589 15.5074C77.2045 15.6536 77.4335 15.7163 77.704 15.7163C78.0161 15.7163 78.2866 15.6327 78.5572 15.4447V15.967C78.2866 16.1342 77.9537 16.2178 77.5167 16.2178C77.0797 16.2178 76.7675 16.0924 76.5178 15.8208C76.2681 15.5491 76.1641 15.1939 76.1641 14.7134C76.1641 14.2746 76.2889 13.8985 76.5594 13.606C76.83 13.3135 77.1629 13.1881 77.5375 13.1881C77.9121 13.1881 78.2242 13.3135 78.4531 13.5642C78.6612 13.8149 78.7861 14.1701 78.7861 14.6298V14.8805H78.7653ZM78.141 14.4209C78.141 14.191 78.0785 14.003 77.9745 13.8776C77.8705 13.7523 77.7248 13.6896 77.5167 13.6896C77.3086 13.6896 77.1629 13.7523 77.0381 13.8985C76.9132 14.0448 76.83 14.2119 76.7884 14.4418H78.1202L78.141 14.4209Z" fill="white"/>
<path d="M113.496 23.1546C112.997 24.3665 112.414 28.399 114.932 28.5453C116.014 28.608 117.637 26.5812 117.929 24.6381C118.053 23.8441 117.346 22.6531 116.014 22.0263C115.411 21.7547 114.058 21.7338 113.475 23.1546H113.496Z" fill="#FBB99D"/>
<path d="M113.599 26.5813C113.599 26.5813 115.035 28.3155 113.599 29.7363C112.164 31.1571 117.387 30.4676 117.387 30.4676L116.783 25.3485L113.599 26.5813Z" fill="#FBB99D"/>
<path d="M120.051 35.0016C119.76 34.0405 119.884 32.8286 120.904 32.3689C121.487 32.1182 122.194 32.7032 122.756 33.2883C124.067 34.7091 127.043 41.3952 125.399 43.0667C123.838 44.6338 121.008 38.073 120.072 35.0016H120.051Z" fill="#FBB99D"/>
<path d="M120.57 44.1322C120.57 44.1322 117.511 45.6366 117.262 45.8246C115.701 47.0783 114.681 47.3917 115.035 47.5797C115.659 47.9558 117.782 46.9738 118.115 46.8275C118.51 46.6604 119.468 46.1171 119.78 45.9082C120.092 45.6784 120.591 44.1322 120.591 44.1322H120.57Z" fill="#FBB99D"/>
<path d="M125.252 43.1711C123.775 44.5919 118.094 46.8485 118.094 46.8485V45.177L123.754 40.6429C123.754 40.6429 126.73 41.7503 125.273 43.1711H125.252Z" fill="#FBB99D"/>
<path d="M124.587 35.4612C124.587 35.4612 122.714 29.4646 120.029 30.2586C117.345 31.0734 120.341 37.3208 120.341 37.3208C120.341 37.3208 123.421 36.9447 124.587 35.4403V35.4612Z" fill="#FEC44F"/>
<path d="M124.733 77.4165C124.733 77.4165 124.567 78.6075 125.15 79.9238C125.67 81.0521 123.193 83.8937 121.612 84.3325C120.904 84.5205 120.197 83.7056 121.133 82.8699C123.214 81.0312 122.049 78.0225 122.049 78.0225L124.713 77.3956L124.733 77.4165Z" fill="#FBB99D"/>
<path d="M125.066 79.694C125.066 79.694 123.422 84.1444 121.507 82.5774C121.507 82.5774 119.78 83.0579 119.988 83.7892C120.196 84.5205 122.027 84.6041 123.193 83.8937C124.649 82.9952 125.086 82.849 125.627 82.2013C126.772 80.8014 125.066 79.694 125.066 79.694Z" fill="#53424D"/>
<path d="M123.547 63.2713C123.693 63.6892 124.109 65.5905 124.567 67.3038C125.607 71.0648 125.004 75.8286 124.733 77.4166C124.691 77.7509 124.691 78.0643 124.691 78.3777C124.733 79.8403 123.027 80.5298 122.902 80.2791C122.028 78.3986 118.428 68.9545 118.428 64.6712C118.428 58.4239 119.593 52.0512 123.547 63.2504V63.2713Z" fill="#FBB99D"/>
<path d="M117.97 42.5443C117.97 42.5443 122.278 43.192 122.59 48.729C122.902 54.2659 129.395 80.3417 129.395 80.3417C129.395 80.3417 124.858 82.661 119.094 81.9088L112.352 42.5652H117.97V42.5443Z" fill="#94B8ED"/>
<path d="M100.99 81.1358C100.99 81.1358 100.053 81.9715 99.637 83.4132C99.2832 84.6669 95.4126 85.2519 93.8519 84.5206C93.1652 84.2072 94.0392 83.3297 95.3294 83.0998C97.4728 82.7028 98.4508 79.8195 98.4508 79.8195L100.99 81.1358Z" fill="#FBB99D"/>
<path d="M99.9902 82.5774C99.9902 82.5774 95.7242 84.9384 94.9751 83.1206C94.9751 83.1206 93.1647 83.5176 93.3311 84.3116C93.4976 85.0847 95.308 85.3563 96.6815 84.9802C98.7 84.4161 98.2006 84.6459 99.033 84.3743C100.302 83.9564 99.9694 82.5774 99.9694 82.5774H99.9902Z" fill="#53424D"/>
<path d="M109.563 69.059C109.396 69.4977 108.439 71.2737 107.669 72.9662C105.963 76.6644 102.279 80.0284 101.01 81.1357C100.76 81.3656 100.531 81.6163 100.323 81.8879C99.366 83.0789 97.5347 82.473 97.618 82.1805C98.1798 80.091 101.676 70.1455 104.548 66.7397C108.73 61.7669 113.974 57.4836 109.563 69.0799V69.059Z" fill="#FBB99D"/>
<path d="M94.9551 80.5507C96.495 81.8879 98.0349 82.6818 99.4499 83.0788C99.5748 83.1415 99.7205 83.1624 99.8453 83.2042C100.803 83.4549 101.677 83.5385 102.447 83.5385H102.634C104.153 83.5176 105.131 83.1624 105.131 83.1624C105.131 83.1624 114.058 58.4029 117.305 52.866C120.551 47.3499 115.869 42.5443 115.869 42.5443L109.688 43.401L94.9759 80.5507H94.9551Z" fill="#B3D0FF"/>
<path d="M112.85 29.59C115.742 28.9005 118.447 29.3392 120.383 30.1123C124.004 31.5749 120.674 37.4253 120.341 38.3655C118.51 43.2547 121.465 42.9622 120.882 44.0696C119.842 46.0545 114.785 46.3052 111.622 45.177C110.373 44.7382 109.374 43.9442 109.687 43.3801C111.872 39.452 110.124 37.4879 110.228 34.8971C110.332 32.2435 110.457 30.1332 112.85 29.5691V29.59Z" fill="#FF7600"/>
<path d="M109.708 32.7241C110.353 31.951 111.435 31.4077 112.371 32.0137C112.892 32.3689 112.788 33.2882 112.6 34.0613C112.122 35.9418 108.605 41.6667 105.941 41.6249C103.735 41.604 107.648 35.1687 109.708 32.7032V32.7241Z" fill="#FBB99D"/>
<path d="M111.748 36.7984C111.748 36.7984 115.764 31.9719 113.641 30.1541C111.519 28.3363 107.877 34.2284 107.877 34.2284C107.877 34.2284 109.854 36.6312 111.748 36.7984Z" fill="#FF7600"/>
<path d="M115.93 19.9787C113.683 20.1459 112.975 21.8592 113.953 23.8023C115.493 26.8738 111.394 25.7246 113.558 29.0676C115.264 31.7212 114.39 31.3242 113.225 34.3747C109.896 43.0458 122.319 44.2994 127.272 39.9117C129.706 37.7596 129.935 30.6347 124.982 26.9573C123.255 25.6619 121.382 24.0113 120.904 22.8412C120.259 21.1906 119.239 19.728 115.93 19.9787Z" fill="#53424D"/>
<path d="M101.156 37.4253C101.156 37.4253 99.3453 35.3359 98.8667 35.6075C98.3881 35.8791 99.9072 37.0492 99.9072 37.0492L101.156 37.4253Z" fill="#FBB99D"/>
<path d="M102.321 38.073C102.321 38.073 99.408 36.297 99.1167 36.1926C97.223 35.5448 96.8276 35.2314 96.8484 35.6284C96.8692 36.3597 98.4299 37.4253 98.7213 37.6134C99.075 37.8432 100.053 38.1984 100.407 38.3447C100.761 38.4909 102.342 38.073 102.342 38.073H102.321Z" fill="#FBB99D"/>
<path d="M105.464 41.5832C103.071 40.9773 98.7012 37.4671 98.7012 37.4671L99.9706 36.9447L106.713 38.9505C106.713 38.9505 107.462 42.0846 105.485 41.5832H105.464Z" fill="#FBB99D"/>
</g>
<defs>
<clipPath id="clip0_564_1403">
<rect width="146" height="117.717" fill="white" transform="translate(0 -30)"/>
</clipPath>
</defs>
</svg>
