<?xml version="1.0" encoding="UTF-8"?>
<svg id="_圖層_1" data-name="圖層 1" xmlns="http://www.w3.org/2000/svg" xmlns:xlink="http://www.w3.org/1999/xlink" viewBox="0 0 232.1 119.08">
  <defs>
    <clipPath id="clippath">
      <rect x="86" y=".08" width="146" height="119" style="fill: none;"/>
    </clipPath>
    <linearGradient id="_未命名漸層_2" data-name="未命名漸層 2" x1="117.94" y1="-625.13" x2="217.3" y2="-650.02" gradientTransform="translate(0 -583.77) scale(1 -1)" gradientUnits="userSpaceOnUse">
      <stop offset="0" stop-color="#2d9bd3"/>
      <stop offset="0" stop-color="#2b84c0"/>
      <stop offset=".3" stop-color="#3167a9"/>
      <stop offset=".4" stop-color="#365197"/>
      <stop offset=".6" stop-color="#38428a"/>
      <stop offset=".8" stop-color="#3c3882"/>
      <stop offset="1" stop-color="#3e3680"/>
    </linearGradient>
    <linearGradient id="_未命名漸層_2-2" data-name="未命名漸層 2" x1="140.2" y1="-658.59" x2="218.3" y2="-658.59" xlink:href="#_未命名漸層_2"/>
    <linearGradient id="_未命名漸層_3" data-name="未命名漸層 3" x1="125.73" y1="-609.21" x2="245.93" y2="-716.81" gradientTransform="translate(0 -583.77) scale(1 -1)" gradientUnits="userSpaceOnUse">
      <stop offset="0" stop-color="#64c5dc"/>
      <stop offset="0" stop-color="#5fc3dd"/>
      <stop offset=".2" stop-color="#3bb4de"/>
      <stop offset=".3" stop-color="#4298d1"/>
      <stop offset=".5" stop-color="#4681c3"/>
      <stop offset=".6" stop-color="#4c71b7"/>
      <stop offset=".8" stop-color="#4c68b1"/>
      <stop offset="1" stop-color="#4e65ae"/>
    </linearGradient>
    <linearGradient id="_未命名漸層_10" data-name="未命名漸層 10" x1="93.7" y1="-664.83" x2="253.7" y2="-604.03" gradientTransform="translate(0 -583.77) scale(1 -1)" gradientUnits="userSpaceOnUse">
      <stop offset="0" stop-color="#3dade4"/>
      <stop offset=".2" stop-color="#3b96d3"/>
      <stop offset=".3" stop-color="#4380c3"/>
      <stop offset=".5" stop-color="#4771b7"/>
      <stop offset=".7" stop-color="#4b68b1"/>
      <stop offset="1" stop-color="#4e65ae"/>
    </linearGradient>
    <linearGradient id="_未命名漸層_10-2" data-name="未命名漸層 10" x1="142.87" y1="-610.95" x2="148.97" y2="-663.75" xlink:href="#_未命名漸層_10"/>
    <linearGradient id="_未命名漸層_10-3" data-name="未命名漸層 10" x1="122.21" y1="-670.56" x2="174.91" y2="-644.96" xlink:href="#_未命名漸層_10"/>
    <linearGradient id="_未命名漸層_11" data-name="未命名漸層 11" x1="119.71" y1="-630.33" x2="161.81" y2="-650.13" gradientTransform="translate(0 -583.77) scale(1 -1)" gradientUnits="userSpaceOnUse">
      <stop offset="0" stop-color="#f4dd35"/>
      <stop offset=".2" stop-color="#f5c92b"/>
      <stop offset=".4" stop-color="#f5ba28"/>
      <stop offset=".7" stop-color="#f5b026"/>
      <stop offset="1" stop-color="#f5ad26"/>
    </linearGradient>
    <linearGradient id="_未命名漸層_11-2" data-name="未命名漸層 11" x1="148.51" y1="-670.16" x2="210.61" y2="-645.36" xlink:href="#_未命名漸層_11"/>
    <linearGradient id="_未命名漸層_10-4" data-name="未命名漸層 10" x1="165.38" y1="-674.61" x2="220.58" y2="-638.91" xlink:href="#_未命名漸層_10"/>
    <linearGradient id="_未命名漸層_10-5" data-name="未命名漸層 10" x1="161.08" y1="-666.81" x2="215.38" y2="-631.71" xlink:href="#_未命名漸層_10"/>
    <linearGradient id="_未命名漸層_11-3" data-name="未命名漸層 11" x1="171.59" y1="-684.22" x2="213.69" y2="-667.52" xlink:href="#_未命名漸層_11"/>
    <clipPath id="clippath-1">
      <rect y="32.08" width="106" height="46" style="fill: none;"/>
    </clipPath>
  </defs>
  <g style="clip-path: url(#clippath);">
    <g>
      <path d="M137,102.08l10.8-56.4,74-5.3,1,.2-11.8,68.8h-.9l-73.2-7.2h0l.1-.1Z" style="fill: #cdcbe5;"/>
      <path d="M135.7,102.08l10.8-56.4,75.4-5.3-11.7,69-74.5-7.2h0v-.1Z" style="fill: #fff;"/>
      <path d="M86,105.68l49.8-3.5,75.3,6.2v1l-55.8,9.7h-2.2l-66.8-12.2c-.5,0-.3-1.1-.3-1.1h0v-.1Z" style="fill: #cdcbe5;"/>
      <path d="M86.4,105.38l49.4-4.6,74.5,7.4-55,9.4h-2.2l-66.8-11.5c-.5,0-.5-.8,0-.8h.1v.1Z" style="fill: #fff;"/>
      <path d="M114.7,104.98l22.4-2.2,55.1,6.4-24.7,4.3-52.8-8.4h0v-.1Z" style="fill: #cdcbe5; isolation: isolate; opacity: .5;"/>
      <path d="M218.3,43.98s1.5-33.8-13.7-15.2c-9.6,11.7-5.3-2.9-18.3-16-18.2-18.3-57-16.8-62.1,3.6-6.1,24.4,17.5,27.4,11,36.9-6.5,9.5-13.6-5.8-20.5,5.9-10.5,18,25.5,39.5,25.5,39.5l67.3,6.7,10.8-61.5h0v.1Z" style="fill: url(#_未命名漸層_2); isolation: isolate; opacity: .5;"/>
      <path d="M140.2,98.78l9.6-50.5,68.5-4.2-10.8,61.5-67.3-6.7h0v-.1Z" style="fill: url(#_未命名漸層_2-2);"/>
      <path d="M218.3,43.98s-13.2-28.1-26.6-17.3c-7.9,6.3-4.1,19.2-22.1,4.9-34.8-27.6-75-2.6-53.3,20.6,16,17.1,23.1,25.7,9.8,25.7s-12.4,17.6,14.1,20.9l67.3,6.7,10.8-61.5h0Z" style="fill: url(#_未命名漸層_3); isolation: isolate; opacity: .7;"/>
      <path d="M176.5,28.48c0,1.1-.9,2-2,2s-2-.9-2-2,.9-2,2-2,2,.9,2,2Z" style="fill: #1b9ccb;"/>
      <path d="M163.4,22.88c.7,0,1.2-.6,1.2-1.2s-.6-1.2-1.2-1.2-1.2.6-1.2,1.2.6,1.2,1.2,1.2Z" style="fill: #1790c5;"/>
      <path d="M220.8,33.88c0,.7-.6,1.2-1.2,1.2s-1.2-.6-1.2-1.2.6-1.2,1.2-1.2,1.2.6,1.2,1.2Z" style="fill: #1790c5;"/>
      <path d="M117.9,61.38c0,.7-.6,1.2-1.2,1.2s-1.2-.6-1.2-1.2.6-1.2,1.2-1.2,1.2.6,1.2,1.2Z" style="fill: #1790c5;"/>
      <path d="M110.2,95.28c0,.7-.6,1.2-1.2,1.2s-1.2-.6-1.2-1.2.6-1.2,1.2-1.2,1.2.6,1.2,1.2Z" style="fill: #1790c5;"/>
      <path d="M121.3,71.38c0,1.2-.9,2.1-2.1,2.1s-2.1-.9-2.1-2.1.9-2.1,2.1-2.1,2.1.9,2.1,2.1Z" style="fill: url(#_未命名漸層_10);"/>
      <path d="M135.2,53.38l3.1-16.3,19.7-2-3,17.1-19.8,1.2h0Z" style="fill: #fff;"/>
      <path d="M146.4,45.08c-1.5,1.1-3.6.9-4.5-.5-1-1.4-.5-3.3,1-4.4,1.5-1.1,3.6-.9,4.5.5,1,1.4.5,3.3-1,4.4Z" style="fill: url(#_未命名漸層_10-2);"/>
      <path d="M96.5,90.78h98.8l35.9-32.7-134.7,32.7Z" style="fill: none; stroke: #fff; stroke-miterlimit: 10; stroke-width: .2px;"/>
      <path d="M151,42.28c-3.2,3.3-54.6,48.5-54.6,48.5l61.5,18.5,24.4-47.9-31.4-19.1s.1,0,.1,0Z" style="fill: none; stroke: #fff; stroke-miterlimit: 10; stroke-width: .2px;"/>
      <path d="M97.3,90.78c0,.4-.4.8-.8.8s-.8-.4-.8-.8.4-.8.8-.8.8.4.8.8Z" style="fill: #fff;"/>
      <path d="M124.1,87.48l4.2-21.7,32.9-.7-4.4,24.7-32.7-2.2h0v-.1Z" style="fill: #fff;"/>
      <path d="M128.4,83.88c.3,0,24.6,1.2,24.6,1.2l3.3-16.2-25.1.3-2.8,14.6h0v.1Z" style="fill: url(#_未命名漸層_10-3); isolation: isolate; opacity: .7;"/>
      <path d="M129.2,71.08h28.4l-1.4,4.9-27.7-.3.7-4.5h0v-.1Z" style="fill: #fff;"/>
      <path d="M127.9,77.48l28.9.6-1.5,4.9-27.9-.8.5-4.7Z" style="fill: #fff;"/>
      <path d="M230.9,57.98c0,.3.2.6.6.6s.6-.2.6-.6-.2-.6-.6-.6-.6.2-.6.6Z" style="fill: #fff;"/>
      <path d="M195.4,91.28c.3,0,.5-.2.5-.5s-.2-.5-.5-.5-.5.2-.5.5.2.5.5.5Z" style="fill: #fff;"/>
      <path d="M157.5,109.28c0,.3.2.5.5.5s.5-.2.5-.5-.2-.5-.5-.5-.5.2-.5.5Z" style="fill: #fff;"/>
      <path d="M148.6,48.28l8.4-8,6.4,7-14.9,1h.1Z" style="fill: #8ad0e7;"/>
      <path d="M128.5,57.98l1.6-8.7,9.8-.5-1.5,8.6-9.9.6Z" style="fill: url(#_未命名漸層_11);"/>
      <path d="M151.8,102.68l1.3-7.6,14.3,1-1.4,7.9-14.2-1.3h0Z" style="fill: #8ad0e7;"/>
      <path d="M164.5,83.68c2.9,2.7,7.7,2.3,10.7-.9,3-3.2,3.1-8,.2-10.8-2.9-2.7-7.7-2.3-10.7.9-3,3.2-3.1,8-.2,10.8Z" style="fill: url(#_未命名漸層_11-2);"/>
      <path d="M168.4,78.98l5.1-27.1,33-1.4-5.2,29.7s-32.9-1.2-32.9-1.2Z" style="fill: #fff;"/>
      <path d="M168.4,78.98s11.4-12.2,16.1-11.9c4.6.2,4,7.2,8,7.7,4,.6,5.2-.9,8.8,5.4l-32.9-1.2h0Z" style="fill: url(#_未命名漸層_10-4); isolation: isolate; opacity: .7;"/>
      <path d="M195.4,64.58c1.8-.4,2.9-2.2,2.4-4s-2.2-2.9-4-2.4c-1.8.4-2.9,2.2-2.4,4,.4,1.8,2.2,2.9,4,2.4Z" style="fill: url(#_未命名漸層_10-5); isolation: isolate; opacity: .7;"/>
      <path d="M181.4,96.98l6.5-8.4,5.1,8.8-11.6-.4Z" style="fill: url(#_未命名漸層_11-3);"/>
      <path d="M167.7,90.78c0,.2-.1.3-.3.3s-.3,0-.3-.3.1-.3.3-.3.3,0,.3.3Z" style="fill: #fff;"/>
      <path d="M180.9,55.28c2.3,2.2,6.1,1.8,8.5-.7,2.4-2.6,2.4-6.4.1-8.5-2.3-2.2-6.1-1.8-8.5.7-2.4,2.6-2.4,6.4-.1,8.5Z" style="fill: #8ad0e7;"/>
    </g>
  </g>
  <g style="clip-path: url(#clippath-1);">
    <g>
      <path d="M20.8,49.48s-.4-2.9-5.2-5.2c-.8-4.4-4.6-4.4-4.6-4.4,0,0,.7,1.3.7,3.4-3.6,0-5.8,2.4-5.8,2.4C3.5,41.78.1,41.18.1,41.18c.5,3.9,2.8,4.9,2.8,4.9-4.1,2-2.5,4.7-2.5,4.7,2.9-.2,5.2-3.3,5.2-3.3,0,0,.8,1,3.6,2.7-.9.7-2.2,1.6-3.4,1.9,0,0,3.7,2.3,7.2-.2,4.3,1.1,7.8-2.4,7.8-2.4h0Z" style="fill: #779fd4;"/>
      <path d="M35.1,60.68s-.3-2.2-4-4c-.6-3.4-3.5-3.4-3.5-3.4,0,0,.6,1,.5,2.6-2.7,0-4.4,1.8-4.4,1.8-1.8-3-4.5-3.5-4.5-3.5.4,3,2.2,3.7,2.2,3.7-3.2,1.5-1.9,3.6-1.9,3.6,2.2-.2,4-2.5,4-2.5,0,0,.6.8,2.8,2.1-.7.5-1.7,1.2-2.6,1.5,0,0,2.8,1.8,5.6,0,3.3.9,6-1.8,6-1.8h-.2v-.1Z" style="fill: #779fd4;"/>
      <path d="M56.6,45.98s-.6-4.2-7.6-7.5c-1.1-6.3-6.7-6.4-6.7-6.4,0,0,1,1.8,1,4.9-5.2,0-8.4,3.4-8.4,3.4-3.5-5.7-8.4-6.6-8.4-6.6.8,5.7,4.1,7.1,4.1,7.1-6,2.9-3.6,6.8-3.6,6.8,4.2-.3,7.6-4.8,7.6-4.8,0,0,1.1,1.5,5.3,3.9-1.3,1-3.2,2.3-5,2.8,0,0,5.3,3.4,10.5-.2,6.2,1.6,11.2-3.4,11.2-3.4h0Z" style="fill: #779fd4;"/>
      <path d="M106,52.68s-.8-5.6-10-9.9c-1.5-8.4-8.9-8.5-8.9-8.5,0,0,1.4,2.4,1.3,6.5-6.9,0-11.1,4.5-11.1,4.5-4.6-7.6-11.2-8.7-11.2-8.7,1,7.6,5.4,9.4,5.4,9.4-7.9,3.8-4.8,9-4.8,9,5.6-.4,10.1-6.3,10.1-6.3,0,0,1.4,2,7,5.2-1.8,1.4-4.3,3.1-6.6,3.7,0,0,7,4.5,13.9-.3,8.3,2.1,14.9-4.5,14.9-4.5h0v-.1Z" style="fill: #779fd4;"/>
      <path d="M76.6,71.28s-.8-5.6-10.1-10.1c-1.5-8.5-9-8.6-9-8.6,0,0,1.4,2.5,1.3,6.6-6.9,0-11.2,4.6-11.2,4.6-4.6-7.7-11.3-8.8-11.3-8.8,1.1,7.7,5.5,9.5,5.5,9.5-8,3.8-4.8,9.1-4.8,9.1,5.7-.4,10.2-6.4,10.2-6.4,0,0,1.5,2,7.1,5.2-1.8,1.4-4.3,3.1-6.7,3.8,0,0,7.1,4.5,14.1-.3,8.4,2.2,15.1-4.6,15.1-4.6,0,0-.2,0-.2,0Z" style="fill: #779fd4;"/>
    </g>
  </g>
</svg>