<svg width="21" height="21" viewBox="0 0 21 21" fill="none" xmlns="http://www.w3.org/2000/svg">
<g id="svg2823" clip-path="url(#clip0_121_414)">
<g id="g2833">
<g id="g2839">
<path id="Vector" d="M19.1543 16.3652H1.84569C0.828101 16.3652 0 15.5371 0 14.5195V2.54306C0 1.52516 0.828101 0.697365 1.84569 0.697365H19.1543C20.1719 0.697365 21 1.52547 21 2.54306V14.5195C21 15.5371 20.1719 16.3652 19.1543 16.3652ZM1.84569 1.92783C1.50639 1.92783 1.23046 2.20376 1.23046 2.54306V14.5195C1.23046 14.8588 1.50639 15.1347 1.84569 15.1347H19.1543C19.4936 15.1347 19.7695 14.8588 19.7695 14.5195V2.54306C19.7695 2.20376 19.4936 1.92783 19.1543 1.92783H1.84569Z" fill="white"/>
</g>
<g id="g2843">
<path id="Vector_2" d="M13.1251 20.3026H7.87498C7.69411 20.3026 7.52246 20.223 7.40556 20.0851C7.28867 19.947 7.23853 19.7646 7.26806 19.5862L7.9242 15.6487C7.97373 15.3522 8.23028 15.1347 8.53113 15.1347H12.4686C12.7695 15.1347 13.026 15.3522 13.0755 15.6487L13.7317 19.5862C13.7615 19.7646 13.7111 19.947 13.5942 20.0851C13.4773 20.2233 13.3056 20.3026 13.1248 20.3026H13.1251ZM8.60127 19.0722H12.3988L11.9475 16.3652H9.05254L8.60127 19.0722Z" fill="white"/>
</g>
<g id="g2847">
<path id="Vector_3" d="M14.4373 20.3026H6.56237C6.22246 20.3026 5.94714 20.0273 5.94714 19.6874C5.94714 19.3475 6.22246 19.0722 6.56237 19.0722H14.4373C14.7773 19.0722 15.0526 19.3475 15.0526 19.6874C15.0526 20.0273 14.7773 20.3026 14.4373 20.3026Z" fill="white"/>
</g>
<g id="g2851">
<path id="Vector_4" d="M8.53114 12.4277H3.28137C2.94145 12.4277 2.66614 12.1524 2.66614 11.8124V5.25008C2.66614 4.91016 2.94145 4.63485 3.28137 4.63485C3.62128 4.63485 3.8966 4.91016 3.8966 5.25008V11.1972H8.53145C8.87136 11.1972 9.14668 11.4725 9.14668 11.8124C9.14668 12.1524 8.87136 12.4277 8.53145 12.4277H8.53114Z" fill="white"/>
</g>
<g id="g2855">
<path id="Vector_5" d="M5.90625 12.4277C5.56633 12.4277 5.29102 12.1524 5.29102 11.8124V7.21882C5.29102 6.8789 5.56633 6.60358 5.90625 6.60358C6.24616 6.60358 6.52148 6.8789 6.52148 7.21882V11.8124C6.52148 12.1524 6.24616 12.4277 5.90625 12.4277Z" fill="white"/>
</g>
<g id="g2859">
<path id="Vector_6" d="M8.53112 12.4277C8.19121 12.4277 7.91589 12.1524 7.91589 11.8124V9.18756C7.91589 8.84764 8.19121 8.57233 8.53112 8.57233C8.87104 8.57233 9.14636 8.84764 9.14636 9.18756V11.8124C9.14636 12.1524 8.87104 12.4277 8.53112 12.4277Z" fill="white"/>
</g>
<g id="g2863">
<path id="Vector_7" d="M14.7656 12.0994C12.7981 12.0994 11.1973 10.4986 11.1973 8.5311C11.1973 6.56359 12.7981 4.96276 14.7656 4.96276C16.7331 4.96276 18.3339 6.56359 18.3339 8.5311C18.3339 10.4986 16.7331 12.0994 14.7656 12.0994ZM14.7656 6.19322C13.4764 6.19322 12.4277 7.24188 12.4277 8.5311C12.4277 9.82032 13.4764 10.869 14.7656 10.869C16.0548 10.869 17.1035 9.82032 17.1035 8.5311C17.1035 7.24188 16.0548 6.19322 14.7656 6.19322Z" fill="white"/>
</g>
<g id="g2867">
<path id="Vector_8" d="M17.7186 9.14633H14.7655C14.4256 9.14633 14.1503 8.87102 14.1503 8.5311V5.57799C14.1503 5.23808 14.4256 4.96276 14.7655 4.96276C15.1054 4.96276 15.3807 5.23808 15.3807 5.57799V7.91587H17.7186C18.0585 7.91587 18.3338 8.19119 18.3338 8.5311C18.3338 8.87102 18.0585 9.14633 17.7186 9.14633Z" fill="white"/>
</g>
<g id="g2871">
<path id="Vector_9" d="M12.6774 11.2344C12.5199 11.2344 12.3624 11.1744 12.2424 11.0542C12.0022 10.8139 12.0022 10.4245 12.2424 10.1842L14.3305 8.09614C14.5708 7.85589 14.9602 7.85589 15.2005 8.09614C15.4407 8.33638 15.4407 8.72583 15.2005 8.96607L13.1124 11.0542C12.9924 11.1741 12.8349 11.2344 12.6774 11.2344Z" fill="white"/>
</g>
<g id="g2875">
<path id="Vector_10" d="M10.4999 3.24011C10.16 3.24011 9.88464 2.9648 9.88464 2.62488V1.31229C9.88464 0.972372 10.16 0.697056 10.4999 0.697056C10.8398 0.697056 11.1151 0.972372 11.1151 1.31229V2.62488C11.1151 2.9648 10.8398 3.24011 10.4999 3.24011Z" fill="white"/>
</g>
</g>
</g>
<defs>
<clipPath id="clip0_121_414">
<rect width="21" height="21" fill="white"/>
</clipPath>
</defs>
</svg>
