<svg width="23" height="23" viewBox="0 0 23 23" fill="none" xmlns="http://www.w3.org/2000/svg">
<g clip-path="url(#clip0_478_1278)">
<path d="M9.77439 0C9.49984 0 9.26339 0.193368 9.21021 0.462933L8.98956 1.55844C8.02866 1.8086 7.11518 2.19246 6.26495 2.70428L5.31411 2.07601C5.08628 1.92362 4.78226 1.95381 4.58821 2.14789L2.14749 4.58907C1.9556 4.78244 1.92541 5.08364 2.07562 5.31079L2.69946 6.24456C2.19061 7.10214 1.81401 8.02441 1.57037 8.99125L0.462846 9.21193C0.193332 9.26585 0 9.50235 0 9.77622V13.2231C0 13.4977 0.193332 13.7342 0.462846 13.7873L1.55815 14.0037C1.80826 14.9662 2.19564 15.8856 2.70808 16.7375L2.07562 17.6885C1.92325 17.9164 1.95344 18.2204 2.14749 18.4145L4.58821 20.8514C4.78226 21.0455 5.08556 21.0757 5.31411 20.9233L6.24339 20.3036C7.10081 20.8119 8.02722 21.1892 8.99388 21.4329L9.21021 22.5364C9.26411 22.8059 9.50056 22.9993 9.77439 22.9993H13.2249C13.4994 22.9993 13.7359 22.8059 13.7891 22.5364L14.0054 21.4452C14.9807 21.2051 15.9114 20.8298 16.7767 20.3202L17.6852 20.9233C17.913 21.0757 18.217 21.0455 18.4111 20.8514L20.8518 18.4145C21.0458 18.2204 21.076 17.9171 20.9237 17.6885L20.3171 16.7756C20.8266 15.9094 21.2061 14.9799 21.4462 14.0037L22.5372 13.7873C22.8067 13.7334 23 13.4969 23 13.2231V9.77622C23 9.50163 22.8067 9.26513 22.5372 9.21193L21.4677 8.99988C21.2155 8.028 20.8245 7.10358 20.3049 6.24456L20.9244 5.31079C21.0739 5.08364 21.0437 4.78244 20.8525 4.58907L18.4118 2.14789C18.2177 1.95381 17.9144 1.92362 17.6859 2.07601L16.7652 2.69134C15.9035 2.18168 14.9778 1.79998 14.0061 1.55773L13.7898 0.462214C13.7359 0.193368 13.4994 0 13.2256 0H9.77511H9.77439ZM10.2459 1.15014H12.7541L12.941 2.07529C12.9863 2.30101 13.1616 2.47784 13.3866 2.52528C14.5035 2.75603 15.57 3.19596 16.5273 3.8156C16.7192 3.93852 16.9658 3.93709 17.1555 3.81129L17.9324 3.29372L19.7069 5.06854L19.1808 5.85423C19.0529 6.04688 19.0529 6.29776 19.1808 6.49112C19.8133 7.44503 20.2625 8.50531 20.5054 9.62383C20.5542 9.84739 20.7311 10.0206 20.9553 10.0652L21.8508 10.2478V12.7522L20.9301 12.9391C20.703 12.9851 20.5262 13.162 20.4802 13.3891C20.2524 14.5119 19.8147 15.5809 19.1945 16.5434C19.0716 16.7353 19.073 16.9819 19.1988 17.1716L19.7083 17.9315L17.9338 19.7063L17.1742 19.2009C16.983 19.073 16.7343 19.0715 16.5417 19.1966C15.5794 19.8177 14.5107 20.2504 13.388 20.4783C13.1602 20.525 12.9827 20.704 12.9381 20.9326L12.7556 21.8499H10.2473L10.0604 20.9204C10.0152 20.6947 9.83979 20.5178 9.61484 20.4704C8.50156 20.2375 7.44075 19.7997 6.48703 19.1801C6.29442 19.055 6.04575 19.0564 5.85457 19.1844L5.06903 19.7063L3.29454 17.9315L3.82926 17.1292C3.95863 16.9373 3.96007 16.6864 3.83357 16.4923C3.20758 15.5442 2.76342 14.4911 2.52194 13.3805C2.47306 13.1569 2.29626 12.9837 2.07203 12.9391L1.15137 12.7522V10.2478L2.08496 10.0609C2.31064 10.0156 2.48744 9.8402 2.53487 9.6152C2.76773 8.50172 3.20543 7.44071 3.82495 6.48681C3.95 6.29416 3.94857 6.04544 3.82064 5.85423L3.29454 5.06854L5.06903 3.29372L5.8711 3.82854C6.06372 3.95649 6.31454 3.95649 6.50787 3.82854C7.45585 3.20243 8.51306 2.75819 9.62346 2.51666C9.84698 2.46778 10.0202 2.29094 10.0647 2.06666L10.2473 1.14943L10.2459 1.15014Z" fill="white"/>
<path d="M11.498 4.02408C7.37692 4.02408 4.02344 7.37747 4.02344 11.5C4.02344 15.6226 7.3762 18.9759 11.498 18.9759C15.6197 18.9759 18.9725 15.6226 18.9725 11.5C18.9725 7.37747 15.6197 4.02408 11.498 4.02408ZM11.498 5.17494C14.9981 5.17494 17.8262 7.99998 17.8262 11.5C17.8262 15 14.9973 17.8251 11.498 17.8251C7.9986 17.8251 5.17408 15 5.17408 11.5C5.17408 7.99998 7.9986 5.17494 11.498 5.17494Z" fill="white"/>
<path d="M11.4984 6.32507C9.91723 6.32507 8.625 7.61755 8.625 9.199C8.625 10.7804 9.91723 12.0772 11.4984 12.0772C13.0795 12.0772 14.3761 10.7804 14.3761 9.199C14.3761 7.61755 13.0795 6.32507 11.4984 6.32507ZM11.4984 7.47594C12.4579 7.47594 13.2262 8.24006 13.2262 9.19971C13.2262 10.1594 12.4579 10.9278 11.4984 10.9278C10.5389 10.9278 9.77493 10.1594 9.77493 9.19971C9.77493 8.24006 10.5389 7.47594 11.4984 7.47594Z" fill="white"/>
<path d="M11.4972 12.6501C9.02704 12.6501 6.98879 14.6169 6.90039 17.0861L8.05032 17.1285C8.11716 15.266 9.63363 13.8003 11.4965 13.8003C13.3594 13.8003 14.8823 15.2646 14.947 17.1285L16.0926 17.0904C16.0064 14.6198 13.9674 12.6501 11.4958 12.6501H11.4972Z" fill="white"/>
</g>
<defs>
<clipPath id="clip0_478_1278">
<rect width="23" height="23" fill="white"/>
</clipPath>
</defs>
</svg>
