<svg width="21" height="21" viewBox="0 0 21 21" fill="none" xmlns="http://www.w3.org/2000/svg">
<g clip-path="url(#clip0_483_1305)">
<path d="M12.2997 21H8.70078C8.25291 21 7.87693 20.6634 7.8274 20.2182L7.54355 17.6604L5.53744 19.2729C5.18862 19.5536 4.6843 19.527 4.3669 19.2106L1.81652 16.6714C1.49913 16.3556 1.47037 15.8513 1.74942 15.5014L3.37529 13.4602L0.781782 13.1726C0.336571 13.1231 0 12.7471 0 12.2992V8.70025C0 8.25238 0.336571 7.8764 0.781782 7.82687L3.33961 7.54302L1.72706 5.53744C1.4464 5.18862 1.47303 4.6843 1.78936 4.3669L4.32856 1.81652C4.64436 1.49913 5.14868 1.47037 5.49857 1.74942L7.53983 3.37529L7.8274 0.781782C7.87693 0.336571 8.25291 0 8.70078 0H12.2997C12.7476 0 13.1236 0.336571 13.1731 0.781782L13.457 3.33961L15.4626 1.72706C15.8114 1.4464 16.3157 1.47303 16.6331 1.78936L19.1835 4.32856C19.5009 4.64436 19.5296 5.14868 19.2506 5.49857L17.6247 7.53983L20.2182 7.8274C20.6634 7.87693 21 8.25291 21 8.70078V12.2997C21 12.7476 20.6634 13.1236 20.2182 13.1731L17.6604 13.457L19.2729 15.4626C19.5536 15.8114 19.527 16.3157 19.2106 16.6331L16.6714 19.1835C16.3556 19.5009 15.8513 19.5296 15.5014 19.2506L13.4602 17.6247L13.1726 20.2188C13.1231 20.664 12.7471 21.0005 12.2992 21.0005L12.2997 21ZM9.48789 19.2426H11.5132L11.7826 16.8142C11.8205 16.4744 12.0521 16.1868 12.3759 16.0782C12.6315 15.9924 12.885 15.887 13.1295 15.7645C13.4357 15.6111 13.8026 15.65 14.0705 15.863L15.9823 17.3861L17.4112 15.9509L15.8795 14.046C15.6649 13.7792 15.625 13.4122 15.7768 13.1055C15.8939 12.8685 15.9956 12.623 16.0787 12.3759C16.1879 12.0516 16.4749 11.8205 16.8147 11.7826L19.2431 11.5132V9.48789L16.8147 9.21842C16.4749 9.18061 16.1874 8.94895 16.0787 8.62463C15.993 8.36901 15.8875 8.11604 15.765 7.8716C15.6117 7.56539 15.6505 7.19846 15.8636 6.93059L17.3867 5.01874L15.9514 3.58991L14.0465 5.12152C13.7797 5.33614 13.4128 5.37608 13.106 5.2243C12.8685 5.10714 12.6235 5.00543 12.3764 4.92235C12.0521 4.81371 11.8205 4.52613 11.7826 4.18637L11.5132 1.75794H9.48736L9.21789 4.18637C9.18008 4.52613 8.94842 4.81371 8.62463 4.92235C8.36901 5.00809 8.11551 5.11353 7.87107 5.23602C7.56486 5.38939 7.19793 5.35052 6.93006 5.1375L5.01821 3.61441L3.58938 5.04963L5.12099 6.95456C5.33561 7.22136 5.37555 7.58829 5.22377 7.89504C5.10661 8.13202 5.0049 8.37753 4.92182 8.62463C4.81264 8.94895 4.5256 9.18061 4.18583 9.21789L1.75741 9.48736V11.5126L4.18583 11.7821C4.5256 11.8199 4.81318 12.0516 4.92182 12.3754C5.00756 12.6305 5.113 12.884 5.23549 13.1284C5.38886 13.4346 5.34999 13.8015 5.13697 14.0694L3.61388 15.9813L5.0491 17.4101L6.95402 15.8785C7.22083 15.6644 7.58722 15.6239 7.89397 15.7757C8.13149 15.8934 8.37699 15.9946 8.62356 16.0777C8.94789 16.1863 9.17955 16.4739 9.21736 16.8136L9.48683 19.2421L9.48789 19.2426Z" fill="white"/>
<path d="M10.501 6.11792C8.08478 6.11792 6.11914 8.08356 6.11914 10.4997C6.11914 12.9159 8.08478 14.8815 10.501 14.8815C12.9171 14.8815 14.8828 12.9159 14.8828 10.4997C14.8828 8.08356 12.9171 6.11792 10.501 6.11792ZM12.1428 12.6432C11.8691 12.9596 11.4297 13.1785 10.927 13.2567V13.5422C10.927 13.7776 10.7363 13.9682 10.501 13.9682C10.2656 13.9682 10.0749 13.7776 10.0749 13.5422V13.2498C9.31071 13.1103 8.72171 12.6049 8.54543 11.8961C8.48845 11.6676 8.62745 11.4365 8.85591 11.3795C9.08437 11.3225 9.3155 11.4615 9.37248 11.69C9.51414 12.2582 10.0989 12.4473 10.5542 12.4361C10.952 12.4265 11.3232 12.2891 11.4989 12.0851C11.5964 11.9722 11.6326 11.8423 11.6124 11.6761C11.5788 11.4003 11.4148 11.0632 10.4365 10.9023C9.0455 10.6739 8.72117 9.95334 8.69348 9.38884C8.65567 8.60812 9.19781 7.95468 10.0424 7.76296C10.0531 7.7603 10.0643 7.75817 10.0749 7.75604V7.45675C10.0749 7.22136 10.2656 7.03071 10.501 7.03071C10.7363 7.03071 10.927 7.22136 10.927 7.45675V7.75231C11.4894 7.86362 12.0304 8.2103 12.3095 8.87386C12.4006 9.09061 12.2988 9.34037 12.0816 9.43144C11.8648 9.52251 11.615 9.42026 11.524 9.20351C11.2849 8.63421 10.7023 8.4867 10.231 8.59374C9.88533 8.67202 9.52319 8.91114 9.5445 9.3473C9.55195 9.49748 9.57112 9.89635 10.5744 10.0609C11.7253 10.25 12.359 10.7586 12.4581 11.5728C12.5071 11.977 12.3984 12.3466 12.1433 12.6416L12.1428 12.6432Z" fill="white"/>
</g>
<defs>
<clipPath id="clip0_483_1305">
<rect width="21" height="21" fill="white"/>
</clipPath>
</defs>
</svg>
