<svg width="21" height="21" viewBox="0 0 21 21" fill="none" xmlns="http://www.w3.org/2000/svg">
<g id="_?&#238;&#161;&#188;&#230;&#131;&#156;_1" clip-path="url(#clip0_4_216)">
<g id="Icon">
<path id="Vector" fill-rule="evenodd" clip-rule="evenodd" d="M16.1165 7.56956V1.70914C16.1165 1.25587 15.9366 0.821375 15.6156 0.500883C15.2951 0.179475 14.8606 0 14.4073 0H2.68624C1.97427 0 1.29024 0.283406 0.786596 0.786121C0.283413 1.29021 0 1.97377 0 2.68618V17.8258C0 18.23 0.328282 18.5583 0.732569 18.5583C1.13686 18.5583 1.46514 18.23 1.46514 17.8258V2.68618C1.46514 2.36203 1.59425 2.05206 1.82272 1.82268C2.05211 1.59422 2.36208 1.46511 2.68624 1.46511H14.4073C14.4719 1.46511 14.5342 1.49029 14.5804 1.53653C14.6267 1.58277 14.6518 1.64504 14.6518 1.7096V7.57002C14.6518 7.9743 14.9801 8.30257 15.3844 8.30257C15.7887 8.30257 16.117 7.9743 16.117 7.57002L16.1165 7.56956Z" fill="white"/>
<path id="Vector_2" fill-rule="evenodd" clip-rule="evenodd" d="M7.56973 15.1396H2.93028C1.31176 15.1396 0 16.4513 0 18.0698C0 18.8472 0.308595 19.5926 0.858479 20.1411C1.40745 20.691 2.15284 20.9995 2.93028 20.9995H11.4771C11.8814 20.9995 12.2096 20.6713 12.2096 20.267C12.2096 19.8627 11.8814 19.5344 11.4771 19.5344H2.93028C2.54156 19.5344 2.16932 19.3801 1.89415 19.1054C1.61989 18.8298 1.46514 18.458 1.46514 18.0693C1.46514 17.2608 2.1217 16.6042 2.93028 16.6042H7.56973C7.97401 16.6042 8.30229 16.2759 8.30229 15.8717C8.30229 15.4674 7.97401 15.1391 7.56973 15.1391V15.1396Z" fill="white"/>
<path id="Vector_3" fill-rule="evenodd" clip-rule="evenodd" d="M4.63943 5.3719H11.4766C11.8809 5.3719 12.2092 5.04363 12.2092 4.63935C12.2092 4.23507 11.8809 3.9068 11.4766 3.9068H4.63943C4.23514 3.9068 3.90686 4.23507 3.90686 4.63935C3.90686 5.04363 4.23514 5.3719 4.63943 5.3719Z" fill="white"/>
<path id="Vector_4" fill-rule="evenodd" clip-rule="evenodd" d="M14.4073 9.27915C11.5768 9.27915 9.2793 11.5766 9.2793 14.407C9.2793 17.2374 11.5768 19.5349 14.4073 19.5349C17.2377 19.5349 19.5353 17.2374 19.5353 14.407C19.5353 11.5766 17.2377 9.27915 14.4073 9.27915ZM14.4073 10.7443C16.4292 10.7443 18.0701 12.3852 18.0701 14.407C18.0701 16.4289 16.4292 18.0698 14.4073 18.0698C12.3854 18.0698 10.7444 16.4289 10.7444 14.407C10.7444 12.3852 12.3854 10.7443 14.4073 10.7443Z" fill="white"/>
<path id="Vector_5" fill-rule="evenodd" clip-rule="evenodd" d="M20.7853 19.7496L18.3436 17.3079C18.0583 17.0218 17.5936 17.0218 17.3084 17.3079C17.0222 17.5932 17.0222 18.0579 17.3084 18.3431L19.7501 20.7848C20.0354 21.071 20.5001 21.071 20.7853 20.7848C21.0715 20.4996 21.0715 20.0349 20.7853 19.7496Z" fill="white"/>
</g>
</g>
<defs>
<clipPath id="clip0_4_216">
<rect width="21" height="21" fill="white"/>
</clipPath>
</defs>
</svg>
