<svg width="18" height="21" viewBox="0 0 18 21" fill="none" xmlns="http://www.w3.org/2000/svg">
<g clip-path="url(#clip0_483_1310)">
<path d="M9.78033 20.0892H2.13087C0.956075 20.0892 0 19.1072 0 17.9012V10.4612C0 9.2542 0.956075 8.27185 2.13087 8.27185H11.6757C12.8509 8.27185 13.8074 9.25376 13.8074 10.4612C13.8074 10.7877 13.5501 11.0521 13.2321 11.0521C12.9141 11.0521 12.6567 10.7877 12.6567 10.4612C12.6567 9.90557 12.2163 9.45367 11.6757 9.45367H2.13087C1.59031 9.45367 1.1503 9.90557 1.1503 10.4612V17.9012C1.1503 18.4563 1.59031 18.9073 2.13087 18.9073H9.78033C10.0983 18.9073 10.3557 19.1717 10.3557 19.4982C10.3557 19.8248 10.0983 20.0892 9.78033 20.0892Z" fill="white"/>
<path d="M2.87615 8.86275C2.55817 8.86275 2.30078 8.59841 2.30078 8.27184V4.72683C2.30121 2.12048 4.3659 0 6.90369 0C9.44148 0 11.5062 2.12048 11.5062 4.72683V5.90865C11.5062 6.23522 11.2488 6.49956 10.9308 6.49956C10.6128 6.49956 10.3554 6.23522 10.3554 5.90865V4.72683C10.3554 2.77184 8.80725 1.18182 6.90369 1.18182C5.00014 1.18182 3.45194 2.77184 3.45194 4.72683V8.27184C3.45194 8.59841 3.19455 8.86275 2.87657 8.86275H2.87615Z" fill="white"/>
<path d="M12.9885 10.7052C10.2247 10.7052 7.97656 13.0146 7.97656 15.8526C7.97656 18.6906 10.2252 21 12.9885 21C15.7519 21 18.0005 18.6906 18.0005 15.8526C18.0005 13.0146 15.7524 10.7052 12.9885 10.7052ZM14.8668 18.3702C14.5539 18.7418 14.0512 18.9987 13.4758 19.0909V19.4263C13.4758 19.7026 13.2575 19.9267 12.9885 19.9267C12.7196 19.9267 12.5013 19.7026 12.5013 19.4263V19.083C11.6268 18.9188 10.9535 18.3252 10.7515 17.4929C10.6862 17.2246 10.8452 16.9532 11.1065 16.8861C11.3677 16.8195 11.632 16.9823 11.6973 17.2507C11.8593 17.9184 12.5283 18.1403 13.0487 18.1271C13.5038 18.1161 13.9279 17.9541 14.1294 17.7149C14.2411 17.5821 14.2824 17.4294 14.2592 17.2343C14.2209 16.9104 14.0336 16.5141 12.9142 16.3257C11.323 16.0574 10.9518 15.2109 10.9204 14.5481C10.877 13.6306 11.4971 12.8632 12.4635 12.6381C12.4759 12.635 12.4884 12.6324 12.5008 12.6297V12.2785C12.5008 12.0022 12.7191 11.778 12.9881 11.778C13.2571 11.778 13.4754 12.0022 13.4754 12.2785V12.6258C14.1186 12.7564 14.7378 13.1637 15.0562 13.9431C15.1602 14.1977 15.0438 14.4912 14.7954 14.5984C14.5471 14.7056 14.2617 14.5856 14.1573 14.3305C13.884 13.6615 13.2176 13.489 12.6783 13.6147C12.283 13.707 11.8692 13.9876 11.8932 14.5C11.9014 14.6765 11.9238 15.1452 13.0715 15.3385C14.3881 15.5605 15.1125 16.158 15.226 17.1143C15.2823 17.5891 15.1577 18.0234 14.8659 18.3698L14.8668 18.3702Z" fill="white"/>
</g>
<defs>
<clipPath id="clip0_483_1310">
<rect width="18" height="21" fill="white"/>
</clipPath>
</defs>
</svg>
