<svg width="21" height="21" viewBox="0 0 21 21" fill="none" xmlns="http://www.w3.org/2000/svg">
<g id="_?&#238;&#161;&#188;&#230;&#131;&#156;_1" clip-path="url(#clip0_4_152)">
<path id="Vector" d="M20.9494 20.139L17.2438 11.4933C17.1464 11.2664 16.9229 11.1189 16.6763 11.1189H14.3227C15.2753 9.45493 16.0586 7.61302 16.0586 6.05507C16.0586 -1.96972 4.94137 -2.06753 4.94137 6.05507C4.94137 7.61343 5.72465 9.45493 6.67726 11.1189H4.3237C4.07671 11.1189 3.85315 11.266 3.75616 11.4933L0.0505445 20.139C-0.123702 20.5455 0.175065 21 0.618079 21H20.3819C20.8241 21 21.1241 20.5467 20.9494 20.139ZM16.2686 12.3542L18.097 16.62C18.0399 16.65 12.0884 19.7404 12.0456 19.7647H10.7527C10.7199 19.7281 10.9977 20.0075 6.97274 15.9826L9.20876 14.8385C9.66452 15.4204 9.98383 15.7899 10.0336 15.8474C10.2797 16.1305 10.7199 16.1301 10.9656 15.8474C11.0688 15.7286 12.3279 14.2697 13.5682 12.3547H16.2686V12.3542ZM10.5 1.23822C12.5823 1.23822 14.8233 2.74562 14.8233 6.05507C14.8233 8.83767 11.7041 12.9789 10.5 14.4736C9.29589 12.9789 6.17671 8.83808 6.17671 6.05507C6.17671 2.72754 8.34781 1.23822 10.5 1.23822ZM4.73096 12.3542C7.72274 12.3542 7.38287 12.3547 7.43096 12.3534C7.77863 12.8905 8.12794 13.3919 8.45301 13.8378L2.87054 16.6948L4.73096 12.3542ZM2.10863 18.4726L5.81753 16.5744L9.00863 19.7651H1.55465L2.10863 18.4726ZM14.723 19.7651L18.5852 17.7588L19.4449 19.7651H14.7226H14.723Z" fill="white"/>
<path id="Vector_2" d="M12.3526 5.5611C12.3526 4.53946 11.5212 3.7085 10.5 3.7085C9.47875 3.7085 8.64697 4.53987 8.64697 5.5611C8.64697 6.58233 9.47834 7.4137 10.5 7.4137C11.5216 7.4137 12.3526 6.58274 12.3526 5.5611ZM9.88232 5.5611C9.88232 5.22041 10.1593 4.94343 10.5 4.94343C10.8407 4.94343 11.1177 5.22041 11.1177 5.5611C11.1177 5.90178 10.8407 6.17877 10.5 6.17877C10.1593 6.17877 9.88232 5.90178 9.88232 5.5611Z" fill="white"/>
</g>
<defs>
<clipPath id="clip0_4_152">
<rect width="21" height="21" fill="white"/>
</clipPath>
</defs>
</svg>
