<svg width="21" height="21" viewBox="0 0 21 21" fill="none" xmlns="http://www.w3.org/2000/svg">
<g id="Capa_1" clip-path="url(#clip0_3_1200)">
<path id="Vector" d="M17.0897 5.6593H13.6034V7.73611H17.0897C18.1276 7.73611 18.931 8.2657 18.931 8.72606V17.9367C18.931 18.3936 18.1276 18.9267 17.0897 18.9267H3.91034C2.87241 18.9267 2.06897 18.3936 2.06897 17.9367V8.72952C2.06897 8.27262 2.87241 7.73957 3.91034 7.73957H7.39655V5.66276H3.91034C1.71724 5.66276 0 7.00923 0 8.72952V17.9402C0 19.6605 1.71724 21.0069 3.91034 21.0069H17.0897C19.2828 21.0069 21 19.6605 21 17.9402V8.72952C21 7.00923 19.2828 5.66276 17.0897 5.66276V5.6593Z" fill="white"/>
<path id="Vector_2" d="M13.631 9.99984C13.3655 9.99984 13.1034 10.1002 12.9 10.3044L11.6034 11.6059V1.0384C11.6034 0.463821 11.1414 0 10.569 0C9.99654 0 9.53447 0.463821 9.53447 1.0384V11.6717L8.16895 10.301C7.9655 10.0968 7.70343 9.99637 7.43792 9.99637C7.1724 9.99637 6.91033 10.0968 6.70688 10.301C6.30343 10.706 6.30343 11.3636 6.70688 11.7686L9.79654 14.87C9.99999 15.0742 10.2621 15.1746 10.5276 15.1746H10.5448C10.8103 15.1746 11.0724 15.0742 11.2758 14.87L14.3655 11.7686C14.769 11.3636 14.769 10.706 14.3655 10.301C14.1621 10.1002 13.9 9.99637 13.6345 9.99637L13.631 9.99984Z" fill="white"/>
</g>
<defs>
<clipPath id="clip0_3_1200">
<rect width="21" height="21" fill="white"/>
</clipPath>
</defs>
</svg>
