<svg width="21" height="21" viewBox="0 0 21 21" fill="none" xmlns="http://www.w3.org/2000/svg">
<g id="_?&#238;&#161;&#188;&#230;&#131;&#156;_1" clip-path="url(#clip0_153_3477)">
<g id="Icon">
<path id="Vector" fill-rule="evenodd" clip-rule="evenodd" d="M10.4997 19.5349C10.904 19.5349 11.2322 19.8632 11.2322 20.2674C11.2322 20.6717 10.904 21 10.4997 21H2.68609C1.97414 21 1.29012 20.7166 0.786487 20.2139C0.283315 19.7098 0.000366211 19.0262 0.000366211 18.3143V2.68618C0.000366211 1.97423 0.283773 1.29021 0.786487 0.786579C1.29012 0.283406 1.97368 0 2.68609 0H11.0724C11.5257 0 11.9602 0.179933 12.2807 0.500883L16.5922 4.81241C16.9136 5.13291 17.0931 5.5674 17.0931 6.02067V9.52319C17.0931 9.92746 16.7648 10.2557 16.3606 10.2557C15.9563 10.2557 15.628 9.92746 15.628 9.52319V6.02067C15.628 5.95611 15.6028 5.89385 15.5566 5.8476L11.2451 1.53607C11.1993 1.49029 11.1365 1.46465 11.072 1.46465H2.68609C2.36193 1.46465 2.05197 1.59376 1.82259 1.82222C1.59413 2.05161 1.46501 2.36157 1.46501 2.68572V18.3134C1.46501 18.6375 1.59413 18.9475 1.82259 19.1769C2.05197 19.4053 2.36193 19.5344 2.68609 19.5344H10.5001L10.4997 19.5349Z" fill="white"/>
<path id="Vector_2" fill-rule="evenodd" clip-rule="evenodd" d="M10.7443 1.22107C10.7443 0.816793 11.0725 0.488518 11.4768 0.488518C11.8811 0.488518 12.2094 0.816793 12.2094 1.22107V4.6398C12.2094 4.77441 12.3188 4.88383 12.4534 4.88383H15.8721C16.2764 4.88383 16.6047 5.21211 16.6047 5.61639C16.6047 6.02067 16.2764 6.34894 15.8721 6.34894H12.4534C11.5089 6.34894 10.7443 5.58434 10.7443 4.6398V1.22107Z" fill="white"/>
<path id="Vector_3" fill-rule="evenodd" clip-rule="evenodd" d="M4.63941 9.76721C4.23514 9.76721 3.90686 9.43894 3.90686 9.03466C3.90686 8.63038 4.23514 8.30211 4.63941 8.30211H12.4535C12.8577 8.30211 13.186 8.63038 13.186 9.03466C13.186 9.43894 12.8577 9.76721 12.4535 9.76721H4.63941Z" fill="white"/>
<path id="Vector_4" fill-rule="evenodd" clip-rule="evenodd" d="M4.63941 13.186C4.23514 13.186 3.90686 12.8577 3.90686 12.4534C3.90686 12.0491 4.23514 11.7208 4.63941 11.7208H9.03473C9.43901 11.7208 9.76728 12.0491 9.76728 12.4534C9.76728 12.8577 9.43901 13.186 9.03473 13.186H4.63941Z" fill="white"/>
<path id="Vector_5" fill-rule="evenodd" clip-rule="evenodd" d="M4.63941 16.6047C4.23514 16.6047 3.90686 16.2764 3.90686 15.8721C3.90686 15.4679 4.23514 15.1396 4.63941 15.1396H9.03473C9.43901 15.1396 9.76728 15.4679 9.76728 15.8721C9.76728 16.2764 9.43901 16.6047 9.03473 16.6047H4.63941Z" fill="white"/>
<path id="Vector_6" d="M16.2247 17.459C17.0339 17.459 17.6899 16.8031 17.6899 15.9939C17.6899 15.1848 17.0339 14.5288 16.2247 14.5288C15.4156 14.5288 14.7596 15.1848 14.7596 15.9939C14.7596 16.8031 15.4156 17.459 16.2247 17.459Z" fill="white"/>
<path id="Vector_7" fill-rule="evenodd" clip-rule="evenodd" d="M17.7237 11.5198C17.7237 11.5198 18.0703 12.355 18.0694 12.355C18.2013 12.4213 18.329 12.4955 18.4531 12.5756L19.3495 12.4584C19.5917 12.4273 19.8349 12.5189 19.996 12.7034C20.4218 13.1919 20.7492 13.7592 20.9602 14.3727C21.0394 14.6044 20.9973 14.8612 20.8481 15.0553C20.8481 15.0553 20.2991 15.7732 20.2991 15.7723C20.3069 15.9197 20.3069 16.0681 20.2991 16.2146L20.8481 16.9325C20.9973 17.1271 21.0394 17.3839 20.9602 17.6151C20.7492 18.2287 20.4223 18.7959 19.996 19.2845C19.8349 19.469 19.5917 19.561 19.3495 19.5294C19.3495 19.5294 18.4531 19.4122 18.454 19.4113C18.3299 19.4923 18.2008 19.5665 18.0703 19.6329L17.7237 20.468C17.6299 20.6946 17.4289 20.8585 17.1885 20.9057C16.5516 21.0307 15.8974 21.0307 15.2605 20.9057C15.0201 20.859 14.8192 20.6946 14.7253 20.468C14.7253 20.468 14.3787 19.6329 14.3796 19.6329C14.2478 19.5665 14.1187 19.4923 13.9959 19.4122L13.0995 19.5294C12.8564 19.5605 12.6142 19.469 12.453 19.2845C12.0263 18.7959 11.6989 18.2287 11.4888 17.6151C11.4096 17.3835 11.4517 17.1266 11.6 16.9325C11.6 16.9325 12.1499 16.2146 12.1499 16.2155C12.1421 16.0681 12.1421 15.9197 12.1499 15.7732L11.6 15.0553C11.4517 14.8607 11.4096 14.6039 11.4888 14.3727C11.6989 13.7592 12.0258 13.1919 12.453 12.7034C12.6142 12.5189 12.8564 12.4268 13.0995 12.4584C13.0995 12.4584 13.9959 12.5756 13.995 12.5766C14.1191 12.4955 14.2468 12.4213 14.3787 12.355L14.7253 11.5198C14.8192 11.2932 15.0201 11.1293 15.2605 11.0821C15.8974 10.9572 16.5516 10.9572 17.1885 11.0821C17.4289 11.1288 17.6299 11.2932 17.7237 11.5198ZM16.5306 12.4671C16.3273 12.4497 16.1222 12.4484 15.9194 12.4671L15.6222 13.1809C15.548 13.3595 15.4052 13.5023 15.2257 13.5765C15.0128 13.6644 14.8137 13.7798 14.631 13.9203C14.4776 14.0385 14.2821 14.0902 14.0898 14.0659L13.3229 13.9652C13.2057 14.1332 13.1032 14.31 13.0171 14.4954L13.4868 15.1089C13.6049 15.2632 13.6567 15.4587 13.6315 15.651C13.6013 15.8785 13.6013 16.1093 13.6315 16.3368C13.6567 16.5291 13.6049 16.7246 13.4868 16.8789C13.4868 16.8789 13.0171 17.4924 13.0171 17.4934C13.1032 17.6779 13.2057 17.8555 13.3229 18.0226L14.0898 17.9219C14.2821 17.8976 14.4776 17.9494 14.631 18.0675C14.8137 18.2081 15.0128 18.3234 15.2257 18.4113C15.4057 18.4855 15.548 18.6284 15.6222 18.8069L15.9194 19.5207C16.1226 19.5395 16.3278 19.5395 16.5306 19.5207L16.8277 18.8069C16.9019 18.6284 17.0447 18.4855 17.2242 18.4113C17.4362 18.3234 17.6363 18.2081 17.819 18.0675C17.9723 17.9494 18.1678 17.8976 18.3601 17.9219L19.127 18.0226C19.2442 17.8546 19.3468 17.6779 19.4329 17.4924L18.9631 16.8789C18.845 16.7246 18.7933 16.5291 18.8184 16.3368C18.8477 16.1093 18.8477 15.8785 18.8184 15.651C18.7933 15.4587 18.845 15.2632 18.9631 15.1089C18.9631 15.1089 19.4329 14.4954 19.4329 14.4945C19.3459 14.31 19.2442 14.1323 19.127 13.9652L18.3601 14.0659C18.1678 14.0902 17.9723 14.0385 17.819 13.9203C17.6363 13.7798 17.4362 13.6644 17.2242 13.5765C17.0443 13.5023 16.9019 13.3595 16.8277 13.1809L16.5306 12.4671Z" fill="white"/>
</g>
</g>
<defs>
<clipPath id="clip0_153_3477">
<rect width="21" height="21" fill="white"/>
</clipPath>
</defs>
</svg>
