<svg width="21" height="21" viewBox="0 0 21 21" fill="none" xmlns="http://www.w3.org/2000/svg">
<g clip-path="url(#clip0_479_1284)">
<path d="M14.8268 20.8923H0.614988C0.33475 20.8923 0.107422 20.665 0.107422 20.3848V4.54809C0.107422 4.26786 0.33475 4.04053 0.614988 4.04053C0.895226 4.04053 1.12255 4.26786 1.12255 4.54809V19.8769H14.3193V16.0572C14.3193 15.777 14.5466 15.5497 14.8268 15.5497C15.1071 15.5497 15.3344 15.777 15.3344 16.0572V20.3845C15.3344 20.6647 15.1071 20.892 14.8268 20.892V20.8923Z" fill="white"/>
<path d="M14.8269 5.45003C14.5467 5.45003 14.3194 5.2227 14.3194 4.94246V1.1228H4.54858C4.26834 1.1228 4.04102 0.89547 4.04102 0.615232C4.04102 0.334994 4.26834 0.107666 4.54858 0.107666H14.8269C15.1072 0.107666 15.3345 0.334994 15.3345 0.615232V4.94246C15.3345 5.2227 15.1072 5.45003 14.8269 5.45003Z" fill="white"/>
<path d="M4.54847 5.05566H0.614988C0.33475 5.05566 0.107422 4.82834 0.107422 4.5481C0.107422 4.26786 0.33475 4.04053 0.614988 4.04053H4.0409V0.615232C4.0409 0.334994 4.26823 0.107666 4.54847 0.107666C4.82871 0.107666 5.05604 0.334994 5.05604 0.615232V4.5481C5.05604 4.82834 4.82871 5.05566 4.54847 5.05566Z" fill="white"/>
<path d="M0.614988 5.05597C0.485174 5.05597 0.355053 5.00645 0.256 4.90739C0.0578957 4.70929 0.0578957 4.38783 0.256 4.18973L4.18948 0.256244C4.38759 0.0581399 4.70904 0.0581399 4.90715 0.256244C5.10525 0.454349 5.10525 0.775807 4.90715 0.973912L0.973975 4.90739C0.874923 5.00645 0.745109 5.05597 0.614988 5.05597Z" fill="white"/>
<path d="M16.6719 10.2744C16.6719 11.2938 15.8456 12.1201 14.8262 12.1201C13.8067 12.1201 12.9805 11.2938 12.9805 10.2744C12.9805 9.25492 13.8067 8.42867 14.8262 8.42867C15.8456 8.42867 16.6719 9.25492 16.6719 10.2744Z" fill="white"/>
<path d="M15.8664 16.5651H13.7875C13.5288 16.5651 13.3117 16.3707 13.2831 16.1135L13.1191 14.636L11.9603 15.5675C11.7588 15.7296 11.4675 15.7142 11.2842 15.5315L9.811 14.0648C9.62766 13.8824 9.61105 13.5911 9.77224 13.389L10.7114 12.2099L9.2133 12.0438C8.95613 12.0152 8.76172 11.798 8.76172 11.5393V9.46041C8.76172 9.2017 8.95613 8.98453 9.2133 8.95592L10.6908 8.79196L9.75932 7.63348C9.5972 7.43199 9.61258 7.14068 9.79531 6.95734L11.262 5.48417C11.4444 5.30083 11.7357 5.28422 11.9379 5.44541L13.1169 6.38456L13.2831 4.88647C13.3117 4.6293 13.5288 4.43489 13.7875 4.43489H15.8664C16.1251 4.43489 16.3423 4.6293 16.3709 4.88647L16.5349 6.36395L17.6933 5.43249C17.8948 5.27038 18.1861 5.28576 18.3695 5.46848L19.8427 6.93519C20.026 7.11761 20.0426 7.40892 19.8814 7.61102L18.9423 8.79011L20.4403 8.95623C20.6975 8.98483 20.8919 9.20201 20.8919 9.46072V11.5396C20.8919 11.7983 20.6975 12.0155 20.4403 12.0441L18.9629 12.208L19.8943 13.3665C20.0564 13.568 20.0411 13.8593 19.8583 14.0427L18.3916 15.5158C18.2092 15.6992 17.9179 15.7158 17.7158 15.5546L16.5367 14.6154L16.3706 16.1138C16.342 16.371 16.1248 16.5654 15.8661 16.5654L15.8664 16.5651ZM14.2419 15.55H15.4118L15.5674 14.1472C15.5892 13.951 15.7231 13.7849 15.9101 13.7221C16.0577 13.6726 16.2042 13.6117 16.3454 13.5409C16.5222 13.4523 16.7342 13.4748 16.8889 13.5978L17.9933 14.4776L18.8186 13.6486L17.9339 12.5483C17.8099 12.3941 17.7869 12.1822 17.8745 12.005C17.9422 11.8681 18.001 11.7263 18.0489 11.5836C18.112 11.3962 18.2778 11.2627 18.4741 11.2409L19.8768 11.0852V9.91537L18.4741 9.75972C18.2778 9.73788 18.1117 9.60406 18.0489 9.41673C17.9994 9.26907 17.9385 9.12295 17.8678 8.98176C17.7792 8.80488 17.8016 8.59293 17.9247 8.4382L18.8044 7.33386L17.9754 6.50853L16.8751 7.39323C16.721 7.5172 16.509 7.54027 16.3318 7.4526C16.1946 7.38493 16.0531 7.32617 15.9104 7.27818C15.7231 7.21543 15.5892 7.04932 15.5674 6.85306L15.4118 5.45033H14.2416L14.0859 6.85306C14.0641 7.04932 13.9303 7.21543 13.7432 7.27818C13.5956 7.32771 13.4492 7.38862 13.308 7.45937C13.1311 7.54796 12.9191 7.52551 12.7644 7.40246L11.6601 6.52268L10.8347 7.3517L11.7194 8.45204C11.8434 8.60616 11.8665 8.81811 11.7788 8.99529C11.7111 9.13218 11.6524 9.27399 11.6044 9.41673C11.5413 9.60406 11.3755 9.73788 11.1793 9.75941L9.77654 9.91506V11.0849L11.1793 11.2406C11.3755 11.2624 11.5416 11.3962 11.6044 11.5833C11.6539 11.7306 11.7148 11.877 11.7856 12.0182C11.8742 12.1951 11.8517 12.4071 11.7287 12.5618L10.8489 13.6661L11.6779 14.4915L12.7783 13.6068C12.9324 13.4831 13.144 13.4597 13.3212 13.5474C13.4584 13.6154 13.6002 13.6738 13.7426 13.7218C13.93 13.7846 14.0638 13.9507 14.0856 14.1469L14.2413 15.5497L14.2419 15.55Z" fill="white"/>
<path d="M6.80896 8.39791H3.07666C2.75397 8.39791 2.49219 8.13613 2.49219 7.81344C2.49219 7.49075 2.75397 7.22897 3.07666 7.22897H6.80896C7.13165 7.22897 7.39343 7.49075 7.39343 7.81344C7.39343 8.13613 7.13165 8.39791 6.80896 8.39791Z" fill="white"/>
<path d="M6.80896 12.1047H3.07666C2.75397 12.1047 2.49219 11.8429 2.49219 11.5202C2.49219 11.1975 2.75397 10.9357 3.07666 10.9357H6.80896C7.13165 10.9357 7.39343 11.1975 7.39343 11.5202C7.39343 11.8429 7.13165 12.1047 6.80896 12.1047Z" fill="white"/>
<path d="M6.80896 15.8114H3.07666C2.75397 15.8114 2.49219 15.5497 2.49219 15.227C2.49219 14.9043 2.75397 14.6425 3.07666 14.6425H6.80896C7.13165 14.6425 7.39343 14.9043 7.39343 15.227C7.39343 15.5497 7.13165 15.8114 6.80896 15.8114Z" fill="white"/>
</g>
<defs>
<clipPath id="clip0_479_1284">
<rect width="21" height="21" fill="white"/>
</clipPath>
</defs>
</svg>
