<svg width="21" height="21" viewBox="0 0 21 21" fill="none" xmlns="http://www.w3.org/2000/svg">
<g id="_?&#238;&#161;&#188;&#230;&#131;&#156;_1" clip-path="url(#clip0_155_5286)">
<g id="Group">
<path id="Vector" fill-rule="evenodd" clip-rule="evenodd" d="M10.2083 19.286C10.6031 19.286 10.9229 19.6058 10.9229 20.0005C10.9229 20.3953 10.6031 20.7151 10.2083 20.7151H2.61333C1.91917 20.7151 1.25903 20.4429 0.769028 19.9529C0.272222 19.4561 0 18.7892 0 18.095V2.90499C0 2.21082 0.279028 1.54388 0.762222 1.05388C1.25222 0.563879 1.91917 0.291656 2.61333 0.291656H10.7664C11.2087 0.291656 11.6307 0.468601 11.9438 0.781657L16.136 4.97388C16.449 5.28693 16.626 5.70888 16.626 6.15124V9.55402C16.626 9.94874 16.3061 10.2686 15.9114 10.2686C15.5167 10.2686 15.1968 9.94874 15.1968 9.55402V6.15124C15.1968 6.08999 15.1696 6.02874 15.1287 5.9811L10.9365 1.78888C10.8889 1.74124 10.8276 1.72082 10.7664 1.72082H2.61333C2.30028 1.72082 1.99403 1.84332 1.77625 2.06791C1.55167 2.29249 1.42917 2.59193 1.42917 2.90499V18.1018C1.42917 18.4149 1.55167 18.7211 1.77625 18.9389C2.00083 19.1635 2.30028 19.286 2.61333 19.286H10.2083Z" fill="white"/>
<path id="Vector_2" fill-rule="evenodd" clip-rule="evenodd" d="M10.4465 1.47581C10.4465 1.08109 10.7664 0.76123 11.1611 0.76123C11.5558 0.76123 11.8757 1.08109 11.8757 1.47581V4.79693C11.8757 4.92623 11.9846 5.03512 12.1139 5.03512H15.435C15.8297 5.03512 16.1496 5.35498 16.1496 5.7497C16.1496 6.14443 15.8297 6.46429 15.435 6.46429H12.1139C11.1951 6.46429 10.4533 5.72248 10.4533 4.80373V1.47581H10.4465Z" fill="white"/>
<path id="Vector_3" fill-rule="evenodd" clip-rule="evenodd" d="M4.51207 9.7854C4.11735 9.7854 3.79749 9.46554 3.79749 9.07081C3.79749 8.67609 4.11735 8.35623 4.51207 8.35623H12.1071C12.5018 8.35623 12.8217 8.67609 12.8217 9.07081C12.8217 9.46554 12.5018 9.7854 12.1071 9.7854H4.51207Z" fill="white"/>
<path id="Vector_4" fill-rule="evenodd" clip-rule="evenodd" d="M4.51207 13.1133C4.11735 13.1133 3.79749 12.7934 3.79749 12.3987C3.79749 12.004 4.11735 11.6841 4.51207 11.6841H8.78596C9.18068 11.6841 9.50054 12.004 9.50054 12.3987C9.50054 12.7934 9.18068 13.1133 8.78596 13.1133H4.51207Z" fill="white"/>
<path id="Vector_5" fill-rule="evenodd" clip-rule="evenodd" d="M4.51207 16.4344C4.11735 16.4344 3.79749 16.1146 3.79749 15.7199C3.79749 15.3251 4.11735 15.0053 4.51207 15.0053H8.78596C9.18068 15.0053 9.50054 15.3251 9.50054 15.7199C9.50054 16.1146 9.18068 16.4344 8.78596 16.4344H4.51207Z" fill="white"/>
</g>
<g id="Layer_2">
<g id="pen">
<path id="background" d="M15.537 20.6335C18.2507 20.6335 20.4506 18.4336 20.4506 15.7199C20.4506 13.0061 18.2507 10.8062 15.537 10.8062C12.8233 10.8062 10.6234 13.0061 10.6234 15.7199C10.6234 18.4336 12.8233 20.6335 15.537 20.6335Z" fill="white"/>
<g id="Group_2">
<path id="Vector_6" d="M17.252 15.366L15.8977 14.0049C15.8977 14.0049 14.2439 15.6586 13.4545 16.4685C13.3524 16.5705 13.2776 16.7067 13.2367 16.8428C13.1074 17.2443 12.9985 17.6458 12.876 18.0542C12.842 18.163 12.8488 18.2583 12.9373 18.34C13.0189 18.4149 13.1074 18.4217 13.2095 18.3876C13.5906 18.2719 13.9785 18.163 14.3664 18.0542C14.5638 17.9997 14.7476 17.8908 14.8905 17.7411C15.6459 16.9789 17.2588 15.366 17.2588 15.366H17.252Z" fill="#1BB5DB"/>
<path id="Vector_7" d="M18.0414 13.685L17.5786 13.2222C17.3336 12.9772 16.9321 12.9772 16.6803 13.2222L16.1562 13.7462L17.5174 15.1073L18.0414 14.5833C18.2864 14.3383 18.2864 13.9368 18.0414 13.685Z" fill="#1BB5DB"/>
</g>
</g>
</g>
</g>
<defs>
<clipPath id="clip0_155_5286">
<rect width="20.4507" height="20.4167" fill="white" transform="translate(0 0.291656)"/>
</clipPath>
</defs>
</svg>
