<svg width="228" height="91" viewBox="0 0 228 91" fill="none" xmlns="http://www.w3.org/2000/svg">
<g opacity="0.5" clip-path="url(#clip0_259_1054)">
<path d="M133.046 78.9976L143.89 22.5648L217.927 17.2316L218.921 17.4286L207.13 86.2312H206.232L133.046 78.9976Z" fill="#D0CEF5"/>
<path d="M131.727 78.9976L142.572 22.5648L217.927 17.2316L206.232 86.2312L131.727 78.9976Z" fill="white"/>
<path d="M82.0219 82.6055L131.819 79.0719L207.13 85.2634V86.2311L151.339 95.9124C150.621 96.0306 149.889 96.0306 149.175 95.9124L82.3461 83.7046C81.8685 83.6214 82.0219 82.6055 82.0219 82.6055Z" fill="#D0CEF5"/>
<path d="M82.3812 82.3166L131.819 77.7627L206.337 85.1934L151.339 94.6032C150.621 94.7214 149.889 94.7214 149.175 94.6032L82.3462 83.1397C81.8686 83.0565 81.8949 82.3647 82.3768 82.3209L82.3812 82.3166Z" fill="white"/>
<path opacity="0.53" d="M110.687 81.8963L133.081 79.6763L188.149 86.056L163.485 90.3384L110.687 81.8963Z" fill="#D0CEF5"/>
<path opacity="0.49" d="M214.299 20.9096C214.299 20.9096 215.775 -12.9071 200.602 5.7549C191.05 17.503 195.291 2.90436 182.287 -10.2055C164.098 -28.5391 125.277 -27.0241 120.155 -6.59742C114.038 17.8007 137.669 20.8001 131.153 30.3019C124.638 39.8037 117.504 24.4563 110.686 36.2219C100.236 54.2534 136.179 75.6915 136.179 75.6915L203.516 82.3647L214.299 20.914V20.9096Z" fill="url(#paint0_linear_259_1054)"/>
<path d="M136.179 75.6872L145.783 25.1395L214.299 20.9097L203.515 82.3604L136.179 75.6872Z" fill="url(#paint1_linear_259_1054)"/>
<path opacity="0.71" d="M214.299 20.9096C214.299 20.9096 201.141 -7.16661 187.707 3.61376C179.793 9.96288 183.627 22.8012 165.628 8.53104C130.811 -19.0767 90.6011 5.9082 112.334 29.146C128.309 46.2273 135.447 54.8008 122.114 54.8008C110.121 54.8008 109.727 72.3638 136.179 75.6828L203.515 82.356L214.299 20.9053V20.9096Z" fill="url(#paint2_linear_259_1054)"/>
<path d="M172.498 5.39588C172.498 6.51245 171.591 7.41885 170.474 7.41885C169.356 7.41885 168.449 6.51245 168.449 5.39588C168.449 4.27932 169.356 3.37292 170.474 3.37292C171.591 3.37292 172.498 4.27932 172.498 5.39588Z" fill="#00A6DA"/>
<path d="M216.766 10.7642C216.766 11.4429 216.213 11.9946 215.534 11.9946C214.855 11.9946 214.303 11.4429 214.303 10.7642C214.303 10.0855 214.855 9.53381 215.534 9.53381C216.213 9.53381 216.766 10.0855 216.766 10.7642Z" fill="#009AD4"/>
<path d="M113.889 38.3281C113.889 39.0068 113.337 39.5585 112.658 39.5585C111.979 39.5585 111.427 39.0068 111.427 38.3281C111.427 37.6494 111.979 37.0977 112.658 37.0977C113.337 37.0977 113.889 37.6494 113.889 38.3281Z" fill="#009AD4"/>
<path d="M106.187 72.2412C106.187 72.9199 105.635 73.4716 104.955 73.4716C104.276 73.4716 103.724 72.9199 103.724 72.2412C103.724 71.5625 104.276 71.0107 104.955 71.0107C105.635 71.0107 106.187 71.5625 106.187 72.2412Z" fill="#009AD4"/>
<path d="M117.272 48.294C117.272 49.4588 116.326 50.4002 115.164 50.4002C114.003 50.4002 113.057 49.4544 113.057 48.294C113.057 47.1337 114.003 46.1879 115.164 46.1879C116.326 46.1879 117.272 47.1337 117.272 48.294Z" fill="url(#paint3_linear_259_1054)"/>
<path d="M131.153 30.302L134.246 14.022L153.968 11.9946L150.976 29.0628L131.153 30.302Z" fill="white"/>
<path d="M142.431 22.0349C140.898 23.1384 138.865 22.9326 137.892 21.5796C136.919 20.2265 137.375 18.2386 138.908 17.1396C140.442 16.0361 142.475 16.2419 143.448 17.5949C144.421 18.948 143.965 20.9359 142.431 22.0349Z" fill="url(#paint4_linear_259_1054)"/>
<path d="M92.4896 67.7179H191.282L227.15 35.0397L92.4896 67.7179Z" stroke="white" stroke-width="0.25" stroke-miterlimit="10"/>
<path d="M147.041 19.2457C143.89 22.5648 92.4896 67.718 92.4896 67.718L153.968 86.2267L178.409 38.3281L147.041 19.2457Z" stroke="white" stroke-width="0.25" stroke-miterlimit="10"/>
<path d="M93.3002 67.661C93.3002 68.1076 92.9365 68.4711 92.4896 68.4711C92.0426 68.4711 91.679 68.1076 91.679 67.661C91.679 67.2144 92.0426 66.851 92.4896 66.851C92.9365 66.851 93.3002 67.2144 93.3002 67.661Z" fill="white"/>
<path d="M120.085 64.377L124.313 42.628L157.176 41.8967L152.82 66.5795L120.085 64.377Z" fill="white"/>
<path opacity="0.71" d="M124.383 60.8171C124.686 60.7163 148.986 62.03 148.986 62.03L152.272 45.8682L127.218 46.1878L124.383 60.8171Z" fill="url(#paint5_linear_259_1054)"/>
<path d="M125.212 47.9832H153.653L152.273 52.8435L124.537 52.5151L125.212 47.9832Z" fill="white"/>
<path d="M123.91 54.376L152.794 54.9496L151.274 59.8581L123.411 59.0524L123.91 54.376Z" fill="white"/>
<path d="M226.887 34.8952C226.887 35.2017 227.137 35.4513 227.444 35.4513C227.75 35.4513 228 35.2017 228 34.8952C228 34.5887 227.75 34.3391 227.444 34.3391C227.137 34.3391 226.887 34.5887 226.887 34.8952Z" fill="white"/>
<path d="M191.392 68.1733C191.675 68.1733 191.904 67.9439 191.904 67.661C191.904 67.378 191.675 67.1487 191.392 67.1487C191.108 67.1487 190.879 67.378 190.879 67.661C190.879 67.9439 191.108 68.1733 191.392 68.1733Z" fill="white"/>
<path d="M153.517 86.2311C153.517 86.5157 153.745 86.7434 154.029 86.7434C154.314 86.7434 154.542 86.5157 154.542 86.2311C154.542 85.9464 154.314 85.7188 154.029 85.7188C153.745 85.7188 153.517 85.9464 153.517 86.2311Z" fill="white"/>
<path d="M144.631 25.2315L153.048 17.2316L159.485 24.2331L144.631 25.2315Z" fill="#7DE8FF"/>
<path d="M124.537 34.8953L126.18 26.2342L135.982 25.7087L134.479 34.2735L124.537 34.8953Z" fill="url(#paint6_linear_259_1054)"/>
<path d="M147.821 79.6018L149.122 71.9741L163.389 72.9812L161.982 80.9067L147.821 79.6018Z" fill="#7DE8FF"/>
<path d="M160.532 60.6332C163.45 63.3567 168.257 62.9583 171.267 59.7399C174.277 56.5216 174.351 51.705 171.433 48.9771C168.515 46.2535 163.708 46.652 160.698 49.8703C157.688 53.0887 157.614 57.9052 160.532 60.6332Z" fill="url(#paint7_linear_259_1054)"/>
<path d="M164.361 55.9349L169.51 28.8438L202.499 27.412L197.289 57.1083L164.361 55.9349Z" fill="white"/>
<path opacity="0.71" d="M164.361 55.9348C164.361 55.9348 175.797 43.7795 180.42 44.0204C185.043 44.2612 184.434 51.1708 188.447 51.7269C192.461 52.283 193.617 50.8687 197.294 57.1039L164.366 55.9348H164.361Z" fill="url(#paint8_linear_259_1054)"/>
<path opacity="0.71" d="M191.376 41.5206C193.145 41.1019 194.239 39.3298 193.82 37.5626C193.401 35.7954 191.627 34.7023 189.859 35.121C188.091 35.5397 186.997 37.3118 187.416 39.079C187.835 40.8462 189.608 41.9393 191.376 41.5206Z" fill="url(#paint9_linear_259_1054)"/>
<path d="M177.405 73.8525L183.877 65.4104L189.008 74.251L177.405 73.8525Z" fill="url(#paint10_linear_259_1054)"/>
<path d="M163.669 67.718C163.669 67.8756 163.542 68.0026 163.384 68.0026C163.226 68.0026 163.099 67.8756 163.099 67.718C163.099 67.5603 163.226 67.4333 163.384 67.4333C163.542 67.4333 163.669 67.5603 163.669 67.718Z" fill="white"/>
<path d="M176.893 32.2242C179.211 34.3873 183.027 34.072 185.415 31.5148C187.803 28.9577 187.864 25.1307 185.547 22.9676C183.229 20.8045 179.412 21.1198 177.024 23.6769C174.636 26.2341 174.575 30.0611 176.893 32.2242Z" fill="#7DE8FF"/>
</g>
<g clip-path="url(#clip1_259_1054)">
<path d="M17.6261 18.7358C17.6261 18.7358 17.2553 16.2719 13.1931 14.3409C12.5469 10.6372 9.26323 10.5897 9.26323 10.5897C9.26323 10.5897 9.8776 11.666 9.82993 13.4651C6.79515 13.4124 4.93085 15.4647 4.93085 15.4647C2.90767 12.1198 0 11.6133 0 11.6133C0.466074 14.953 2.39393 15.7443 2.39393 15.7443C-1.09633 17.4116 0.280704 19.733 0.280704 19.733C2.75937 19.5483 4.73489 16.9473 4.73489 16.9473C4.73489 16.9473 5.37574 17.8336 7.82263 19.2318C7.04937 19.8332 5.92126 20.5982 4.89908 20.8673C4.89908 20.8673 8.0133 22.8511 11.0428 20.7249C14.7025 21.6745 17.6314 18.7253 17.6314 18.7253L17.6261 18.7358Z" fill="#79A6E4"/>
<path d="M29.7652 28.2272C29.7652 28.2272 29.4844 26.3384 26.3649 24.8559C25.8724 22.0122 23.3513 21.9752 23.3513 21.9752C23.3513 21.9752 23.8227 22.7983 23.7856 24.1806C21.4553 24.1436 20.0253 25.7159 20.0253 25.7159C18.4681 23.1465 16.2384 22.7613 16.2384 22.7613C16.5933 25.3255 18.0762 25.9322 18.0762 25.9322C15.3963 27.2143 16.4556 28.9975 16.4556 28.9975C18.3569 28.8551 19.877 26.8608 19.877 26.8608C19.877 26.8608 20.3695 27.5414 22.2444 28.6124C21.6512 29.0767 20.7879 29.6623 19.9988 29.8681C19.9988 29.8681 22.3927 31.3876 24.7125 29.7573C27.5248 30.4854 29.7704 28.222 29.7704 28.222L29.7652 28.2272Z" fill="#79A6E4"/>
<path d="M48.0162 15.7918C48.0162 15.7918 47.4813 12.2252 41.6024 9.43425C40.6703 4.06859 35.9142 4 35.9142 4C35.9142 4 36.804 5.55641 36.7351 8.16274C32.3445 8.08888 29.6434 11.0593 29.6434 11.0593C26.7039 6.21063 22.4987 5.48255 22.4987 5.48255C23.1713 10.3153 25.9624 11.4655 25.9624 11.4655C20.9045 13.8819 22.9065 17.2427 22.9065 17.2427C26.4974 16.9789 29.3574 13.2119 29.3574 13.2119C29.3574 13.2119 30.2842 14.4939 33.8274 16.5199C32.7046 17.3904 31.0787 18.4984 29.5957 18.8888C29.5957 18.8888 34.1081 21.7589 38.4882 18.6778C43.7898 20.0548 48.0268 15.7865 48.0268 15.7865L48.0162 15.7918Z" fill="#79A6E4"/>
<path d="M90 21.4318C90 21.4318 89.2956 16.7045 81.4994 13.0008C80.2601 5.88876 73.9628 5.79907 73.9628 5.79907C73.9628 5.79907 75.1386 7.86198 75.0538 11.3177C69.2332 11.2175 65.6529 15.1587 65.6529 15.1587C61.7601 8.73251 56.1831 7.76701 56.1831 7.76701C57.0729 14.172 60.775 15.6968 60.775 15.6968C54.0752 18.8993 56.7233 23.3522 56.7233 23.3522C61.4847 22.9987 65.2716 18.013 65.2716 18.013C65.2716 18.013 66.5003 19.7118 71.1928 22.3973C69.7046 23.5527 67.5437 25.0194 65.5787 25.5365C65.5787 25.5365 71.5583 29.3405 77.363 25.2621C84.3912 27.0824 90.0053 21.4265 90.0053 21.4265L90 21.4318Z" fill="#79A6E4"/>
<path d="M65.0068 37.2069C65.0068 37.2069 64.2918 32.4216 56.395 28.6704C55.1398 21.4687 48.763 21.379 48.763 21.379C48.763 21.379 49.9547 23.4683 49.87 26.9663C43.9752 26.866 40.3472 30.8547 40.3472 30.8547C36.4068 24.3494 30.7556 23.3681 30.7556 23.3681C31.656 29.8575 35.4058 31.3981 35.4058 31.3981C28.6212 34.6428 31.3011 39.1538 31.3011 39.1538C36.1208 38.8003 39.9606 33.7459 39.9606 33.7459C39.9606 33.7459 41.2052 35.4659 45.956 38.1883C44.4518 39.3595 42.2645 40.8421 40.2731 41.3697C40.2731 41.3697 46.3267 45.2212 52.2056 41.0901C59.3239 42.9367 65.0068 37.2069 65.0068 37.2069Z" fill="#79A6E4"/>
</g>
<defs>
<linearGradient id="paint0_linear_259_1054" x1="113.898" y1="18.3719" x2="213.315" y2="43.2864" gradientUnits="userSpaceOnUse">
<stop stop-color="#1DA5E3"/>
<stop offset="0.1" stop-color="#258CCE"/>
<stop offset="0.26" stop-color="#2F6DB4"/>
<stop offset="0.42" stop-color="#3755A0"/>
<stop offset="0.59" stop-color="#3C4492"/>
<stop offset="0.77" stop-color="#3F3A89"/>
<stop offset="1" stop-color="#413787"/>
</linearGradient>
<linearGradient id="paint1_linear_259_1054" x1="136.179" y1="51.635" x2="214.299" y2="51.635" gradientUnits="userSpaceOnUse">
<stop stop-color="#1DA5E3"/>
<stop offset="0.1" stop-color="#258CCE"/>
<stop offset="0.26" stop-color="#2F6DB4"/>
<stop offset="0.42" stop-color="#3755A0"/>
<stop offset="0.59" stop-color="#3C4492"/>
<stop offset="0.77" stop-color="#3F3A89"/>
<stop offset="1" stop-color="#413787"/>
</linearGradient>
<linearGradient id="paint2_linear_259_1054" x1="121.75" y1="2.28264" x2="242.016" y2="109.956" gradientUnits="userSpaceOnUse">
<stop stop-color="#21E9FF"/>
<stop offset="0.01" stop-color="#22E4FD"/>
<stop offset="0.15" stop-color="#31BFED"/>
<stop offset="0.3" stop-color="#3DA0E0"/>
<stop offset="0.45" stop-color="#4688D5"/>
<stop offset="0.61" stop-color="#4C77CE"/>
<stop offset="0.79" stop-color="#506DCA"/>
<stop offset="1" stop-color="#526AC9"/>
</linearGradient>
<linearGradient id="paint3_linear_259_1054" x1="89.6503" y1="57.9622" x2="249.732" y2="-2.7798" gradientUnits="userSpaceOnUse">
<stop stop-color="#21B9FF"/>
<stop offset="0.15" stop-color="#30A0EE"/>
<stop offset="0.33" stop-color="#3F88DD"/>
<stop offset="0.53" stop-color="#4977D2"/>
<stop offset="0.74" stop-color="#4F6DCB"/>
<stop offset="1" stop-color="#526AC9"/>
</linearGradient>
<linearGradient id="paint4_linear_259_1054" x1="136.847" y1="4.36593" x2="142.957" y2="57.1072" gradientUnits="userSpaceOnUse">
<stop stop-color="#21B9FF"/>
<stop offset="0.15" stop-color="#30A0EE"/>
<stop offset="0.33" stop-color="#3F88DD"/>
<stop offset="0.53" stop-color="#4977D2"/>
<stop offset="0.74" stop-color="#4F6DCB"/>
<stop offset="1" stop-color="#526AC9"/>
</linearGradient>
<linearGradient id="paint5_linear_259_1054" x1="118.214" y1="63.7552" x2="170.92" y2="38.1603" gradientUnits="userSpaceOnUse">
<stop stop-color="#21B9FF"/>
<stop offset="0.15" stop-color="#30A0EE"/>
<stop offset="0.33" stop-color="#3F88DD"/>
<stop offset="0.53" stop-color="#4977D2"/>
<stop offset="0.74" stop-color="#4F6DCB"/>
<stop offset="1" stop-color="#526AC9"/>
</linearGradient>
<linearGradient id="paint6_linear_259_1054" x1="115.703" y1="23.4493" x2="157.844" y2="43.3196" gradientUnits="userSpaceOnUse">
<stop stop-color="#FFE521"/>
<stop offset="0.2" stop-color="#FFD01D"/>
<stop offset="0.43" stop-color="#FFBF1B"/>
<stop offset="0.69" stop-color="#FFB519"/>
<stop offset="1" stop-color="#FFB219"/>
</linearGradient>
<linearGradient id="paint7_linear_259_1054" x1="144.454" y1="63.3643" x2="206.609" y2="38.5898" gradientUnits="userSpaceOnUse">
<stop stop-color="#FFE521"/>
<stop offset="0.2" stop-color="#FFD01D"/>
<stop offset="0.43" stop-color="#FFBF1B"/>
<stop offset="0.69" stop-color="#FFB519"/>
<stop offset="1" stop-color="#FFB219"/>
</linearGradient>
<linearGradient id="paint8_linear_259_1054" x1="161.351" y1="67.7486" x2="216.59" y2="32.0636" gradientUnits="userSpaceOnUse">
<stop stop-color="#21B9FF"/>
<stop offset="0.15" stop-color="#30A0EE"/>
<stop offset="0.33" stop-color="#3F88DD"/>
<stop offset="0.53" stop-color="#4977D2"/>
<stop offset="0.74" stop-color="#4F6DCB"/>
<stop offset="1" stop-color="#526AC9"/>
</linearGradient>
<linearGradient id="paint9_linear_259_1054" x1="157.073" y1="59.97" x2="211.348" y2="24.9031" gradientUnits="userSpaceOnUse">
<stop stop-color="#21B9FF"/>
<stop offset="0.15" stop-color="#30A0EE"/>
<stop offset="0.33" stop-color="#3F88DD"/>
<stop offset="0.53" stop-color="#4977D2"/>
<stop offset="0.74" stop-color="#4F6DCB"/>
<stop offset="1" stop-color="#526AC9"/>
</linearGradient>
<linearGradient id="paint10_linear_259_1054" x1="167.63" y1="77.3161" x2="209.699" y2="60.5571" gradientUnits="userSpaceOnUse">
<stop stop-color="#FFE521"/>
<stop offset="0.2" stop-color="#FFD01D"/>
<stop offset="0.43" stop-color="#FFBF1B"/>
<stop offset="0.69" stop-color="#FFB519"/>
<stop offset="1" stop-color="#FFB219"/>
</linearGradient>
<clipPath id="clip0_259_1054">
<rect width="146" height="119" fill="white" transform="translate(82 -23)"/>
</clipPath>
<clipPath id="clip1_259_1054">
<rect width="90" height="39" fill="white" transform="translate(0 4)"/>
</clipPath>
</defs>
</svg>
