<svg width="36" height="35" viewBox="0 0 36 35" fill="none" xmlns="http://www.w3.org/2000/svg">
<g id="_?&#238;&#161;&#188;&#230;&#131;&#156;_1" clip-path="url(#clip0_155_5194)">
<g id="Group">
<path id="Vector" fill-rule="evenodd" clip-rule="evenodd" d="M17.5 32.5617C18.1767 32.5617 18.725 33.11 18.725 33.7867C18.725 34.4633 18.1767 35.0117 17.5 35.0117H4.48C3.29 35.0117 2.15833 34.545 1.31833 33.705C0.466667 32.8533 0 31.71 0 30.52V4.48C0 3.29 0.478333 2.14667 1.30667 1.30667C2.14667 0.466667 3.29 0 4.48 0H18.4567C19.215 0 19.9383 0.303333 20.475 0.84L27.6617 8.02667C28.1983 8.56333 28.5017 9.28667 28.5017 10.045V15.8783C28.5017 16.555 27.9533 17.1033 27.2767 17.1033C26.6 17.1033 26.0517 16.555 26.0517 15.8783V10.045C26.0517 9.94 26.005 9.835 25.935 9.75333L18.7483 2.56667C18.6667 2.485 18.5617 2.45 18.4567 2.45H4.48C3.94333 2.45 3.41833 2.66 3.045 3.045C2.66 3.43 2.45 3.94333 2.45 4.48V30.5317C2.45 31.0683 2.66 31.5933 3.045 31.9667C3.43 32.3517 3.94333 32.5617 4.48 32.5617H17.5Z" fill="#5C5C5C"/>
<path id="Vector_2" fill-rule="evenodd" clip-rule="evenodd" d="M17.9083 2.02999C17.9083 1.35333 18.4567 0.804993 19.1333 0.804993C19.81 0.804993 20.3583 1.35333 20.3583 2.02999V7.72333C20.3583 7.94499 20.545 8.13166 20.7667 8.13166H26.46C27.1367 8.13166 27.685 8.67999 27.685 9.35666C27.685 10.0333 27.1367 10.5817 26.46 10.5817H20.7667C19.1917 10.5817 17.92 9.30999 17.92 7.73499V2.02999H17.9083Z" fill="#5C5C5C"/>
<path id="Vector_3" fill-rule="evenodd" clip-rule="evenodd" d="M7.73501 16.275C7.05834 16.275 6.51001 15.7267 6.51001 15.05C6.51001 14.3733 7.05834 13.825 7.73501 13.825H20.755C21.4317 13.825 21.98 14.3733 21.98 15.05C21.98 15.7267 21.4317 16.275 20.755 16.275H7.73501Z" fill="#5C5C5C"/>
<path id="Vector_4" fill-rule="evenodd" clip-rule="evenodd" d="M7.73501 21.98C7.05834 21.98 6.51001 21.4317 6.51001 20.755C6.51001 20.0783 7.05834 19.53 7.73501 19.53H15.0617C15.7383 19.53 16.2867 20.0783 16.2867 20.755C16.2867 21.4317 15.7383 21.98 15.0617 21.98H7.73501Z" fill="#5C5C5C"/>
<path id="Vector_5" fill-rule="evenodd" clip-rule="evenodd" d="M7.73501 27.6733C7.05834 27.6733 6.51001 27.125 6.51001 26.4483C6.51001 25.7717 7.05834 25.2233 7.73501 25.2233H15.0617C15.7383 25.2233 16.2867 25.7717 16.2867 26.4483C16.2867 27.125 15.7383 27.6733 15.0617 27.6733H7.73501Z" fill="#5C5C5C"/>
</g>
<g id="Layer_2">
<g id="pen">
<path id="background" d="M26.635 34.8717C31.2871 34.8717 35.0583 31.1004 35.0583 26.4483C35.0583 21.7962 31.2871 18.025 26.635 18.025C21.9829 18.025 18.2117 21.7962 18.2117 26.4483C18.2117 31.1004 21.9829 34.8717 26.635 34.8717Z" fill="#1BB5DB"/>
<g id="Group_2">
<path id="Vector_6" d="M29.575 25.8417L27.2533 23.5083C27.2533 23.5083 24.4183 26.3433 23.065 27.7317C22.89 27.9067 22.7616 28.14 22.6916 28.3733C22.47 29.0617 22.2833 29.75 22.0733 30.45C22.015 30.6367 22.0266 30.8 22.1783 30.94C22.3183 31.0683 22.47 31.08 22.645 31.0217C23.2983 30.8233 23.9633 30.6367 24.6283 30.45C24.9666 30.3567 25.2816 30.17 25.5266 29.9133C26.8216 28.6067 29.5866 25.8417 29.5866 25.8417H29.575Z" fill="white"/>
<path id="Vector_7" d="M30.9283 22.96L30.135 22.1667C29.715 21.7467 29.0267 21.7467 28.595 22.1667L27.6967 23.065L30.03 25.3983L30.9283 24.5C31.3483 24.08 31.3483 23.3917 30.9283 22.96Z" fill="white"/>
</g>
</g>
</g>
</g>
<defs>
<clipPath id="clip0_155_5194">
<rect width="35.0583" height="35" fill="white"/>
</clipPath>
</defs>
</svg>
