<svg width="21" height="21" viewBox="0 0 21 21" fill="none" xmlns="http://www.w3.org/2000/svg">
<g clip-path="url(#clip0_569_1798)">
<path d="M14.8268 20.8923H0.614988C0.33475 20.8923 0.107422 20.665 0.107422 20.3848V4.54809C0.107422 4.26786 0.33475 4.04053 0.614988 4.04053C0.895226 4.04053 1.12255 4.26786 1.12255 4.54809V19.8769H14.3193V16.0572C14.3193 15.777 14.5466 15.5497 14.8268 15.5497C15.1071 15.5497 15.3344 15.777 15.3344 16.0572V20.3845C15.3344 20.6647 15.1071 20.892 14.8268 20.892V20.8923Z" fill="#5C5C5C"/>
<path d="M14.8269 5.45003C14.5467 5.45003 14.3194 5.2227 14.3194 4.94246V1.1228H4.54858C4.26834 1.1228 4.04102 0.89547 4.04102 0.615232C4.04102 0.334994 4.26834 0.107666 4.54858 0.107666H14.8269C15.1072 0.107666 15.3345 0.334994 15.3345 0.615232V4.94246C15.3345 5.2227 15.1072 5.45003 14.8269 5.45003Z" fill="#5C5C5C"/>
<path d="M4.54847 5.05566H0.614988C0.33475 5.05566 0.107422 4.82834 0.107422 4.5481C0.107422 4.26786 0.33475 4.04053 0.614988 4.04053H4.0409V0.615232C4.0409 0.334994 4.26823 0.107666 4.54847 0.107666C4.82871 0.107666 5.05604 0.334994 5.05604 0.615232V4.5481C5.05604 4.82834 4.82871 5.05566 4.54847 5.05566Z" fill="#5C5C5C"/>
<path d="M0.614988 5.05597C0.485174 5.05597 0.355053 5.00645 0.256 4.90739C0.0578957 4.70929 0.0578957 4.38783 0.256 4.18973L4.18948 0.256244C4.38759 0.0581399 4.70904 0.0581399 4.90715 0.256244C5.10525 0.454349 5.10525 0.775807 4.90715 0.973912L0.973975 4.90739C0.874923 5.00645 0.745109 5.05597 0.614988 5.05597Z" fill="#5C5C5C"/>
<path d="M16.6719 10.2743C16.6719 11.2938 15.8456 12.12 14.8262 12.12C13.8067 12.12 12.9805 11.2938 12.9805 10.2743C12.9805 9.25491 13.8067 8.42865 14.8262 8.42865C15.8456 8.42865 16.6719 9.25491 16.6719 10.2743Z" fill="#1BB5DB"/>
<path d="M15.8664 16.5651H13.7875C13.5288 16.5651 13.3117 16.3707 13.2831 16.1135L13.1191 14.636L11.9603 15.5675C11.7588 15.7296 11.4675 15.7142 11.2842 15.5315L9.811 14.0648C9.62766 13.8824 9.61105 13.5911 9.77224 13.389L10.7114 12.2099L9.2133 12.0437C8.95613 12.0151 8.76172 11.798 8.76172 11.5393V9.46039C8.76172 9.20169 8.95613 8.98451 9.2133 8.9559L10.6908 8.79194L9.75932 7.63346C9.5972 7.43198 9.61258 7.14066 9.79531 6.95732L11.262 5.48415C11.4444 5.30081 11.7357 5.2842 11.9379 5.44539L13.1169 6.38454L13.2831 4.88646C13.3117 4.62929 13.5288 4.43488 13.7875 4.43488H15.8664C16.1251 4.43488 16.3423 4.62929 16.3709 4.88646L16.5349 6.36393L17.6933 5.43247C17.8948 5.27036 18.1861 5.28574 18.3695 5.46846L19.8427 6.93518C20.026 7.11759 20.0426 7.4089 19.8814 7.61101L18.9423 8.7901L20.4403 8.95621C20.6975 8.98482 20.8919 9.202 20.8919 9.4607V11.5396C20.8919 11.7983 20.6975 12.0154 20.4403 12.0441L18.9629 12.208L19.8943 13.3665C20.0564 13.568 20.0411 13.8593 19.8583 14.0426L18.3916 15.5158C18.2092 15.6991 17.9179 15.7158 17.7158 15.5546L16.5367 14.6154L16.3706 16.1138C16.342 16.371 16.1248 16.5654 15.8661 16.5654L15.8664 16.5651ZM14.2419 15.55H15.4118L15.5674 14.1472C15.5892 13.951 15.7231 13.7849 15.9101 13.7221C16.0577 13.6726 16.2042 13.6117 16.3454 13.5409C16.5222 13.4523 16.7342 13.4748 16.8889 13.5978L17.9933 14.4776L18.8186 13.6486L17.9339 12.5482C17.8099 12.3941 17.7869 12.1822 17.8745 12.005C17.9422 11.8681 18.001 11.7263 18.0489 11.5836C18.112 11.3962 18.2778 11.2627 18.4741 11.2409L19.8768 11.0852V9.91536L18.4741 9.7597C18.2778 9.73786 18.1117 9.60405 18.0489 9.41671C17.9994 9.26906 17.9385 9.12294 17.8678 8.98174C17.7792 8.80486 17.8016 8.59292 17.9247 8.43819L18.8044 7.33385L17.9754 6.50851L16.8751 7.39322C16.721 7.51718 16.509 7.54026 16.3318 7.45259C16.1946 7.38491 16.0531 7.32616 15.9104 7.27817C15.7231 7.21541 15.5892 7.0493 15.5674 6.85304L15.4118 5.45031H14.2416L14.0859 6.85304C14.0641 7.0493 13.9303 7.21541 13.7432 7.27817C13.5956 7.32769 13.4492 7.3886 13.308 7.45935C13.1311 7.54795 12.9191 7.52549 12.7644 7.40244L11.6601 6.52266L10.8347 7.35169L11.7194 8.45203C11.8434 8.60614 11.8665 8.81809 11.7788 8.99528C11.7111 9.13217 11.6524 9.27398 11.6044 9.41671C11.5413 9.60405 11.3755 9.73786 11.1793 9.7594L9.77654 9.91505V11.0849L11.1793 11.2406C11.3755 11.2624 11.5416 11.3962 11.6044 11.5832C11.6539 11.7306 11.7148 11.877 11.7856 12.0182C11.8742 12.1951 11.8517 12.407 11.7287 12.5618L10.8489 13.6661L11.6779 14.4914L12.7783 13.6067C12.9324 13.4831 13.144 13.4597 13.3212 13.5474C13.4584 13.6154 13.6002 13.6738 13.7426 13.7218C13.93 13.7845 14.0638 13.9507 14.0856 14.1469L14.2413 15.5496L14.2419 15.55Z" fill="#1BB5DB"/>
<path d="M6.80896 8.39788H3.07666C2.75397 8.39788 2.49219 8.1361 2.49219 7.81341C2.49219 7.49072 2.75397 7.22894 3.07666 7.22894H6.80896C7.13165 7.22894 7.39343 7.49072 7.39343 7.81341C7.39343 8.1361 7.13165 8.39788 6.80896 8.39788Z" fill="#5C5C5C"/>
<path d="M6.80896 12.1047H3.07666C2.75397 12.1047 2.49219 11.8429 2.49219 11.5202C2.49219 11.1975 2.75397 10.9357 3.07666 10.9357H6.80896C7.13165 10.9357 7.39343 11.1975 7.39343 11.5202C7.39343 11.8429 7.13165 12.1047 6.80896 12.1047Z" fill="#5C5C5C"/>
<path d="M6.80896 15.8115H3.07666C2.75397 15.8115 2.49219 15.5497 2.49219 15.227C2.49219 14.9043 2.75397 14.6425 3.07666 14.6425H6.80896C7.13165 14.6425 7.39343 14.9043 7.39343 15.227C7.39343 15.5497 7.13165 15.8115 6.80896 15.8115Z" fill="#5C5C5C"/>
</g>
<defs>
<clipPath id="clip0_569_1798">
<rect width="21" height="21" fill="white"/>
</clipPath>
</defs>
</svg>
