<svg width="36" height="36" viewBox="0 0 36 36" fill="none" xmlns="http://www.w3.org/2000/svg">
<g id="_?&#238;&#161;&#188;&#230;&#131;&#156;_1" clip-path="url(#clip0_155_4542)">
<g id="Icon">
<path id="Vector" fill-rule="evenodd" clip-rule="evenodd" d="M27.6283 12.4763V2.42962C27.6283 1.65257 27.3198 0.907705 26.7696 0.358279C26.2202 -0.192718 25.4753 -0.500397 24.6983 -0.500397H4.60498C3.38447 -0.500397 2.21183 -0.0145466 1.34845 0.847268C0.48585 1.71144 0 2.88329 0 4.10458V30.0587C0 30.7518 0.56277 31.3145 1.25583 31.3145C1.94889 31.3145 2.51166 30.7518 2.51166 30.0587V4.10458C2.51166 3.54888 2.73301 3.0175 3.12467 2.62427C3.5179 2.23261 4.04927 2.01127 4.60498 2.01127H24.6983C24.809 2.01127 24.9157 2.05444 24.995 2.13371C25.0743 2.21299 25.1174 2.31973 25.1174 2.4304V12.4771C25.1174 13.1701 25.6802 13.7329 26.3733 13.7329C27.0663 13.7329 27.6291 13.1701 27.6291 12.4771L27.6283 12.4763Z" fill="#5C5C5C"/>
<path id="Vector_2" fill-rule="evenodd" clip-rule="evenodd" d="M12.9767 25.4537H5.02333C2.24872 25.4537 0 27.7025 0 30.4771C0 31.8098 0.529019 33.0876 1.47168 34.0279C2.41277 34.9706 3.69058 35.4996 5.02333 35.4996H19.675C20.368 35.4996 20.9308 34.9368 20.9308 34.2438C20.9308 33.5507 20.368 32.9879 19.675 32.9879H5.02333C4.35695 32.9879 3.71883 32.7234 3.24711 32.2525C2.77696 31.78 2.51166 31.1426 2.51166 30.4763C2.51166 29.0901 3.6372 27.9646 5.02333 27.9646H12.9767C13.6697 27.9646 14.2325 27.4018 14.2325 26.7088C14.2325 26.0157 13.6697 25.4529 12.9767 25.4529V25.4537Z" fill="#5C5C5C"/>
<path id="Vector_3" fill-rule="evenodd" clip-rule="evenodd" d="M7.9531 8.70878H19.6739C20.367 8.70878 20.9298 8.14601 20.9298 7.45295C20.9298 6.75988 20.367 6.19711 19.6739 6.19711H7.9531C7.26004 6.19711 6.69727 6.75988 6.69727 7.45295C6.69727 8.14601 7.26004 8.70878 7.9531 8.70878Z" fill="#5C5C5C"/>
<path id="Vector_4" fill-rule="evenodd" clip-rule="evenodd" d="M24.6981 15.4071C19.8458 15.4071 15.9072 19.3457 15.9072 24.1979C15.9072 29.0501 19.8458 32.9887 24.6981 32.9887C29.5503 32.9887 33.4889 29.0501 33.4889 24.1979C33.4889 19.3457 29.5503 15.4071 24.6981 15.4071ZM24.6981 17.9187C28.1642 17.9187 30.9772 20.7318 30.9772 24.1979C30.9772 27.664 28.1642 30.4771 24.6981 30.4771C21.232 30.4771 18.4189 27.664 18.4189 24.1979C18.4189 20.7318 21.232 17.9187 24.6981 17.9187Z" fill="#1BB5DB"/>
<path id="Vector_5" fill-rule="evenodd" clip-rule="evenodd" d="M35.6321 33.3568L31.4463 29.171C30.9573 28.6804 30.1606 28.6804 29.6716 29.171C29.1811 29.66 29.1811 30.4566 29.6716 30.9456L33.8575 35.1315C34.3465 35.622 35.1431 35.622 35.6321 35.1315C36.1227 34.6425 36.1227 33.8458 35.6321 33.3568Z" fill="#1BB5DB"/>
</g>
</g>
<defs>
<clipPath id="clip0_155_4542">
<rect width="36" height="36.0008" fill="white" transform="translate(0 -0.500397)"/>
</clipPath>
</defs>
</svg>
