<svg width="33" height="33" viewBox="0 0 33 33" fill="none" xmlns="http://www.w3.org/2000/svg">
<g clip-path="url(#clip0_569_1788)">
<path d="M14.0241 0C13.6302 0 13.291 0.277441 13.2146 0.664208L12.8981 2.23603C11.5194 2.59495 10.2087 3.14571 8.98884 3.88005L7.62459 2.97862C7.2977 2.75997 6.86151 2.80329 6.58309 3.08176L3.08118 6.58432C2.80586 6.86176 2.76255 7.29391 2.97806 7.61983L3.87313 8.95959C3.14305 10.19 2.60271 11.5133 2.25314 12.9005L0.664084 13.2171C0.277389 13.2945 0 13.6338 0 14.0268V18.9722C0 19.3662 0.277389 19.7055 0.664084 19.7818L2.23561 20.0923C2.59446 21.4733 3.15027 22.7924 3.88551 24.0146L2.97806 25.3791C2.75945 25.7061 2.80276 26.1424 3.08118 26.4208L6.58309 29.9172C6.86151 30.1957 7.29667 30.239 7.62459 30.0203L8.95791 29.1313C10.1881 29.8605 11.5173 30.402 12.9043 30.7516L13.2146 32.3348C13.292 32.7215 13.6312 32.999 14.0241 32.999H18.9748C19.3688 32.999 19.708 32.7215 19.7843 32.3348L20.0947 30.7691C21.494 30.4246 22.8294 29.8863 24.071 29.155L25.3744 30.0203C25.7013 30.239 26.1375 30.1957 26.4159 29.9172L29.9178 26.4208C30.1962 26.1424 30.2395 25.7071 30.0209 25.3791L29.1506 24.0693C29.8817 22.8265 30.4262 21.4929 30.7706 20.0923L32.3359 19.7818C32.7226 19.7045 33 19.3652 33 18.9722V14.0268C33 13.6328 32.7226 13.2934 32.3359 13.2171L30.8015 12.9129C30.4396 11.5184 29.8786 10.1921 29.1331 8.95959L30.0219 7.61983C30.2364 7.29391 30.1931 6.86176 29.9188 6.58432L26.4169 3.08176C26.1385 2.80329 25.7033 2.75997 25.3754 2.97862L24.0545 3.86148C22.8181 3.13023 21.4899 2.58257 20.0957 2.235L19.7854 0.663177C19.708 0.277441 19.3688 0 18.9759 0H14.0252H14.0241ZM14.7006 1.65021H18.2994L18.5675 2.97759C18.6325 3.30144 18.8841 3.55516 19.2069 3.62323C20.8093 3.95431 22.3396 4.58551 23.7131 5.47456C23.9885 5.65093 24.3422 5.64886 24.6144 5.46837L25.7291 4.72578L28.2751 7.27225L27.5203 8.39955C27.3367 8.67596 27.3367 9.03591 27.5203 9.31335C28.4277 10.682 29.0722 12.2033 29.4208 13.8081C29.4909 14.1289 29.7445 14.3774 30.0663 14.4414L31.3511 14.7033V18.2967L30.0302 18.5648C29.7043 18.6308 29.4507 18.8845 29.3847 19.2105C29.0578 20.8215 28.4298 22.3551 27.5399 23.7362C27.3635 24.0115 27.3656 24.3653 27.5461 24.6376L28.2772 25.7277L25.7312 28.2742L24.6412 27.5492C24.3669 27.3656 24.0101 27.3635 23.7338 27.543C22.353 28.4341 20.8196 29.055 19.2089 29.3819C18.882 29.449 18.6273 29.7058 18.5634 30.0338L18.3015 31.3498H14.7026L14.4345 30.0162C14.3696 29.6924 14.118 29.4386 13.7952 29.3706C12.1979 29.0364 10.6759 28.4083 9.30748 27.5193C9.03112 27.3398 8.67433 27.3419 8.40004 27.5254L7.27295 28.2742L4.72695 25.7277L5.49416 24.5767C5.67977 24.3014 5.68183 23.9414 5.50034 23.6629C4.60218 22.3025 3.96491 20.7916 3.61843 19.1981C3.54831 18.8773 3.29464 18.6288 2.97291 18.5648L1.65196 18.2967V14.7033L2.99147 14.4352C3.31526 14.3702 3.56893 14.1185 3.63699 13.7957C3.9711 12.1981 4.59909 10.6758 5.48797 9.30716C5.6674 9.03075 5.66533 8.6739 5.48178 8.39955L4.72695 7.27225L7.27295 4.72578L8.42376 5.49312C8.70011 5.67671 9.06 5.67671 9.33739 5.49312C10.6975 4.59479 12.2144 3.9574 13.8076 3.61086C14.1283 3.54072 14.3768 3.287 14.4407 2.96521L14.7026 1.64917L14.7006 1.65021Z" fill="#5C5C5C"/>
<path d="M16.4978 18.1502C12.9536 18.1502 10.0292 20.9721 9.90234 24.5148L11.5522 24.5757C11.6481 21.9034 13.8239 19.8004 16.4968 19.8004C19.1696 19.8004 21.3547 21.9013 21.4475 24.5757L23.0912 24.521C22.9675 20.9762 20.042 18.1502 16.4957 18.1502H16.4978Z" fill="#1BB5DB"/>
<path d="M16.4977 9.0751C14.2291 9.0751 12.375 10.9295 12.375 13.1986C12.375 15.4676 14.2291 17.3282 16.4977 17.3282C18.7663 17.3282 20.6265 15.4676 20.6265 13.1986C20.6265 10.9295 18.7663 9.0751 16.4977 9.0751ZM16.4977 10.7263C17.8743 10.7263 18.9767 11.8227 18.9767 13.1996C18.9767 14.5765 17.8743 15.679 16.4977 15.679C15.121 15.679 14.0249 14.5765 14.0249 13.1996C14.0249 11.8227 15.121 10.7263 16.4977 10.7263Z" fill="#1BB5DB"/>
<circle cx="16.5" cy="13.5" r="3.5" fill="#1BB5DB"/>
<path d="M13 20L10.5 23.5L13 26L18 26.5L22 24.5L21.5 22L19.5 20L17 19L13 20Z" fill="#1BB5DB"/>
<path d="M16.4978 5.77365C10.5849 5.77365 5.77344 10.585 5.77344 16.5C5.77344 22.4149 10.5839 27.2263 16.4978 27.2263C22.4116 27.2263 27.2221 22.4149 27.2221 16.5C27.2221 10.585 22.4116 5.77365 16.4978 5.77365ZM16.4978 7.42489C21.5196 7.42489 25.5774 11.4782 25.5774 16.5C25.5774 21.5218 21.5186 25.5751 16.4978 25.5751C11.4769 25.5751 7.42437 21.5218 7.42437 16.5C7.42437 11.4782 11.4769 7.42489 16.4978 7.42489Z" fill="#5C5C5C"/>
</g>
<defs>
<clipPath id="clip0_569_1788">
<rect width="33" height="33" fill="white"/>
</clipPath>
</defs>
</svg>
