<svg width="27" height="32" viewBox="0 0 27 32" fill="none" xmlns="http://www.w3.org/2000/svg">
<g id="Frame" clip-path="url(#clip0_258_68)">
<path id="File" d="M26.9873 12C26.9897 11.8257 26.957 11.6527 26.8913 11.4909C26.8255 11.3291 26.728 11.1818 26.6043 11.0575L15.8043 0.390834C15.6786 0.268288 15.5295 0.171599 15.3657 0.10637C15.2019 0.0411403 15.0266 0.00866755 14.85 0.0108331V0H6.75C4.96041 0.00198509 3.24468 0.705001 1.97925 1.95481C0.713814 3.20463 0.0020099 4.89917 0 6.66667V25.3333C0.0020099 27.1008 0.713814 28.7954 1.97925 30.0452C3.24468 31.295 4.96041 31.998 6.75 32H20.25C22.0396 31.998 23.7553 31.295 25.0208 30.0452C26.2862 28.7954 26.998 27.1008 27 25.3333V12H26.9873ZM16.2 4.55167L22.3914 10.6667H20.25C19.1762 10.6656 18.1467 10.2438 17.3875 9.49388C16.6282 8.74397 16.2011 7.72719 16.2 6.66667V4.55167ZM20.25 29.3333H6.75C5.67622 29.3322 4.64673 28.9104 3.88745 28.1605C3.12817 27.4106 2.70112 26.3939 2.7 25.3333V6.66667C2.70112 5.60614 3.12817 4.58936 3.88745 3.83946C4.64673 3.08955 5.67622 2.66777 6.75 2.66667H13.5V6.66667C13.502 8.43417 14.2138 10.1287 15.4792 11.3785C16.7447 12.6283 18.4604 13.3313 20.25 13.3333H24.3V25.3333C24.2989 26.3939 23.8718 27.4106 23.1126 28.1605C22.3533 28.9104 21.3238 29.3322 20.25 29.3333ZM20.25 24C20.25 24.3536 20.1078 24.6928 19.8546 24.9428C19.6014 25.1929 19.258 25.3333 18.9 25.3333H8.1C7.74196 25.3333 7.39858 25.1929 7.14541 24.9428C6.89223 24.6928 6.75 24.3536 6.75 24C6.75 23.6464 6.89223 23.3072 7.14541 23.0572C7.39858 22.8071 7.74196 22.6667 8.1 22.6667H18.9C19.258 22.6667 19.6014 22.8071 19.8546 23.0572C20.1078 23.3072 20.25 23.6464 20.25 24ZM20.25 18.6667C20.25 19.0203 20.1078 19.3594 19.8546 19.6095C19.6014 19.8595 19.258 20 18.9 20H8.1C7.74196 20 7.39858 19.8595 7.14541 19.6095C6.89223 19.3594 6.75 19.0203 6.75 18.6667C6.75 18.313 6.89223 17.9739 7.14541 17.7239C7.39858 17.4738 7.74196 17.3333 8.1 17.3333H18.9C19.258 17.3333 19.6014 17.4738 19.8546 17.7239C20.1078 17.9739 20.25 18.313 20.25 18.6667ZM6.75 13.3333C6.75 12.9797 6.89223 12.6406 7.14541 12.3905C7.39858 12.1405 7.74196 12 8.1 12H10.8C11.158 12 11.5014 12.1405 11.7546 12.3905C12.0078 12.6406 12.15 12.9797 12.15 13.3333C12.15 13.687 12.0078 14.0261 11.7546 14.2761C11.5014 14.5262 11.158 14.6667 10.8 14.6667H8.1C7.74196 14.6667 7.39858 14.5262 7.14541 14.2761C6.89223 14.0261 6.75 13.687 6.75 13.3333Z" fill="#1BB5DB"/>
</g>
<defs>
<clipPath id="clip0_258_68">
<rect width="27" height="32" fill="white"/>
</clipPath>
</defs>
</svg>
