<svg width="32" height="32" viewBox="0 0 32 32" fill="none" xmlns="http://www.w3.org/2000/svg">
<g clip-path="url(#clip0_1162_2702)">
<path d="M17.6018 9.59992C17.6018 8.71643 16.8856 8.00018 16.0021 8.00018C15.1186 8.00018 14.4023 8.71643 14.4023 9.59992V22.4001C14.4023 23.2836 15.1186 23.9998 16.0021 23.9998C16.8856 23.9998 17.6018 23.2836 17.6018 22.4001V9.59992Z" fill="#26A69A"/>
<path d="M22.4005 17.6001C23.284 17.6001 24.0003 18.3163 24.0003 19.1998V22.4001C24.0003 23.2836 23.284 23.9998 22.4005 23.9998C21.517 23.9998 20.8008 23.2836 20.8008 22.4001V19.1998C20.8008 18.3163 21.517 17.6001 22.4005 17.6001Z" fill="#26A69A"/>
<path d="M11.1995 14.3999C11.1995 13.5164 10.4832 12.8002 9.59974 12.8002C8.71624 12.8002 8 13.5164 8 14.3999V22.4001C8 23.2836 8.71624 23.9998 9.59974 23.9998C10.4832 23.9998 11.1995 23.2836 11.1995 22.4001V14.3999Z" fill="#26A69A"/>
<path fill-rule="evenodd" clip-rule="evenodd" d="M8.00019 0C3.58197 0 0 3.58197 0 8.00019V23.9998C0 28.418 3.58197 32 8.00019 32H23.9998C28.418 32 32 28.418 32 23.9998V8.00019C32 3.58197 28.418 0 23.9998 0H8.00019ZM3.20022 8.00019C3.20022 5.34896 5.34896 3.20022 8.00019 3.20022H23.9998C26.651 3.20022 28.7998 5.34896 28.7998 8.00019V23.9998C28.7998 26.651 26.651 28.7998 23.9998 28.7998H8.00019C5.34896 28.7998 3.20022 26.651 3.20022 23.9998V8.00019Z" fill="#26A69A"/>
</g>
<defs>
<clipPath id="clip0_1162_2702">
<rect width="32" height="32" fill="white"/>
</clipPath>
</defs>
</svg>
