<svg width="32" height="32" viewBox="0 0 32 32" fill="none" xmlns="http://www.w3.org/2000/svg">
<g clip-path="url(#clip0_1138_256)">
<path d="M4.75 15C5.50688 15 6.19438 14.6988 6.70062 14.2113L9.46 15.5906C9.44562 15.7044 9.4375 15.82 9.4375 15.9375C9.4375 17.4881 10.6994 18.75 12.25 18.75C13.8006 18.75 15.0625 17.4881 15.0625 15.9375C15.0625 15.5037 14.9638 15.0925 14.7875 14.7256L18.5381 10.975C18.9056 11.1513 19.3162 11.25 19.75 11.25C21.3006 11.25 22.5625 9.98812 22.5625 8.4375C22.5625 8.14437 22.5175 7.86188 22.4338 7.59625L25.6919 5.1525C26.1381 5.45062 26.6737 5.62437 27.25 5.62437C28.8006 5.62437 30.0625 4.3625 30.0625 2.81188C30.0625 1.26125 28.8006 0 27.25 0C25.6994 0 24.4375 1.26188 24.4375 2.8125C24.4375 3.10562 24.4825 3.38812 24.5662 3.65375L21.3081 6.0975C20.8619 5.79938 20.3263 5.62563 19.75 5.62563C18.1994 5.62563 16.9375 6.8875 16.9375 8.43812C16.9375 8.87187 17.0362 9.28312 17.2125 9.65L13.4619 13.4006C13.0944 13.2244 12.6838 13.1256 12.25 13.1256C11.4931 13.1256 10.8056 13.4269 10.2994 13.9144L7.54 12.535C7.55438 12.4212 7.5625 12.3056 7.5625 12.1881C7.5625 10.6375 6.30062 9.37562 4.75 9.37562C3.19938 9.37562 1.9375 10.6375 1.9375 12.1881C1.9375 13.7387 3.19938 15.0006 4.75 15.0006V15ZM27.25 1.875C27.7669 1.875 28.1875 2.29562 28.1875 2.8125C28.1875 3.32938 27.7669 3.75 27.25 3.75C26.7331 3.75 26.3125 3.32938 26.3125 2.8125C26.3125 2.29562 26.7331 1.875 27.25 1.875ZM19.75 7.5C20.2669 7.5 20.6875 7.92062 20.6875 8.4375C20.6875 8.95438 20.2669 9.375 19.75 9.375C19.2331 9.375 18.8125 8.95438 18.8125 8.4375C18.8125 7.92062 19.2331 7.5 19.75 7.5ZM12.25 15C12.7669 15 13.1875 15.4206 13.1875 15.9375C13.1875 16.4544 12.7669 16.875 12.25 16.875C11.7331 16.875 11.3125 16.4544 11.3125 15.9375C11.3125 15.4206 11.7331 15 12.25 15ZM4.75 11.25C5.26688 11.25 5.6875 11.6706 5.6875 12.1875C5.6875 12.7044 5.26688 13.125 4.75 13.125C4.23312 13.125 3.8125 12.7044 3.8125 12.1875C3.8125 11.6706 4.23312 11.25 4.75 11.25Z" fill="#26A69A"/>
<path d="M31.0625 30.125H30.0625V10.3125C30.0625 9.79438 29.6431 9.375 29.125 9.375H25.375C24.8569 9.375 24.4375 9.79438 24.4375 10.3125V30.125H22.5625V15.9375C22.5625 15.4194 22.1431 15 21.625 15H17.875C17.3569 15 16.9375 15.4194 16.9375 15.9375V30.125H15.0625V23.4375C15.0625 22.9194 14.6431 22.5 14.125 22.5H10.375C9.85688 22.5 9.4375 22.9194 9.4375 23.4375V30.125H7.5625V19.6875C7.5625 19.1694 7.14313 18.75 6.625 18.75H2.875C2.35687 18.75 1.9375 19.1694 1.9375 19.6875V30.125H0.9375C0.419375 30.125 0 30.5444 0 31.0625C0 31.5806 0.419375 32 0.9375 32H31.0625C31.5806 32 32 31.5806 32 31.0625C32 30.5444 31.5806 30.125 31.0625 30.125ZM26.3125 11.25H28.1875V30.125H26.3125V11.25ZM18.8125 16.875H20.6875V30.125H18.8125V16.875ZM11.3125 24.375H13.1875V30.125H11.3125V24.375ZM3.8125 20.625H5.6875V30.125H3.8125V20.625Z" fill="#26A69A"/>
</g>
<defs>
<clipPath id="clip0_1138_256">
<rect width="32" height="32" fill="white"/>
</clipPath>
</defs>
</svg>
