<svg width="36" height="36" viewBox="0 0 36 36" fill="none" xmlns="http://www.w3.org/2000/svg">
<g id="_?&#238;&#161;&#188;&#230;&#131;&#156;_1" clip-path="url(#clip0_153_3142)">
<g id="Icon">
<path id="Vector" fill-rule="evenodd" clip-rule="evenodd" d="M17.9998 33.4884C18.6928 33.4884 19.2556 34.0511 19.2556 34.7442C19.2556 35.4372 18.6928 36 17.9998 36H4.60507C3.38459 36 2.21198 35.5142 1.34861 34.6524C0.486031 33.7882 0.000976562 32.6164 0.000976562 31.3959V4.60488C0.000976562 3.38439 0.486816 2.21179 1.34861 1.34842C2.21198 0.48584 3.3838 0 4.60507 0H18.9817C19.7587 0 20.5036 0.308457 21.053 0.858656L28.4442 8.24985C28.9952 8.79927 29.3028 9.54412 29.3028 10.3211V16.3255C29.3028 17.0185 28.7401 17.5813 28.047 17.5813C27.354 17.5813 26.7912 17.0185 26.7912 16.3255V10.3211C26.7912 10.2105 26.748 10.1037 26.6688 10.0245L19.2776 2.63327C19.1991 2.55478 19.0916 2.51082 18.9809 2.51082H4.60507C4.04938 2.51082 3.51802 2.73216 3.12479 3.12381C2.73314 3.51704 2.5118 4.0484 2.5118 4.60409V31.3943C2.5118 31.95 2.73314 32.4814 3.12479 32.8746C3.51802 33.2663 4.04938 33.4876 4.60507 33.4876H18.0006L17.9998 33.4884Z" fill="#5C5C5C"/>
<path id="Vector_2" fill-rule="evenodd" clip-rule="evenodd" d="M18.4189 2.09327C18.4189 1.40022 18.9817 0.837463 19.6748 0.837463C20.3678 0.837463 20.9306 1.40022 20.9306 2.09327V7.95395C20.9306 8.18471 21.1181 8.37229 21.3489 8.37229H27.2096C27.9026 8.37229 28.4654 8.93505 28.4654 9.6281C28.4654 10.3211 27.9026 10.8839 27.2096 10.8839H21.3489C19.7297 10.8839 18.4189 9.57316 18.4189 7.95395V2.09327Z" fill="#5C5C5C"/>
<path id="Vector_3" fill-rule="evenodd" clip-rule="evenodd" d="M7.95307 16.7438C7.26002 16.7438 6.69727 16.181 6.69727 15.488C6.69727 14.7949 7.26002 14.2322 7.95307 14.2322H21.3486C22.0416 14.2322 22.6044 14.7949 22.6044 15.488C22.6044 16.181 22.0416 16.7438 21.3486 16.7438H7.95307Z" fill="#5C5C5C"/>
<path id="Vector_4" fill-rule="evenodd" clip-rule="evenodd" d="M7.95307 22.6045C7.26002 22.6045 6.69727 22.0417 6.69727 21.3487C6.69727 20.6556 7.26002 20.0929 7.95307 20.0929H15.4879C16.1809 20.0929 16.7437 20.6556 16.7437 21.3487C16.7437 22.0417 16.1809 22.6045 15.4879 22.6045H7.95307Z" fill="#5C5C5C"/>
<path id="Vector_5" fill-rule="evenodd" clip-rule="evenodd" d="M7.95307 28.4652C7.26002 28.4652 6.69727 27.9024 6.69727 27.2094C6.69727 26.5163 7.26002 25.9536 7.95307 25.9536H15.4879C16.1809 25.9536 16.7437 26.5163 16.7437 27.2094C16.7437 27.9024 16.1809 28.4652 15.4879 28.4652H7.95307Z" fill="#5C5C5C"/>
<path id="Vector_6" d="M27.8143 29.9297C29.2015 29.9297 30.326 28.8053 30.326 27.4181C30.326 26.031 29.2015 24.9065 27.8143 24.9065C26.4272 24.9065 25.3027 26.031 25.3027 27.4181C25.3027 28.8053 26.4272 29.9297 27.8143 29.9297Z" fill="#1BB5DB"/>
<path id="Vector_7" fill-rule="evenodd" clip-rule="evenodd" d="M30.3838 19.7483C30.3838 19.7483 30.978 21.1799 30.9764 21.1799C31.2024 21.2938 31.4214 21.4209 31.6341 21.5583L33.1709 21.3573C33.5861 21.304 34.0029 21.4609 34.2792 21.7772C35.0091 22.6147 35.5703 23.5872 35.9321 24.6389C36.0679 25.0361 35.9957 25.4764 35.7398 25.8092C35.7398 25.8092 34.7987 27.0398 34.7987 27.0383C34.8121 27.291 34.8121 27.5453 34.7987 27.7965L35.7398 29.0272C35.9957 29.3607 36.0679 29.801 35.9321 30.1974C35.5703 31.2491 35.0099 32.2216 34.2792 33.0591C34.0029 33.3754 33.5861 33.5331 33.1709 33.479C33.1709 33.479 31.6341 33.2781 31.6357 33.2765C31.423 33.4154 31.2017 33.5426 30.978 33.6564L30.3838 35.088C30.2229 35.4765 29.8783 35.7575 29.4663 35.8383C28.3745 36.0526 27.2529 36.0526 26.1612 35.8383C25.7491 35.7583 25.4045 35.4765 25.2436 35.088C25.2436 35.088 24.6495 33.6564 24.6511 33.6564C24.425 33.5426 24.2037 33.4154 23.9933 33.2781L22.4565 33.479C22.0398 33.5324 21.6246 33.3754 21.3483 33.0591C20.6168 32.2216 20.0556 31.2491 19.6953 30.1974C19.5596 29.8003 19.6318 29.3599 19.8861 29.0272C19.8861 29.0272 20.8287 27.7965 20.8287 27.798C20.8154 27.5453 20.8154 27.291 20.8287 27.0398L19.8861 25.8092C19.6318 25.4756 19.5596 25.0353 19.6953 24.6389C20.0556 23.5872 20.616 22.6147 21.3483 21.7772C21.6246 21.4609 22.0398 21.3032 22.4565 21.3573C22.4565 21.3573 23.9933 21.5583 23.9918 21.5598C24.2045 21.4209 24.4234 21.2938 24.6495 21.1799L25.2436 19.7483C25.4045 19.3598 25.7491 19.0788 26.1612 18.998C27.2529 18.7837 28.3745 18.7837 29.4663 18.998C29.8783 19.078 30.2229 19.3598 30.3838 19.7483ZM28.3384 21.3722C27.9899 21.3424 27.6383 21.3401 27.2906 21.3722L26.7812 22.5959C26.6541 22.902 26.4092 23.1468 26.1015 23.274C25.7365 23.4247 25.3951 23.6225 25.082 23.8634C24.819 24.0659 24.4839 24.1546 24.1542 24.113L22.8396 23.9404C22.6386 24.2284 22.4628 24.5314 22.3153 24.8492L23.1206 25.901C23.323 26.1655 23.4117 26.5006 23.3686 26.8303C23.3168 27.2204 23.3168 27.6159 23.3686 28.006C23.4117 28.3357 23.323 28.6708 23.1206 28.9353C23.1206 28.9353 22.3153 29.9871 22.3153 29.9886C22.4628 30.3049 22.6386 30.6095 22.8396 30.896L24.1542 30.7233C24.4839 30.6817 24.819 30.7704 25.082 30.9729C25.3951 31.2138 25.7365 31.4116 26.1015 31.5623C26.41 31.6895 26.6541 31.9343 26.7812 32.2404L27.2906 33.4641C27.6391 33.4962 27.9907 33.4962 28.3384 33.4641L28.8478 32.2404C28.975 31.9343 29.2198 31.6895 29.5275 31.5623C29.8909 31.4116 30.2339 31.2138 30.5471 30.9729C30.81 30.7704 31.1451 30.6817 31.4748 30.7233L32.7895 30.896C32.9904 30.6079 33.1662 30.3049 33.3138 29.9871L32.5085 28.9353C32.306 28.6708 32.2173 28.3357 32.2605 28.006C32.3107 27.6159 32.3107 27.2204 32.2605 26.8303C32.2173 26.5006 32.306 26.1655 32.5085 25.901C32.5085 25.901 33.3138 24.8492 33.3138 24.8477C33.1646 24.5314 32.9904 24.2268 32.7895 23.9404L31.4748 24.113C31.1451 24.1546 30.81 24.0659 30.5471 23.8634C30.2339 23.6225 29.8909 23.4247 29.5275 23.274C29.2191 23.1468 28.975 22.902 28.8478 22.5959L28.3384 21.3722Z" fill="#1BB5DB"/>
</g>
</g>
<defs>
<clipPath id="clip0_153_3142">
<rect width="36" height="36" fill="white"/>
</clipPath>
</defs>
</svg>
