<svg width="38" height="32" viewBox="0 0 38 32" fill="none" xmlns="http://www.w3.org/2000/svg">
<g clip-path="url(#clip0_1138_3841)">
<path d="M35.7193 4.02617H22.6513C22.6334 4.02617 22.6171 4.01652 22.6096 4.00093L21.2622 1.27177C20.8814 0.49891 20.079 0 19.2157 0H11.3152C10.0577 0 9.03448 1.02158 9.03448 2.27776V4.51023H6.79761C5.54012 4.51023 4.51687 5.53181 4.51687 6.78725V9.01972H2.28074C1.02325 9.01972 0 10.0413 0 11.2967V29.723C0 30.9784 1.02325 32 2.28074 32H26.6848C27.9423 32 28.9655 30.9784 28.9655 29.723V27.4905H31.2016C32.4591 27.4905 33.4824 26.4689 33.4824 25.2135V22.981H35.7185C36.976 22.981 37.9993 21.9594 37.9993 20.704V6.30319C37.9993 5.047 36.976 4.02543 35.7185 4.02543L35.7193 4.02617ZM26.6855 29.7683H2.28074C2.25546 29.7683 2.23538 29.7482 2.23538 29.723V11.2967C2.23538 11.2715 2.2562 11.2515 2.28074 11.2515H10.1819C10.1894 11.2515 10.1968 11.2544 10.2027 11.2574C10.2035 11.2574 10.205 11.2574 10.2057 11.2581C10.2087 11.2596 10.2094 11.2633 10.2124 11.2648C10.2161 11.2685 10.2206 11.2715 10.2228 11.2767L11.571 14.0073C11.9577 14.7906 12.7423 15.2776 13.6168 15.2776H26.6855C26.6915 15.2776 26.6974 15.2791 26.7034 15.2813C26.7197 15.288 26.7309 15.3043 26.7309 15.3237C26.7309 23.1934 26.7309 29.6517 26.7309 29.7237C26.7309 29.749 26.7108 29.769 26.6855 29.769V29.7683ZM31.2477 25.2135C31.2477 25.2387 31.2277 25.2588 31.2024 25.2588H28.9655V15.3229C28.9655 14.0667 27.9423 13.0459 26.6848 13.0459H13.6168C13.5997 13.0459 13.5841 13.0355 13.5759 13.0206L12.2269 10.29C11.8402 9.50749 11.0564 9.02046 10.1819 9.02046H6.75225V6.78799C6.75225 6.76275 6.77233 6.7427 6.79761 6.7427H14.6988C14.7159 6.7427 14.7315 6.75235 14.7397 6.76869L16.0886 9.49933C16.4761 10.2826 17.2599 10.7689 18.1337 10.7689H31.2031C31.2284 10.7689 31.2485 10.7889 31.2485 10.8142V25.2142L31.2477 25.2135ZM35.7646 20.7033C35.7646 20.7285 35.7445 20.7486 35.7193 20.7486H33.4831V10.8127C33.4831 9.55724 32.4606 8.53566 31.2024 8.53566H18.1329C18.1158 8.53566 18.1002 8.52527 18.092 8.50968L16.7438 5.78052C16.3571 4.99652 15.5733 4.51023 14.698 4.51023H11.2691V2.27776C11.2691 2.25252 11.2892 2.23173 11.3145 2.23173H19.2149C19.232 2.23173 19.2476 2.24138 19.2558 2.25697L20.6048 4.98835C20.9915 5.77087 21.776 6.2579 22.6513 6.2579H35.7193C35.7445 6.2579 35.7646 6.27869 35.7646 6.30393V20.704V20.7033Z" fill="#26A69A"/>
<path d="M19.8599 24.9165C19.2427 24.9165 18.7422 25.4162 18.7422 26.0324V26.6775C18.7422 27.2937 19.2427 27.7934 19.8599 27.7934C20.4771 27.7934 20.9776 27.2937 20.9776 26.6775V26.0324C20.9776 25.4162 20.4771 24.9165 19.8599 24.9165Z" fill="#26A69A"/>
<path d="M23.1177 24.9165C22.5005 24.9165 22 25.4162 22 26.0324V26.6775C22 27.2937 22.5005 27.7934 23.1177 27.7934C23.7349 27.7934 24.2354 27.2937 24.2354 26.6775V26.0324C24.2354 25.4162 23.7349 24.9165 23.1177 24.9165Z" fill="#26A69A"/>
</g>
<defs>
<clipPath id="clip0_1138_3841">
<rect width="38" height="32" fill="white"/>
</clipPath>
</defs>
</svg>
