<svg width="30" height="27" viewBox="0 0 30 27" fill="none" xmlns="http://www.w3.org/2000/svg">
<g id="_?&#238;&#161;&#188;&#230;&#131;&#156;_1" clip-path="url(#clip0_280_527)">
<path id="Vector" d="M20.9535 18.1893L22.6202 16.502C22.8806 16.2384 23.3337 16.423 23.3337 16.8026V24.4691C23.3337 25.8664 22.2139 27 20.8337 27H2.50004C1.11981 27 0 25.8664 0 24.4691V5.90915C0 4.51188 1.11981 3.37825 2.50004 3.37825H16.7451C17.1149 3.37825 17.3024 3.8317 17.042 4.10061L15.3753 5.78788C15.2971 5.86697 15.193 5.90915 15.0784 5.90915H2.50004V24.4691H20.8337V18.4846C20.8337 18.3739 20.8754 18.2684 20.9535 18.1893ZM29.1099 7.54897L15.4326 21.3951L10.7241 21.9224C9.35954 22.0753 8.19806 20.91 8.3491 19.518L8.86995 14.7515L22.5473 0.905345C23.74 -0.302107 25.6671 -0.302107 26.8546 0.905345L29.1047 3.18316C30.2974 4.39061 30.2974 6.34679 29.1099 7.54897ZM23.964 9.17824L20.9379 6.11479L11.2606 15.9168L10.8804 19.3599L14.2815 18.9749L23.964 9.17824ZM27.339 4.97641L25.089 2.6986C24.8754 2.48241 24.5265 2.48241 24.3181 2.6986L22.7087 4.32787L25.7348 7.39131L27.3442 5.76204C27.5526 5.54059 27.5526 5.19259 27.339 4.97641Z" fill="#1BB5DB"/>
</g>
<defs>
<clipPath id="clip0_280_527">
<rect width="30" height="27" fill="white"/>
</clipPath>
</defs>
</svg>
