<svg width="36" height="36" viewBox="0 0 36 36" fill="none" xmlns="http://www.w3.org/2000/svg">
<g id="Capa_1" clip-path="url(#clip0_148_1099)">
<path id="Vector" d="M29.2966 9.70166H23.3202V13.2619H29.2966C31.0759 13.2619 32.4532 14.1698 32.4532 14.959V30.7486C32.4532 31.5319 31.0759 32.4457 29.2966 32.4457H6.70345C4.92414 32.4457 3.5468 31.5319 3.5468 30.7486V14.9649C3.5468 14.1816 4.92414 13.2678 6.70345 13.2678H12.6798V9.70759H6.70345C2.94384 9.70759 0 12.0158 0 14.9649V30.7546C0 33.7036 2.94384 36.0119 6.70345 36.0119H29.2966C33.0562 36.0119 36 33.7036 36 30.7546V14.9649C36 12.0158 33.0562 9.70759 29.2966 9.70759V9.70166Z" fill="#5C5C5C"/>
<path id="Vector_2" d="M23.3677 17.1426C22.9125 17.1426 22.4632 17.3147 22.1145 17.6647L19.8918 19.8958V1.78012C19.8918 0.795121 19.0997 0 18.1184 0C17.1371 0 16.345 0.795121 16.345 1.78012V20.0086L14.0041 17.6588C13.6554 17.3087 13.2061 17.1366 12.7509 17.1366C12.2958 17.1366 11.8465 17.3087 11.4977 17.6588C10.8061 18.3531 10.8061 19.4805 11.4977 20.1747L16.7943 25.4913C17.143 25.8414 17.5923 26.0135 18.0475 26.0135H18.077C18.5322 26.0135 18.9815 25.8414 19.3302 25.4913L24.6268 20.1747C25.3184 19.4805 25.3184 18.3531 24.6268 17.6588C24.278 17.3147 23.8288 17.1366 23.3736 17.1366L23.3677 17.1426Z" fill="#1BB5DB"/>
</g>
<defs>
<clipPath id="clip0_148_1099">
<rect width="36" height="36" fill="white"/>
</clipPath>
</defs>
</svg>
