<svg width="36" height="36" viewBox="0 0 36 36" fill="none" xmlns="http://www.w3.org/2000/svg">
<g clip-path="url(#clip0_572_1833)">
<path d="M32.836 28.0543H3.16405C1.4196 28.0543 0 26.6347 0 24.8903V4.3593C0 2.61433 1.4196 1.19525 3.16405 1.19525H32.836C34.5804 1.19525 36 2.61485 36 4.3593V24.8903C36 26.6347 34.5804 28.0543 32.836 28.0543ZM3.16405 3.30462C2.58239 3.30462 2.10936 3.77764 2.10936 4.3593V24.8903C2.10936 25.4719 2.58239 25.945 3.16405 25.945H32.836C33.4176 25.945 33.8906 25.4719 33.8906 24.8903V4.3593C33.8906 3.77764 33.4176 3.30462 32.836 3.30462H3.16405Z" fill="#5C5C5C"/>
<path d="M22.5001 34.8045H13.5C13.1899 34.8045 12.8956 34.6679 12.6953 34.4317C12.4949 34.1949 12.4089 33.8822 12.4595 33.5763L13.5843 26.8264C13.6693 26.318 14.1091 25.9452 14.6248 25.9452H21.3748C21.8905 25.9452 22.3303 26.318 22.4152 26.8264L23.54 33.5763C23.5912 33.8822 23.5047 34.1949 23.3043 34.4317C23.1039 34.6685 22.8097 34.8045 22.4996 34.8045H22.5001ZM14.745 32.6952H21.2551L20.4814 28.0546H15.5186L14.745 32.6952Z" fill="#5C5C5C"/>
<path d="M24.7499 34.8045H11.25C10.6673 34.8045 10.1953 34.3326 10.1953 33.7498C10.1953 33.1671 10.6673 32.6952 11.25 32.6952H24.7499C25.3326 32.6952 25.8046 33.1671 25.8046 33.7498C25.8046 34.3326 25.3326 34.8045 24.7499 34.8045Z" fill="#5C5C5C"/>
<path d="M14.6246 21.3046H5.62499C5.04228 21.3046 4.57031 20.8326 4.57031 20.2499V9.00012C4.57031 8.4174 5.04228 7.94543 5.62499 7.94543C6.20771 7.94543 6.67968 8.4174 6.67968 9.00012V19.1952H14.6251C15.2078 19.1952 15.6798 19.6672 15.6798 20.2499C15.6798 20.8326 15.2078 21.3046 14.6251 21.3046H14.6246Z" fill="#1BB5DB"/>
<path d="M10.125 21.3046C9.54228 21.3046 9.07031 20.8326 9.07031 20.2499V12.3751C9.07031 11.7924 9.54228 11.3204 10.125 11.3204C10.7077 11.3204 11.1797 11.7924 11.1797 12.3751V20.2499C11.1797 20.8326 10.7077 21.3046 10.125 21.3046Z" fill="#1BB5DB"/>
<path d="M14.625 21.3046C14.0423 21.3046 13.5703 20.8326 13.5703 20.2499V15.7501C13.5703 15.1674 14.0423 14.6954 14.625 14.6954C15.2077 14.6954 15.6797 15.1674 15.6797 15.7501V20.2499C15.6797 20.8326 15.2077 21.3046 14.625 21.3046Z" fill="#1BB5DB"/>
<path d="M25.3125 20.7419C21.9396 20.7419 19.1953 17.9976 19.1953 14.6248C19.1953 11.2519 21.9396 8.5076 25.3125 8.5076C28.6853 8.5076 31.4296 11.2519 31.4296 14.6248C31.4296 17.9976 28.6853 20.7419 25.3125 20.7419ZM25.3125 10.617C23.1024 10.617 21.3047 12.4147 21.3047 14.6248C21.3047 16.8348 23.1024 18.6325 25.3125 18.6325C27.5226 18.6325 29.3203 16.8348 29.3203 14.6248C29.3203 12.4147 27.5226 10.617 25.3125 10.617Z" fill="#1BB5DB"/>
<path d="M30.375 15.6794H25.3125C24.7298 15.6794 24.2578 15.2075 24.2578 14.6248V9.56228C24.2578 8.97957 24.7298 8.5076 25.3125 8.5076C25.8952 8.5076 26.3672 8.97957 26.3672 9.56228V13.5701H30.375C30.9577 13.5701 31.4297 14.042 31.4297 14.6248C31.4297 15.2075 30.9577 15.6794 30.375 15.6794Z" fill="#1BB5DB"/>
<path d="M21.7333 19.259C21.4633 19.259 21.1933 19.1562 20.9876 18.95C20.5757 18.5381 20.5757 17.8705 20.9876 17.4587L24.5672 13.8791C24.979 13.4672 25.6467 13.4672 26.0585 13.8791C26.4704 14.2909 26.4704 14.9585 26.0585 15.3704L22.4789 18.95C22.2733 19.1557 22.0033 19.259 21.7333 19.259Z" fill="#1BB5DB"/>
<path d="M18 5.55448C17.4173 5.55448 16.9453 5.08251 16.9453 4.49979V2.24963C16.9453 1.66692 17.4173 1.19495 18 1.19495C18.5827 1.19495 19.0547 1.66692 19.0547 2.24963V4.49979C19.0547 5.08251 18.5827 5.55448 18 5.55448Z" fill="#5C5C5C"/>
</g>
<defs>
<clipPath id="clip0_572_1833">
<rect width="36" height="36" fill="white"/>
</clipPath>
</defs>
</svg>
