<?xml version="1.0" encoding="utf-8"?>
<!-- Generator: Adobe Illustrator 16.0.0, SVG Export Plug-In . SVG Version: 6.00 Build 0)  -->
<!DOCTYPE svg PUBLIC "-//W3C//DTD SVG 1.1//EN" "http://www.w3.org/Graphics/SVG/1.1/DTD/svg11.dtd">
<svg version="1.1" id="圖層_1" xmlns="http://www.w3.org/2000/svg" xmlns:xlink="http://www.w3.org/1999/xlink" x="0px" y="0px"
	 width="22px" height="22px" viewBox="0 0 22 22" enable-background="new 0 0 22 22" xml:space="preserve">
<g id="水庫堰壩">
	<g id="圖層_2" display="none">
		<rect display="inline" fill="#DA1617" width="22" height="22"/>
	</g>
	<g id="圖層_1_1_">
		<circle fill="#A8BCFF" stroke="#FFFFFF" stroke-miterlimit="10" cx="11" cy="11" r="10.5"/>
	</g>
	<polygon fill="#4A4A4A" points="4.438,5.813 4.438,17.188 17.689,17.188 17.689,14.688 10.158,11.5 10.214,5.813 	"/>
	<line fill="none" stroke="#005AFF" stroke-miterlimit="10" x1="12.32" y1="6.688" x2="18.438" y2="6.688"/>
	<line fill="none" stroke="#005AFF" stroke-miterlimit="10" x1="12.32" y1="8.688" x2="18.438" y2="8.688"/>
	<line fill="none" stroke="#005AFF" stroke-miterlimit="10" x1="12.32" y1="10.688" x2="18.438" y2="10.688"/>
</g>
<g id="CCTV位置" display="none">
	<g id="圖層_1_2_" display="inline">
		<circle fill="#FFBB39" stroke="#FFFFFF" stroke-miterlimit="10" cx="11" cy="11" r="10.5"/>
	</g>
	<rect x="3.854" y="7.006" display="inline" fill="#753925" width="1.726" height="5.139"/>
	<path display="inline" fill="#753925" d="M6.691,5.699v7.752h10.62V5.699H6.691z M15.982,8.584H8.019V6.753h7.963V8.584
		L15.982,8.584z"/>
	<polyline display="inline" fill="none" stroke="#753925" stroke-width="1.2" stroke-miterlimit="10" points="11,11.423 11,15.75 
		18.168,15.75 	"/>
</g>
<g id="大壩監測" display="none">
	<g id="圖層_1_3_" display="inline">
		<circle fill="#FF008A" stroke="#FFFFFF" stroke-miterlimit="10" cx="11" cy="11" r="10.5"/>
	</g>
	<polyline display="inline" fill="none" stroke="#000000" stroke-width="1.2" stroke-miterlimit="10" points="3.917,11.5 
		5.917,11.5 7.333,6.667 9.95,15.902 12.82,9.33 14.625,12.936 18.479,12.924 	"/>
</g>
<g id="歷年工程點位" display="none">
	<g id="圖層_1_4_" display="inline">
		<circle fill="#C4B275" stroke="#FFFFFF" stroke-miterlimit="10" cx="11" cy="11" r="10.5"/>
	</g>
	<path display="inline" fill="#852F21" d="M17.76,14.48l-4.096-3.942c0.26-0.613,0.402-1.287,0.402-1.995
		c0-2.826-2.289-5.117-5.116-5.117c-0.637,0-1.24,0.13-1.802,0.343L9.58,6.082c0.838,0.796,0.871,2.12,0.075,2.957
		c-0.797,0.838-2.12,0.872-2.958,0.075L4.183,6.723C3.966,7.29,3.834,7.899,3.834,8.543c0,2.826,2.291,5.116,5.117,5.116
		c0.67,0,1.306-0.138,1.893-0.371l4.187,4.03c0.781,0.755,2.027,0.729,2.781-0.053C18.566,16.482,18.544,15.236,17.76,14.48z"/>
</g>
<g id="水門位置圖" display="none">
	<g id="圖層_1_5_" display="inline">
		<circle fill="#B7B7B7" stroke="#FFFFFF" stroke-miterlimit="10" cx="11" cy="11" r="10.5"/>
	</g>
	<polygon display="inline" fill="#00A2FF" points="4.583,6.25 4.583,8.833 4.583,10 4.583,16.333 6.583,16.333 6.583,10 15.417,10 
		15.417,16.333 17.417,16.333 17.417,10 17.417,8.833 17.417,6.25 	"/>
</g>
<g id="人工泥沙濃度" display="none">
	<g id="圖層_1_6_" display="inline">
		<circle fill="#FFB680" stroke="#FFFFFF" stroke-miterlimit="10" cx="11" cy="11" r="10.5"/>
	</g>
	<path display="inline" fill="#FFFFFF" d="M15.111,4.52H8.052h-0.12H4.667l1.692,3.743v8.274c0,0.845,0.705,1.525,1.574,1.525h7.178
		c0.871,0,1.576-0.682,1.576-1.525V6.044C16.688,5.204,15.982,4.52,15.111,4.52z"/>
	
		<line display="inline" fill="none" stroke="#000000" stroke-width="0.25" stroke-miterlimit="10" x1="13.104" y1="6.483" x2="15.697" y2="6.483"/>
	
		<line display="inline" fill="none" stroke="#000000" stroke-width="0.25" stroke-miterlimit="10" x1="13.104" y1="8.493" x2="15.697" y2="8.493"/>
	
		<line display="inline" fill="none" stroke="#000000" stroke-width="0.25" stroke-miterlimit="10" x1="13.104" y1="10.503" x2="15.697" y2="10.503"/>
	<g display="inline">
		<path fill="#683501" d="M6.813,16.708c0,0.437,0.331,0.792,0.739,0.792h7.77c0.41,0,0.74-0.355,0.74-0.792v-4.956h-9.25V16.708z"
			/>
	</g>
	<circle display="inline" fill="#2D1D0F" cx="8.772" cy="15.89" r="0.427"/>
	<circle display="inline" fill="#2D1D0F" cx="11.618" cy="16.35" r="0.823"/>
	<circle display="inline" fill="#2D1D0F" cx="14.003" cy="15.89" r="1.234"/>
	<circle display="inline" fill="#2D1D0F" cx="10.664" cy="13.881" r="0.458"/>
	<circle display="inline" fill="#2D1D0F" cx="12.075" cy="14.607" r="0.457"/>
	
		<line display="inline" fill="none" stroke="#000000" stroke-width="0.25" stroke-miterlimit="10" x1="13.104" y1="12.514" x2="15.697" y2="12.514"/>
	
		<line display="inline" fill="none" stroke="#000000" stroke-width="0.25" stroke-miterlimit="10" x1="13.104" y1="14.523" x2="15.697" y2="14.523"/>
</g>
<g id="自動泥沙" display="none">
	<g id="圖層_1_7_" display="inline">
		<circle fill="#777777" stroke="#FFFFFF" stroke-miterlimit="10" cx="11" cy="11" r="10.5"/>
	</g>
	<path display="inline" fill="#FFFFFF" d="M15.111,4.52H8.052h-0.12H4.667l1.692,3.743v8.274c0,0.845,0.705,1.525,1.574,1.525h7.178
		c0.871,0,1.576-0.682,1.576-1.525V6.044C16.688,5.204,15.982,4.52,15.111,4.52z"/>
	
		<line display="inline" fill="none" stroke="#000000" stroke-width="0.25" stroke-miterlimit="10" x1="13.104" y1="6.483" x2="15.697" y2="6.483"/>
	
		<line display="inline" fill="none" stroke="#000000" stroke-width="0.25" stroke-miterlimit="10" x1="13.104" y1="8.493" x2="15.697" y2="8.493"/>
	
		<line display="inline" fill="none" stroke="#000000" stroke-width="0.25" stroke-miterlimit="10" x1="13.104" y1="10.503" x2="15.697" y2="10.503"/>
	<g display="inline">
		<path fill="#896442" d="M6.813,16.708c0,0.437,0.331,0.792,0.739,0.792h7.77c0.41,0,0.74-0.355,0.74-0.792v-4.956h-9.25V16.708z"
			/>
	</g>
	<circle display="inline" fill="#2D1D0F" cx="8.772" cy="15.89" r="0.427"/>
	<circle display="inline" fill="#2D1D0F" cx="11.618" cy="16.35" r="0.823"/>
	<circle display="inline" fill="#2D1D0F" cx="14.003" cy="15.065" r="1.234"/>
	<circle display="inline" fill="#2D1D0F" cx="10.664" cy="13.881" r="0.458"/>
	<circle display="inline" fill="#2D1D0F" cx="12.075" cy="14.607" r="0.457"/>
	
		<line display="inline" fill="none" stroke="#000000" stroke-width="0.25" stroke-miterlimit="10" x1="13.104" y1="12.514" x2="15.697" y2="12.514"/>
	
		<line display="inline" fill="none" stroke="#000000" stroke-width="0.25" stroke-miterlimit="10" x1="13.104" y1="14.523" x2="15.697" y2="14.523"/>
</g>
<g id="雨量站" display="none">
	<g id="圖層_1_8_" display="inline">
		<circle fill="#FF9AB7" stroke="#FFFFFF" stroke-miterlimit="10" cx="11" cy="11" r="10.5"/>
	</g>
	<g display="inline">
		<g transform="translate(1.000000, 2.000000)">
			<path fill="#434343" d="M16.471,6.356c-0.255,0-0.498,0.067-0.729,0.171c-0.711-1.069-1.873-1.769-3.192-1.769
				c-0.212,0-0.418,0.022-0.618,0.059C11.23,3.65,10.016,2.876,8.628,2.876c-1.955,0-3.574,1.54-3.868,3.549
				c-0.019,0-0.036-0.006-0.053-0.006c-1.312,0-2.373,1.14-2.373,2.546h16.381C18.57,7.496,17.628,6.356,16.471,6.356L16.471,6.356z
				"/>
			<path fill="#434343" d="M3.737,15.123c-0.05,0-0.103-0.008-0.152-0.025c-0.191-0.07-0.277-0.262-0.194-0.424l2.265-4.385
				c0.085-0.16,0.309-0.234,0.497-0.164c0.191,0.072,0.278,0.262,0.193,0.424l-2.262,4.385C4.021,15.053,3.883,15.123,3.737,15.123
				L3.737,15.123z"/>
			<path fill="#434343" d="M6.852,15.092c-0.052,0-0.102-0.008-0.149-0.025c-0.189-0.069-0.275-0.262-0.192-0.424l2.228-4.385
				c0.084-0.16,0.302-0.234,0.492-0.164c0.188,0.07,0.272,0.262,0.19,0.422l-2.228,4.387C7.129,15.02,6.994,15.092,6.852,15.092
				L6.852,15.092z"/>
			<path fill="#434343" d="M9.869,15.092c-0.053,0-0.103-0.008-0.153-0.025c-0.193-0.069-0.281-0.258-0.195-0.418l2.299-4.344
				c0.086-0.16,0.313-0.232,0.506-0.162c0.191,0.07,0.279,0.258,0.193,0.418l-2.296,4.344C10.158,15.021,10.018,15.092,9.869,15.092
				L9.869,15.092z"/>
			<path fill="#434343" d="M12.951,15.092c-0.051,0-0.104-0.008-0.151-0.025c-0.19-0.069-0.276-0.258-0.192-0.418l2.265-4.344
				c0.082-0.16,0.308-0.232,0.496-0.162c0.19,0.07,0.278,0.258,0.194,0.418l-2.266,4.344C13.234,15.021,13.098,15.092,12.951,15.092
				L12.951,15.092z"/>
		</g>
	</g>
</g>
<g id="雨量站_拷貝" display="none">
	<g id="圖層_1_9_" display="inline">
		<circle fill="#F2F2F3" stroke="#FFFFFF" stroke-miterlimit="10" cx="11" cy="11" r="10.5"/>
	</g>
	<path display="inline" fill="#6D9EC8" d="M14.164,7.71c0.289-2.526-2.929-5.508-2.97-5.547V2.156l-0.007,0.002l-0.004-0.002v0.007
		c-0.041,0.04-3.242,3.01-2.963,5.534c0,0.009-0.004,0.018-0.004,0.028c0,1.644,1.332,2.975,2.971,2.975
		c1.646,0,2.977-1.332,2.977-2.975C14.164,7.72,14.164,7.715,14.164,7.71z"/>
	<path display="inline" fill="none" stroke="#FFFFFF" stroke-width="0.5" stroke-linecap="round" stroke-miterlimit="10" d="
		M12.25,9.073c-0.273,0.215-0.84,0.333-1.217,0.333c-0.899,0-1.629-0.728-1.629-1.627"/>
	<polygon display="inline" fill="#A2DAF7" points="11.192,11.482 4.014,11.482 4.014,12.441 10.533,16.563 10.533,19.338 
		11.192,19.338 11.854,19.338 11.854,16.563 18.372,12.441 18.372,11.482 	"/>
	<polyline display="inline" fill="none" stroke="#9B9C9C" stroke-miterlimit="10" points="9.295,19.338 9.295,17.328 2.694,13.229 
		2.694,10.293 	"/>
	<polyline display="inline" fill="none" stroke="#9B9C9C" stroke-miterlimit="10" points="12.936,19.338 12.936,17.328 
		19.534,13.229 19.534,10.293 	"/>
</g>
<g id="淨水場" display="none">
	<g id="圖層_1_10_" display="inline">
		<circle fill="#2196F3" stroke="#FFFFFF" stroke-miterlimit="10" cx="11" cy="11" r="10.5"/>
	</g>
	<polyline display="inline" fill="none" stroke="#ECEFF1" stroke-miterlimit="10" points="4.751,7.375 4.751,15.625 17.376,15.625 
		17.376,7.453 	"/>
	<rect x="5.625" y="9.5" display="inline" fill="#283593" width="3.859" height="3"/>
	<rect x="10.336" y="7.75" display="inline" fill="#283593" width="3.096" height="4.75"/>
	<rect x="7.555" y="7.75" display="inline" fill="#283593" width="1.905" height="0.938"/>
	<rect x="14.375" y="9.5" display="inline" fill="#283593" width="1.75" height="3"/>
	<polygon display="inline" fill="#BBDEF8" points="9.075,17.5 12.925,17.5 10.961,19.464 	"/>
	<rect x="7.875" y="12.875" display="inline" fill="#283593" width="3.75" height="1.792"/>
	<rect x="11.885" y="12.875" display="inline" fill="#283593" width="1.816" height="0.896"/>
</g>
<g id="簡易自來水業務" display="none">
	<g id="圖層_1_11_" display="inline">
		<circle fill="#283593" stroke="#FFFFFF" stroke-miterlimit="10" cx="11" cy="11" r="10.5"/>
	</g>
	<path id="XMLID_13_" display="inline" fill="#FFFFFF" d="M7.644,14.402c-0.11-0.158-0.291-0.254-0.484-0.254
		c-0.193,0-0.374,0.096-0.484,0.254c-0.012,0.019-0.31,0.451-0.612,0.971c-0.598,1.031-0.667,1.473-0.667,1.715
		c0,0.973,0.791,1.764,1.763,1.764c0.972,0,1.763-0.791,1.763-1.764c0-0.242-0.069-0.684-0.667-1.715
		C7.954,14.854,7.656,14.421,7.644,14.402z"/>
	<path id="XMLID_14_" display="inline" fill="#FFFFFF" d="M11.641,3.75v2.817H11H8.44c-1.765,0-3.2,1.436-3.2,3.2v2.56
		c0,0.354,0.287,0.64,0.64,0.64h2.56c0.354,0,0.641-0.285,0.641-0.64v-1.919H11h2.561h2.561c0.354,0,0.641-0.287,0.641-0.64V7.207
		c0-0.354-0.287-0.64-0.641-0.64h-2.561H12.92V3.75"/>
	<path display="inline" fill="#FFFFFF" d="M16.368,3.893c0,0.276-0.224,0.5-0.5,0.5H8.773c-0.276,0-0.5-0.224-0.5-0.5V3.608
		c0-0.276,0.224-0.5,0.5-0.5h7.095c0.276,0,0.5,0.224,0.5,0.5V3.893z"/>
</g>
<g id="溫泉露頭" display="none">
	<g id="圖層_1_12_" display="inline">
		<circle fill="#EF5350" stroke="#FFFFFF" stroke-miterlimit="10" cx="11" cy="11" r="10.5"/>
	</g>
	<path display="inline" fill="#FFFFFF" d="M9.555,6.864C9.438,5.645,8.812,5.095,8.186,4.545c0.22,0.343,0.383,0.763,0.437,1.325
		c0.233,2.438-2.041,2.676-1.808,5.114c0.116,1.219,0.742,1.769,1.369,2.319C7.963,12.959,7.8,12.54,7.746,11.979
		C7.514,9.541,9.787,9.302,9.555,6.864z"/>
	<path display="inline" fill="#FFFFFF" d="M12.561,6.864c-0.115-1.219-0.742-1.769-1.369-2.319c0.221,0.343,0.384,0.762,0.437,1.324
		c0.232,2.438-2.041,2.676-1.808,5.114c0.117,1.219,0.742,1.769,1.369,2.319c-0.221-0.344-0.384-0.763-0.438-1.325
		C10.52,9.541,12.794,9.302,12.561,6.864z"/>
	<path display="inline" fill="#FFFFFF" d="M15.566,6.864c-0.115-1.219-0.741-1.769-1.369-2.319c0.223,0.343,0.385,0.762,0.439,1.324
		c0.231,2.438-2.041,2.676-1.81,5.114c0.116,1.219,0.741,1.769,1.368,2.319c-0.221-0.344-0.385-0.763-0.438-1.325
		C13.525,9.541,15.8,9.302,15.566,6.864z"/>
	<path display="inline" fill="#FFFFFF" d="M16.613,11.123c0.298,0.313,0.477,0.656,0.512,1.018c0.004,0.043,0.006,0.086,0.006,0.129
		c0,1.553-2.658,2.811-5.939,2.811s-5.94-1.258-5.94-2.811c0-0.408,0.185-0.795,0.516-1.146c-1.138,0.604-1.83,1.403-1.83,2.276
		c0,1.896,3.248,3.431,7.254,3.431c0.031,0,0.062,0,0.094,0c3.963,0,7.159-1.552,7.159-3.431
		C18.445,12.525,17.753,11.729,16.613,11.123z"/>
</g>
<g id="監測井" display="none">
	<g id="圖層_1_13_" display="inline">
		<circle fill="#FBC02D" stroke="#FFFFFF" stroke-miterlimit="10" cx="11" cy="11" r="10.5"/>
	</g>
	<g display="inline">
		<rect x="8.558" y="14.916" fill="#3E2723" width="2.259" height="4.98"/>
		<rect x="11.209" y="14.916" fill="#3E2723" width="2.232" height="4.98"/>
		<polygon fill="#3E2723" points="5.862,3.103 5.862,9.614 8.558,9.614 8.558,12.361 10.817,12.361 10.817,8.292 8.558,8.292 
			8.558,5.036 13.441,5.036 13.441,8.292 11.209,8.292 11.209,12.361 13.441,12.361 13.441,9.614 16.139,9.614 16.139,3.103 		"/>
	</g>
	<line display="inline" fill="none" stroke="#3E2723" stroke-miterlimit="10" x1="10.817" y1="12.361" x2="7.188" y2="12.361"/>
	<line display="inline" fill="none" stroke="#3E2723" stroke-miterlimit="10" x1="14.839" y1="12.361" x2="11.209" y2="12.361"/>
	<line display="inline" fill="none" stroke="#3E2723" stroke-miterlimit="10" x1="10.817" y1="14.916" x2="7.188" y2="14.916"/>
	<line display="inline" fill="none" stroke="#3E2723" stroke-miterlimit="10" x1="14.839" y1="14.916" x2="11.209" y2="14.916"/>
</g>
<g id="溫泉水權">
	<g id="圖層_1_14_">
		<circle fill="#864922" stroke="#FFFFFF" stroke-miterlimit="10" cx="11" cy="11" r="10.5"/>
	</g>
	<g>
		<path fill="#FFFFFF" d="M9.705,10.28C9.608,9.266,9.088,8.81,8.567,8.354c0.183,0.285,0.318,0.633,0.363,1.1
			c0.193,2.025-1.695,2.224-1.501,4.248c0.096,1.012,0.616,1.47,1.136,1.926c-0.183-0.284-0.318-0.633-0.363-1.101
			C8.009,12.503,9.898,12.305,9.705,10.28z"/>
		<path fill="#FFFFFF" d="M12.201,10.28c-0.096-1.014-0.616-1.47-1.136-1.926c0.183,0.285,0.318,0.633,0.362,1.1
			c0.193,2.025-1.695,2.224-1.501,4.248c0.097,1.012,0.617,1.47,1.136,1.926c-0.182-0.284-0.318-0.633-0.362-1.101
			C10.507,12.503,12.396,12.305,12.201,10.28z"/>
		<path fill="#FFFFFF" d="M14.699,10.28c-0.098-1.013-0.616-1.47-1.139-1.926c0.185,0.285,0.319,0.633,0.363,1.101
			c0.193,2.024-1.693,2.223-1.501,4.247c0.097,1.012,0.615,1.47,1.138,1.926c-0.185-0.284-0.318-0.633-0.363-1.101
			C13.003,12.503,14.893,12.305,14.699,10.28z"/>
		<path fill="#FFFFFF" d="M15.568,13.816c0.246,0.261,0.396,0.545,0.424,0.845c0.004,0.036,0.006,0.073,0.006,0.108
			c0,1.287-2.209,2.332-4.934,2.332S6.13,16.059,6.13,14.77c0-0.338,0.154-0.66,0.429-0.951c-0.946,0.504-1.521,1.166-1.521,1.891
			c0,1.574,2.698,2.85,6.025,2.85c0.025,0,0.052,0,0.078,0c3.292,0,5.947-1.287,5.947-2.85
			C17.089,14.982,16.516,14.32,15.568,13.816z"/>
	</g>
	<g>
		<g>
			<path fill="#FFFFFF" d="M19.288,9.212l-7.846-7.341c-0.207-0.193-0.528-0.195-0.736-0.003l-7.991,7.34
				C2.495,9.411,2.48,9.753,2.683,9.973c0.106,0.117,0.252,0.176,0.398,0.176c0.131,0,0.262-0.048,0.366-0.143l7.622-7.002
				l7.479,6.999c0.22,0.204,0.562,0.192,0.767-0.026C19.518,9.759,19.507,9.416,19.288,9.212z"/>
		</g>
	</g>
	<path fill="#FFFFFF" d="M4.479,14.611c0,0.47-0.224,0.851-0.5,0.851H3.896c-0.276,0-0.5-0.381-0.5-0.851V9.368
		c0-0.469,0.224-0.85,0.5-0.85h0.083c0.276,0,0.5,0.381,0.5,0.85V14.611z"/>
	<path fill="#FFFFFF" d="M18.688,14.781c0,0.47-0.223,0.851-0.5,0.851h-0.082c-0.276,0-0.5-0.381-0.5-0.851V9.538
		c0-0.469,0.224-0.85,0.5-0.85h0.082c0.277,0,0.5,0.381,0.5,0.85V14.781z"/>
</g>
</svg>
